AdventPro-Light.ufo
<glyph name="exclam" format="1">
  <advance width="214"/>
  <unicode hex="0021"/>
  <outline>
    <contour>
      <point x="134" y="679" type="qcurve"/>
      <point x="126" y="120" type="line"/>
      <point x="88" y="120" type="line"/>
      <point x="79" y="679" type="line"/>
      <point x="79" y="710"/>
      <point x="134" y="710"/>
    </contour>
    <contour>
      <point x="86" y="47" type="qcurve"/>
      <point x="95" y="55"/>
      <point x="117" y="55"/>
      <point x="133" y="39"/>
      <point x="133" y="17"/>
      <point x="117" y="0"/>
      <point x="95" y="0"/>
      <point x="78" y="17"/>
      <point x="78" y="39"/>
    </contour>
  </outline>
</glyph>
<glyph name="quotedbl" format="1">
  <advance width="426"/>
  <unicode hex="0022"/>
  <outline>
    <contour>
      <point x="308" y="705" type="qcurve"/>
      <point x="297" y="512" type="line"/>
      <point x="264" y="512" type="line"/>
      <point x="252" y="705" type="line"/>
      <point x="252" y="724"/>
      <point x="273" y="736"/>
      <point x="280" y="736" type="qcurve"/>
      <point x="294" y="732" type="line"/>
      <point x="308" y="724"/>
    </contour>
    <contour>
      <point x="171" y="705" type="qcurve"/>
      <point x="160" y="512" type="line"/>
      <point x="127" y="512" type="line"/>
      <point x="115" y="705" type="line"/>
      <point x="115" y="724"/>
      <point x="136" y="736"/>
      <point x="143" y="736" type="qcurve"/>
      <point x="157" y="732" type="line"/>
      <point x="171" y="724"/>
    </contour>
  </outline>
</glyph>
<glyph name="numbersign" format="1">
  <advance width="613"/>
  <unicode hex="0023"/>
  <outline>
    <contour>
      <point x="274" y="700" type="line"/>
      <point x="318" y="700" type="line"/>
      <point x="262" y="458" type="line"/>
      <point x="402" y="458" type="line"/>
      <point x="459" y="700" type="line"/>
      <point x="503" y="700" type="line"/>
      <point x="446" y="458" type="line"/>
      <point x="582" y="458" type="line"/>
      <point x="582" y="413" type="line"/>
      <point x="436" y="413" type="line"/>
      <point x="396" y="245" type="line"/>
      <point x="582" y="245" type="line"/>
      <point x="582" y="200" type="line"/>
      <point x="386" y="200" type="line"/>
      <point x="339" y="0" type="line"/>
      <point x="295" y="0" type="line"/>
      <point x="341" y="200" type="line"/>
      <point x="201" y="200" type="line"/>
      <point x="154" y="0" type="line"/>
      <point x="110" y="0" type="line"/>
      <point x="157" y="200" type="line"/>
      <point x="34" y="200" type="line"/>
      <point x="34" y="245" type="line"/>
      <point x="167" y="245" type="line"/>
      <point x="207" y="413" type="line"/>
      <point x="34" y="413" type="line"/>
      <point x="34" y="458" type="line"/>
      <point x="218" y="458" type="line"/>
    </contour>
    <contour>
      <point x="251" y="413" type="line"/>
      <point x="211" y="245" type="line"/>
      <point x="352" y="245" type="line"/>
      <point x="392" y="413" type="line"/>
    </contour>
  </outline>
</glyph>
<glyph name="dollar" format="1">
  <advance width="540"/>
  <unicode hex="0024"/>
  <outline>
    <contour>
      <point x="246" y="817" type="line"/>
      <point x="291" y="817" type="line"/>
      <point x="291" y="710" type="line"/>
      <point x="363" y="708"/>
      <point x="423" y="680" type="qcurve"/>
      <point x="409" y="637" type="line"/>
      <point x="358" y="663"/>
      <point x="291" y="666" type="qcurve"/>
      <point x="291" y="390" type="line"/>
      <point x="422" y="344"/>
      <point x="464" y="302" type="qcurve"/>
      <point x="482" y="284"/>
      <point x="509" y="225"/>
      <point x="509" y="190" type="qcurve"/>
      <point x="509" y="103"/>
      <point x="402" y="-5"/>
      <point x="291" y="-10" type="qcurve"/>
      <point x="291" y="-114" type="line"/>
      <point x="246" y="-114" type="line"/>
      <point x="246" y="-10" type="line"/>
      <point x="148" y="-3"/>
      <point x="36" y="109"/>
      <point x="34" y="178" type="qcurve"/>
      <point x="80" y="178" type="line"/>
      <point x="83" y="126"/>
      <point x="172" y="39"/>
      <point x="246" y="33" type="qcurve"/>
      <point x="246" y="358" type="line"/>
      <point x="201" y="374"/>
      <point x="144" y="399"/>
      <point x="113" y="420" type="qcurve"/>
      <point x="52" y="461"/>
      <point x="52" y="602"/>
      <point x="151" y="700"/>
      <point x="246" y="708" type="qcurve"/>
    </contour>
    <contour>
      <point x="291" y="343" type="qcurve"/>
      <point x="291" y="32" type="line"/>
      <point x="366" y="37"/>
      <point x="461" y="111"/>
      <point x="461" y="250"/>
      <point x="364" y="317"/>
    </contour>
    <contour>
      <point x="246" y="405" type="qcurve"/>
      <point x="246" y="664" type="line"/>
      <point x="179" y="657"/>
      <point x="99" y="590"/>
      <point x="99" y="487"/>
      <point x="175" y="430"/>
    </contour>
  </outline>
</glyph>
<glyph name="percent" format="1">
  <advance width="670"/>
  <unicode hex="0025"/>
  <outline>
    <contour>
      <point x="599" y="740" type="line"/>
      <point x="632" y="707" type="line"/>
      <point x="67" y="1" type="line"/>
      <point x="39" y="34" type="line"/>
    </contour>
    <contour>
      <point x="391" y="235" type="qcurve"/>
      <point x="433" y="277"/>
      <point x="553" y="277"/>
      <point x="637" y="193"/>
      <point x="637" y="73"/>
      <point x="553" y="-11"/>
      <point x="433" y="-11"/>
      <point x="349" y="73"/>
      <point x="349" y="193"/>
    </contour>
    <contour>
      <point x="418" y="205" type="qcurve"/>
      <point x="390" y="174"/>
      <point x="390" y="92"/>
      <point x="446" y="30"/>
      <point x="540" y="30"/>
      <point x="596" y="92"/>
      <point x="596" y="174"/>
      <point x="539" y="236"/>
      <point x="447" y="236"/>
    </contour>
    <contour>
      <point x="80" y="685" type="qcurve"/>
      <point x="122" y="727"/>
      <point x="242" y="727"/>
      <point x="326" y="643"/>
      <point x="326" y="523"/>
      <point x="242" y="439"/>
      <point x="122" y="439"/>
      <point x="38" y="523"/>
      <point x="38" y="643"/>
    </contour>
    <contour>
      <point x="107" y="655" type="qcurve"/>
      <point x="79" y="624"/>
      <point x="79" y="542"/>
      <point x="136" y="480"/>
      <point x="228" y="480"/>
      <point x="285" y="542"/>
      <point x="285" y="624"/>
      <point x="228" y="686"/>
      <point x="136" y="686"/>
    </contour>
  </outline>
</glyph>
<glyph name="ampersand" format="1">
  <advance width="546"/>
  <unicode hex="0026"/>
  <outline>
    <contour>
      <point x="381" y="699" type="qcurve"/>
      <point x="356" y="662" type="line"/>
      <point x="331" y="670"/>
      <point x="271" y="670"/>
      <point x="241" y="647" type="qcurve"/>
      <point x="200" y="616"/>
      <point x="200" y="569" type="qcurve"/>
      <point x="200" y="561"/>
      <point x="201" y="553" type="qcurve"/>
      <point x="209" y="498"/>
      <point x="250" y="476" type="qcurve"/>
      <point x="279" y="461"/>
      <point x="324" y="461"/>
      <point x="339" y="464" type="qcurve"/>
      <point x="386" y="474" type="line"/>
      <point x="386" y="609" type="line"/>
      <point x="432" y="609" type="line"/>
      <point x="432" y="484" type="line"/>
      <point x="505" y="500" type="line"/>
      <point x="515" y="457" type="line"/>
      <point x="432" y="439" type="line"/>
      <point x="432" y="135" type="line"/>
      <point x="432" y="45"/>
      <point x="495" y="24" type="qcurve"/>
      <point x="482" y="-11" type="line"/>
      <point x="443" y="1"/>
      <point x="398" y="58"/>
      <point x="393" y="95" type="qcurve"/>
      <point x="329" y="-11"/>
      <point x="213" y="-11" type="qcurve"/>
      <point x="123" y="-11"/>
      <point x="76" y="52" type="qcurve"/>
      <point x="35" y="107"/>
      <point x="35" y="179" type="qcurve"/>
      <point x="35" y="242"/>
      <point x="82" y="333"/>
      <point x="151" y="388"/>
      <point x="207" y="419"/>
      <point x="247" y="436" type="qcurve"/>
      <point x="213" y="441"/>
      <point x="186" y="472" type="qcurve"/>
      <point x="155" y="509"/>
      <point x="155" y="567" type="qcurve"/>
      <point x="155" y="642"/>
      <point x="219" y="684" type="qcurve"/>
      <point x="262" y="711"/>
      <point x="345" y="711"/>
    </contour>
    <contour>
      <point x="386" y="214" type="qcurve"/>
      <point x="386" y="429" type="line"/>
      <point x="234" y="396"/>
      <point x="159" y="339" type="qcurve"/>
      <point x="129" y="316"/>
      <point x="106" y="279" type="qcurve"/>
      <point x="79" y="236"/>
      <point x="79" y="120"/>
      <point x="148" y="32"/>
      <point x="292" y="32"/>
      <point x="386" y="144"/>
    </contour>
  </outline>
</glyph>
<glyph name="quotesingle" format="1">
  <advance width="170"/>
  <unicode hex="0027"/>
  <outline>
    <contour>
      <point x="102" y="704" type="qcurve"/>
      <point x="90" y="589" type="line"/>
      <point x="58" y="589" type="line"/>
      <point x="46" y="704" type="line"/>
      <point x="46" y="723"/>
      <point x="67" y="736"/>
      <point x="74" y="736" type="qcurve"/>
      <point x="88" y="732" type="line"/>
      <point x="102" y="724"/>
    </contour>
  </outline>
</glyph>
<glyph name="parenleft" format="1">
  <advance width="278"/>
  <unicode hex="0028"/>
  <outline>
    <contour>
      <point x="183" y="817" type="qcurve"/>
      <point x="198" y="786" type="line"/>
      <point x="163" y="762"/>
      <point x="123" y="696"/>
      <point x="123" y="636" type="qcurve"/>
      <point x="123" y="63" type="line"/>
      <point x="123" y="2"/>
      <point x="164" y="-64"/>
      <point x="198" y="-88" type="qcurve"/>
      <point x="183" y="-119" type="line"/>
      <point x="126" y="-86"/>
      <point x="78" y="-7"/>
      <point x="78" y="71" type="qcurve"/>
      <point x="78" y="627" type="line"/>
      <point x="78" y="705"/>
      <point x="126" y="784"/>
    </contour>
  </outline>
</glyph>
<glyph name="parenright" format="1">
  <advance width="278"/>
  <unicode hex="0029"/>
  <outline>
    <contour>
      <point x="78" y="786" type="qcurve"/>
      <point x="93" y="817" type="line"/>
      <point x="150" y="784"/>
      <point x="198" y="705"/>
      <point x="198" y="627" type="qcurve"/>
      <point x="198" y="71" type="line"/>
      <point x="198" y="-7"/>
      <point x="150" y="-86"/>
      <point x="93" y="-119" type="qcurve"/>
      <point x="78" y="-88" type="line"/>
      <point x="112" y="-64"/>
      <point x="153" y="2"/>
      <point x="153" y="63" type="qcurve"/>
      <point x="153" y="636" type="line"/>
      <point x="153" y="696"/>
      <point x="113" y="762"/>
    </contour>
  </outline>
</glyph>
<glyph name="asterisk" format="1">
  <advance width="352"/>
  <unicode hex="002A"/>
  <outline>
    <contour>
      <point x="40" y="623" type="line"/>
      <point x="153" y="580" type="line"/>
      <point x="152" y="700" type="line"/>
      <point x="196" y="700" type="line"/>
      <point x="196" y="580" type="line"/>
      <point x="310" y="623" type="line"/>
      <point x="326" y="583" type="line"/>
      <point x="210" y="543" type="line"/>
      <point x="281" y="447" type="line"/>
      <point x="248" y="422" type="line"/>
      <point x="175" y="522" type="line"/>
      <point x="106" y="422" type="line"/>
      <point x="70" y="447" type="line"/>
      <point x="138" y="543" type="line"/>
      <point x="26" y="583" type="line"/>
    </contour>
  </outline>
</glyph>
<glyph name="plus" format="1">
  <advance width="385"/>
  <unicode hex="002B"/>
  <outline>
    <contour>
      <point x="172" y="545" type="line"/>
      <point x="217" y="545" type="line"/>
      <point x="217" y="413" type="line"/>
      <point x="354" y="413" type="line"/>
      <point x="354" y="369" type="line"/>
      <point x="217" y="369" type="line"/>
      <point x="217" y="234" type="line"/>
      <point x="172" y="234" type="line"/>
      <point x="172" y="369" type="line"/>
      <point x="34" y="369" type="line"/>
      <point x="34" y="413" type="line"/>
      <point x="172" y="413" type="line"/>
    </contour>
  </outline>
</glyph>
<glyph name="comma" format="1">
  <advance width="165"/>
  <unicode hex="002C"/>
  <outline>
    <contour>
      <point x="79" y="-2" type="qcurve"/>
      <point x="72" y="0" type="line"/>
      <point x="55" y="10"/>
      <point x="56" y="41"/>
      <point x="71" y="55"/>
      <point x="83" y="55"/>
      <point x="95" y="54"/>
      <point x="113" y="35"/>
      <point x="113" y="24" type="qcurve"/>
      <point x="113" y="-31"/>
      <point x="49" y="-84" type="qcurve"/>
      <point x="17" y="-61" type="line"/>
      <point x="39" y="-49"/>
      <point x="70" y="-19"/>
    </contour>
  </outline>
</glyph>
<glyph name="period" format="1">
  <advance width="123"/>
  <unicode hex="002E"/>
  <outline>
    <contour>
      <point x="25" y="47" type="qcurve"/>
      <point x="33" y="55"/>
      <point x="55" y="55"/>
      <point x="72" y="39"/>
      <point x="72" y="17"/>
      <point x="55" y="0"/>
      <point x="33" y="0"/>
      <point x="17" y="17"/>
      <point x="17" y="39"/>
    </contour>
  </outline>
</glyph>
<glyph name="slash" format="1">
  <advance width="422"/>
  <unicode hex="002F"/>
  <outline>
    <contour>
      <point x="350" y="817" type="line"/>
      <point x="396" y="817" type="line"/>
      <point x="74" y="-114" type="line"/>
      <point x="26" y="-114" type="line"/>
    </contour>
  </outline>
</glyph>
<glyph name="zero" format="1">
  <advance width="549"/>
  <unicode hex="0030"/>
  <outline>
    <contour>
      <point x="63" y="185" type="qcurve"/>
      <point x="63" y="507" type="line"/>
      <point x="63" y="610"/>
      <point x="176" y="716"/>
      <point x="374" y="716"/>
      <point x="483" y="604"/>
      <point x="483" y="506" type="qcurve"/>
      <point x="483" y="185" type="line"/>
      <point x="483" y="84"/>
      <point x="360" y="-11"/>
      <point x="188" y="-11"/>
      <point x="63" y="84"/>
    </contour>
    <contour>
      <point x="108" y="514" type="qcurve"/>
      <point x="108" y="185" type="line"/>
      <point x="108" y="109"/>
      <point x="203" y="32"/>
      <point x="345" y="32"/>
      <point x="439" y="107"/>
      <point x="439" y="186" type="qcurve"/>
      <point x="439" y="514" type="line"/>
      <point x="439" y="591"/>
      <point x="350" y="673"/>
      <point x="196" y="673"/>
      <point x="108" y="591"/>
    </contour>
  </outline>
</glyph>
<glyph name="one" format="1">
  <advance width="210"/>
  <unicode hex="0031"/>
  <outline>
    <contour>
      <point x="139" y="700" type="qcurve"/>
      <point x="184" y="700" type="line"/>
      <point x="184" y="0" type="line"/>
      <point x="139" y="0" type="line"/>
      <point x="139" y="642" type="line"/>
      <point x="121" y="623"/>
      <point x="69" y="597"/>
      <point x="52" y="593" type="qcurve"/>
      <point x="36" y="589" type="line"/>
      <point x="26" y="631" type="line"/>
      <point x="34" y="632"/>
      <point x="59" y="637"/>
      <point x="119" y="672"/>
    </contour>
  </outline>
</glyph>
<glyph name="two" format="1">
  <advance width="403"/>
  <unicode hex="0032"/>
  <outline>
    <contour>
      <point x="81" y="574" type="qcurve"/>
      <point x="39" y="590" type="line"/>
      <point x="58" y="643"/>
      <point x="142" y="710"/>
      <point x="276" y="710"/>
      <point x="323" y="668" type="qcurve"/>
      <point x="375" y="620"/>
      <point x="375" y="486"/>
      <point x="331" y="413" type="qcurve"/>
      <point x="78" y="42" type="line"/>
      <point x="377" y="42" type="line"/>
      <point x="377" y="0" type="line"/>
      <point x="26" y="0" type="line"/>
      <point x="26" y="43" type="line"/>
      <point x="291" y="434" type="line"/>
      <point x="329" y="494"/>
      <point x="329" y="541" type="qcurve"/>
      <point x="329" y="599"/>
      <point x="254" y="667"/>
      <point x="159" y="667"/>
      <point x="95" y="615"/>
    </contour>
  </outline>
</glyph>
<glyph name="three" format="1">
  <advance width="442"/>
  <unicode hex="0033"/>
  <outline>
    <contour>
      <point x="73" y="700" type="line"/>
      <point x="360" y="700" type="line"/>
      <point x="360" y="660" type="line"/>
      <point x="188" y="413" type="line"/>
      <point x="203" y="413" type="line"/>
      <point x="292" y="413"/>
      <point x="416" y="289"/>
      <point x="416" y="112"/>
      <point x="292" y="-12"/>
      <point x="203" y="-12" type="qcurve"/>
      <point x="149" y="-12"/>
      <point x="55" y="39"/>
      <point x="26" y="83" type="qcurve"/>
      <point x="64" y="107" type="line"/>
      <point x="87" y="73"/>
      <point x="160" y="33"/>
      <point x="203" y="33" type="qcurve"/>
      <point x="275" y="33"/>
      <point x="371" y="133"/>
      <point x="371" y="271"/>
      <point x="275" y="366"/>
      <point x="209" y="369" type="qcurve"/>
      <point x="106" y="369" type="line"/>
      <point x="305" y="655" type="line"/>
      <point x="73" y="655" type="line"/>
    </contour>
  </outline>
</glyph>
<glyph name="four" format="1">
  <advance width="490"/>
  <unicode hex="0034"/>
  <outline>
    <contour>
      <point x="213" y="700" type="line"/>
      <point x="260" y="700" type="line"/>
      <point x="103" y="413" type="line"/>
      <point x="346" y="413" type="line"/>
      <point x="346" y="700" type="line"/>
      <point x="391" y="700" type="line"/>
      <point x="391" y="413" type="line"/>
      <point x="464" y="413" type="line"/>
      <point x="449" y="369" type="line"/>
      <point x="391" y="369" type="line"/>
      <point x="391" y="0" type="line"/>
      <point x="346" y="0" type="line"/>
      <point x="346" y="369" type="line"/>
      <point x="26" y="369" type="line"/>
    </contour>
  </outline>
</glyph>
<glyph name="five" format="1">
  <advance width="442"/>
  <unicode hex="0035"/>
  <outline>
    <contour>
      <point x="95" y="700" type="line"/>
      <point x="360" y="700" type="line"/>
      <point x="360" y="655" type="line"/>
      <point x="134" y="655" type="line"/>
      <point x="109" y="413" type="line"/>
      <point x="203" y="413" type="line"/>
      <point x="292" y="413"/>
      <point x="416" y="289"/>
      <point x="416" y="112"/>
      <point x="292" y="-12"/>
      <point x="203" y="-12" type="qcurve"/>
      <point x="149" y="-12"/>
      <point x="55" y="39"/>
      <point x="26" y="83" type="qcurve"/>
      <point x="63" y="107" type="line"/>
      <point x="85" y="73"/>
      <point x="160" y="33"/>
      <point x="203" y="33" type="qcurve"/>
      <point x="274" y="33"/>
      <point x="371" y="132"/>
      <point x="371" y="270"/>
      <point x="275" y="369"/>
      <point x="203" y="369" type="qcurve"/>
      <point x="60" y="369" type="line"/>
    </contour>
  </outline>
</glyph>
<glyph name="six" format="1">
  <advance width="477"/>
  <unicode hex="0036"/>
  <outline>
    <contour>
      <point x="270" y="700" type="qcurve"/>
      <point x="305" y="700" type="line"/>
      <point x="305" y="655" type="line"/>
      <point x="266" y="655" type="line"/>
      <point x="191" y="655"/>
      <point x="133" y="609" type="qcurve"/>
      <point x="104" y="586"/>
      <point x="70" y="505"/>
      <point x="70" y="452" type="qcurve"/>
      <point x="70" y="318" type="line"/>
      <point x="94" y="365"/>
      <point x="185" y="413"/>
      <point x="238" y="413" type="qcurve"/>
      <point x="327" y="413"/>
      <point x="451" y="289"/>
      <point x="451" y="112"/>
      <point x="326" y="-12"/>
      <point x="150" y="-12"/>
      <point x="26" y="112"/>
      <point x="26" y="201" type="qcurve"/>
      <point x="26" y="461" type="line"/>
      <point x="26" y="544"/>
      <point x="76" y="616" type="qcurve"/>
      <point x="103" y="653"/>
      <point x="203" y="700"/>
    </contour>
    <contour>
      <point x="70" y="208" type="qcurve"/>
      <point x="70" y="201" type="line"/>
      <point x="70" y="130"/>
      <point x="168" y="32"/>
      <point x="308" y="32"/>
      <point x="407" y="130"/>
      <point x="407" y="271"/>
      <point x="309" y="369"/>
      <point x="169" y="369"/>
      <point x="72" y="276"/>
    </contour>
  </outline>
</glyph>
<glyph name="seven" format="1">
  <advance width="446"/>
  <unicode hex="0037"/>
  <outline>
    <contour>
      <point x="26" y="700" type="line"/>
      <point x="420" y="700" type="line"/>
      <point x="420" y="655" type="line"/>
      <point x="88" y="0" type="line"/>
      <point x="39" y="0" type="line"/>
      <point x="368" y="655" type="line"/>
      <point x="26" y="655" type="line"/>
    </contour>
  </outline>
</glyph>
<glyph name="eight" format="1">
  <advance width="474"/>
  <unicode hex="0038"/>
  <outline>
    <contour>
      <point x="232" y="363" type="qcurve"/>
      <point x="164" y="361"/>
      <point x="71" y="266"/>
      <point x="71" y="128"/>
      <point x="167" y="33"/>
      <point x="307" y="33"/>
      <point x="403" y="128"/>
      <point x="403" y="266"/>
      <point x="305" y="361"/>
    </contour>
    <contour>
      <point x="151" y="388" type="qcurve"/>
      <point x="112" y="409"/>
      <point x="65" y="489"/>
      <point x="65" y="534" type="qcurve"/>
      <point x="65" y="608"/>
      <point x="165" y="709"/>
      <point x="311" y="709"/>
      <point x="412" y="608"/>
      <point x="412" y="534" type="qcurve"/>
      <point x="412" y="488"/>
      <point x="365" y="409"/>
      <point x="324" y="387" type="qcurve"/>
      <point x="380" y="363"/>
      <point x="448" y="258"/>
      <point x="448" y="198" type="qcurve"/>
      <point x="448" y="110"/>
      <point x="326" y="-12"/>
      <point x="148" y="-12"/>
      <point x="26" y="110"/>
      <point x="26" y="198" type="qcurve"/>
      <point x="26" y="260"/>
      <point x="94" y="363"/>
    </contour>
    <contour>
      <point x="238" y="666" type="qcurve"/>
      <point x="183" y="666"/>
      <point x="107" y="589"/>
      <point x="107" y="481"/>
      <point x="183" y="408"/>
      <point x="289" y="407"/>
      <point x="368" y="480"/>
      <point x="368" y="590"/>
      <point x="293" y="666"/>
    </contour>
  </outline>
</glyph>
<glyph name="nine" format="1">
  <advance width="477"/>
  <unicode hex="0039"/>
  <outline>
    <contour>
      <point x="207" y="0" type="qcurve"/>
      <point x="172" y="0" type="line"/>
      <point x="172" y="45" type="line"/>
      <point x="211" y="45" type="line"/>
      <point x="290" y="45"/>
      <point x="407" y="145"/>
      <point x="407" y="247" type="qcurve"/>
      <point x="407" y="378" type="line"/>
      <point x="383" y="331"/>
      <point x="292" y="284"/>
      <point x="239" y="284" type="qcurve"/>
      <point x="150" y="284"/>
      <point x="26" y="408"/>
      <point x="26" y="584"/>
      <point x="150" y="709"/>
      <point x="327" y="709"/>
      <point x="451" y="585"/>
      <point x="451" y="496" type="qcurve"/>
      <point x="451" y="238" type="line"/>
      <point x="451" y="155"/>
      <point x="400" y="84" type="qcurve"/>
      <point x="374" y="46"/>
      <point x="274" y="0"/>
    </contour>
    <contour>
      <point x="407" y="489" type="qcurve"/>
      <point x="407" y="496" type="line"/>
      <point x="407" y="567"/>
      <point x="309" y="665"/>
      <point x="168" y="665"/>
      <point x="70" y="566"/>
      <point x="70" y="426"/>
      <point x="168" y="328"/>
      <point x="308" y="328"/>
      <point x="404" y="421"/>
    </contour>
  </outline>
</glyph>
<glyph name="colon" format="1">
  <advance width="107"/>
  <unicode hex="003A"/>
  <outline>
    <contour>
      <point x="34" y="158" type="qcurve"/>
      <point x="42" y="166"/>
      <point x="64" y="166"/>
      <point x="81" y="150"/>
      <point x="81" y="128"/>
      <point x="64" y="111"/>
      <point x="42" y="111"/>
      <point x="26" y="128"/>
      <point x="26" y="150"/>
    </contour>
    <contour>
      <point x="34" y="409" type="qcurve"/>
      <point x="42" y="417"/>
      <point x="64" y="417"/>
      <point x="81" y="401"/>
      <point x="81" y="379"/>
      <point x="64" y="362"/>
      <point x="42" y="362"/>
      <point x="26" y="379"/>
      <point x="26" y="401"/>
    </contour>
  </outline>
</glyph>
<glyph name="semicolon" format="1">
  <advance width="148"/>
  <unicode hex="003B"/>
  <outline>
    <contour>
      <point x="73" y="292" type="qcurve"/>
      <point x="81" y="300"/>
      <point x="103" y="300"/>
      <point x="120" y="284"/>
      <point x="120" y="262"/>
      <point x="103" y="245"/>
      <point x="81" y="245"/>
      <point x="65" y="262"/>
      <point x="65" y="284"/>
    </contour>
    <contour>
      <point x="88" y="-1" type="qcurve"/>
      <point x="81" y="1" type="line"/>
      <point x="64" y="11"/>
      <point x="65" y="42"/>
      <point x="80" y="56"/>
      <point x="92" y="56"/>
      <point x="104" y="55"/>
      <point x="122" y="36"/>
      <point x="122" y="25" type="qcurve"/>
      <point x="122" y="-30"/>
      <point x="58" y="-83" type="qcurve"/>
      <point x="26" y="-60" type="line"/>
      <point x="48" y="-48"/>
      <point x="79" y="-18"/>
    </contour>
  </outline>
</glyph>
<glyph name="less" format="1">
  <advance width="361"/>
  <unicode hex="003C"/>
  <outline>
    <contour>
      <point x="304" y="637" type="line"/>
      <point x="335" y="606" type="line"/>
      <point x="86" y="358" type="line"/>
      <point x="335" y="111" type="line"/>
      <point x="304" y="80" type="line"/>
      <point x="26" y="358" type="line"/>
      <point x="26" y="359" type="line"/>
    </contour>
  </outline>
</glyph>
<glyph name="equal" format="1">
  <advance width="372"/>
  <unicode hex="003D"/>
  <outline>
    <contour>
      <point x="26" y="413" type="line"/>
      <point x="346" y="413" type="line"/>
      <point x="346" y="369" type="line"/>
      <point x="26" y="369" type="line"/>
    </contour>
    <contour>
      <point x="26" y="308" type="line"/>
      <point x="346" y="308" type="line"/>
      <point x="346" y="264" type="line"/>
      <point x="26" y="264" type="line"/>
    </contour>
  </outline>
</glyph>
<glyph name="greater" format="1">
  <advance width="361"/>
  <unicode hex="003E"/>
  <outline>
    <contour>
      <point x="26" y="606" type="line"/>
      <point x="57" y="637" type="line"/>
      <point x="335" y="359" type="line"/>
      <point x="335" y="358" type="line"/>
      <point x="57" y="80" type="line"/>
      <point x="26" y="111" type="line"/>
      <point x="275" y="358" type="line"/>
    </contour>
  </outline>
</glyph>
<glyph name="question" format="1">
  <advance width="407"/>
  <unicode hex="003F"/>
  <outline>
    <contour>
      <point x="71" y="532" type="qcurve"/>
      <point x="26" y="532" type="line"/>
      <point x="26" y="607"/>
      <point x="119" y="709"/>
      <point x="204" y="709" type="qcurve"/>
      <point x="256" y="709"/>
      <point x="298" y="682" type="qcurve"/>
      <point x="380" y="631"/>
      <point x="380" y="537" type="qcurve"/>
      <point x="380" y="475"/>
      <point x="343" y="421" type="qcurve"/>
      <point x="324" y="394"/>
      <point x="268" y="337"/>
      <point x="237" y="304"/>
      <point x="212" y="232"/>
      <point x="212" y="180" type="qcurve"/>
      <point x="212" y="119" type="line"/>
      <point x="171" y="119" type="line"/>
      <point x="171" y="204" type="line"/>
      <point x="171" y="250"/>
      <point x="199" y="324"/>
      <point x="234" y="363"/>
      <point x="287" y="419"/>
      <point x="300" y="437" type="qcurve"/>
      <point x="333" y="489"/>
      <point x="333" y="537" type="qcurve"/>
      <point x="333" y="592"/>
      <point x="257" y="666"/>
      <point x="147" y="666"/>
      <point x="71" y="597"/>
    </contour>
    <contour>
      <point x="171" y="47" type="qcurve"/>
      <point x="180" y="55"/>
      <point x="202" y="55"/>
      <point x="219" y="39"/>
      <point x="219" y="17"/>
      <point x="202" y="0"/>
      <point x="180" y="0"/>
      <point x="163" y="17"/>
      <point x="163" y="39"/>
    </contour>
  </outline>
</glyph>
<glyph name="at" format="1">
  <advance width="711"/>
  <unicode hex="0040"/>
  <outline>
    <contour>
      <point x="322" y="54" type="qcurve"/>
      <point x="160" y="54"/>
      <point x="149" y="204" type="qcurve"/>
      <point x="149" y="305" type="line"/>
      <point x="149" y="416"/>
      <point x="237" y="449" type="qcurve"/>
      <point x="270" y="461"/>
      <point x="308" y="461" type="qcurve"/>
      <point x="385" y="461"/>
      <point x="486" y="413" type="qcurve"/>
      <point x="482" y="474"/>
      <point x="438" y="506" type="qcurve"/>
      <point x="394" y="538"/>
      <point x="318" y="538" type="qcurve"/>
      <point x="212" y="538"/>
      <point x="71" y="445"/>
      <point x="71" y="342" type="qcurve"/>
      <point x="71" y="190" type="line"/>
      <point x="71" y="85"/>
      <point x="212" y="-22"/>
      <point x="321" y="-22" type="qcurve"/>
      <point x="323" y="-22"/>
      <point x="325" y="-22" type="qcurve"/>
      <point x="448" y="-22"/>
      <point x="608" y="77"/>
      <point x="608" y="162" type="qcurve"/>
      <point x="608" y="353" type="line"/>
      <point x="608" y="432"/>
      <point x="621" y="452" type="qcurve"/>
      <point x="639" y="479"/>
      <point x="672" y="491" type="qcurve"/>
      <point x="685" y="460" type="line"/>
      <point x="651" y="445"/>
      <point x="651" y="390" type="qcurve"/>
      <point x="652" y="171" type="line"/>
      <point x="652" y="108"/>
      <point x="591" y="12"/>
      <point x="541" y="-14" type="qcurve"/>
      <point x="441" y="-66"/>
      <point x="197" y="-66"/>
      <point x="26" y="61"/>
      <point x="26" y="186" type="qcurve"/>
      <point x="26" y="341" type="line"/>
      <point x="26" y="464"/>
      <point x="115" y="526" type="qcurve"/>
      <point x="192" y="579"/>
      <point x="316" y="579" type="qcurve"/>
      <point x="448" y="579"/>
      <point x="502" y="508" type="qcurve"/>
      <point x="534" y="465"/>
      <point x="534" y="398" type="qcurve"/>
      <point x="571" y="382" type="line"/>
      <point x="571" y="341" type="line"/>
      <point x="534" y="357" type="line"/>
      <point x="534" y="91" type="line"/>
      <point x="398" y="54"/>
    </contour>
    <contour>
      <point x="489" y="372" type="line"/>
      <point x="394" y="419"/>
      <point x="301" y="419" type="qcurve"/>
      <point x="255" y="419"/>
      <point x="193" y="362"/>
      <point x="193" y="302" type="qcurve"/>
      <point x="193" y="205" type="line"/>
      <point x="194" y="94"/>
      <point x="334" y="94" type="qcurve"/>
      <point x="401" y="94"/>
      <point x="489" y="125" type="qcurve"/>
    </contour>
  </outline>
</glyph>
<glyph name="B" format="1">
  <advance width="546"/>
  <unicode hex="0042"/>
  <outline>
    <contour>
      <point x="78" y="700" type="line"/>
      <point x="299" y="700" type="line"/>
      <point x="381" y="700"/>
      <point x="475" y="616"/>
      <point x="475" y="440"/>
      <point x="403" y="397" type="qcurve"/>
      <point x="402" y="396"/>
      <point x="402" y="395" type="qcurve"/>
      <point x="402" y="394" type="line"/>
      <point x="449" y="374"/>
      <point x="511" y="283"/>
      <point x="511" y="209" type="qcurve"/>
      <point x="511" y="129"/>
      <point x="470" y="70" type="qcurve"/>
      <point x="449" y="38"/>
      <point x="366" y="0"/>
      <point x="308" y="0" type="qcurve"/>
      <point x="78" y="0" type="line"/>
    </contour>
    <contour>
      <point x="123" y="657" type="line"/>
      <point x="123" y="413" type="line"/>
      <point x="308" y="413" type="line"/>
      <point x="361" y="413"/>
      <point x="429" y="475"/>
      <point x="429" y="598"/>
      <point x="355" y="657"/>
      <point x="291" y="657" type="qcurve"/>
    </contour>
    <contour>
      <point x="123" y="369" type="line"/>
      <point x="123" y="43" type="line"/>
      <point x="306" y="43" type="line"/>
      <point x="463" y="43"/>
      <point x="463" y="213" type="qcurve"/>
      <point x="463" y="285"/>
      <point x="381" y="369"/>
      <point x="319" y="369" type="qcurve"/>
    </contour>
  </outline>
</glyph>
<glyph name="F" format="1">
  <advance width="447"/>
  <unicode hex="0046"/>
  <outline>
    <contour>
      <point x="78" y="700" type="line"/>
      <point x="412" y="700" type="line"/>
      <point x="412" y="657" type="line"/>
      <point x="123" y="657" type="line"/>
      <point x="123" y="413" type="line"/>
      <point x="305" y="413" type="line"/>
      <point x="286" y="369" type="line"/>
      <point x="123" y="369" type="line"/>
      <point x="123" y="0" type="line"/>
      <point x="78" y="0" type="line"/>
    </contour>
  </outline>
</glyph>
<glyph name="H" format="1">
  <advance width="588"/>
  <unicode hex="0048"/>
  <outline>
    <contour>
      <point x="78" y="700" type="line"/>
      <point x="123" y="700" type="line"/>
      <point x="123" y="413" type="line"/>
      <point x="463" y="413" type="line"/>
      <point x="463" y="700" type="line"/>
      <point x="508" y="700" type="line"/>
      <point x="508" y="0" type="line"/>
      <point x="463" y="0" type="line"/>
      <point x="463" y="369" type="line"/>
      <point x="123" y="369" type="line"/>
      <point x="123" y="0" type="line"/>
      <point x="78" y="0" type="line"/>
    </contour>
  </outline>
</glyph>
<glyph name="I" format="1">
  <advance width="196"/>
  <unicode hex="0049"/>
  <outline>
    <contour>
      <point x="29" y="700" type="line"/>
      <point x="146" y="700" type="line"/>
      <point x="146" y="0" type="line"/>
      <point x="101" y="0" type="line"/>
      <point x="101" y="658" type="line"/>
      <point x="29" y="660" type="line"/>
    </contour>
  </outline>
</glyph>
<glyph name="J" format="1">
  <advance width="178"/>
  <unicode hex="004A"/>
  <outline>
    <contour>
      <point x="11" y="700" type="line"/>
      <point x="128" y="700" type="line"/>
      <point x="128" y="119" type="line"/>
      <point x="128" y="-31"/>
      <point x="9" y="-37" type="qcurve"/>
      <point x="-2" y="-6" type="line"/>
      <point x="33" y="-4"/>
      <point x="83" y="52"/>
      <point x="83" y="115" type="qcurve"/>
      <point x="83" y="658" type="line"/>
      <point x="11" y="660" type="line"/>
    </contour>
  </outline>
</glyph>
<glyph name="K" format="1">
  <advance width="476"/>
  <unicode hex="004B"/>
  <outline>
    <contour>
      <point x="79" y="701" type="line"/>
      <point x="124" y="701" type="line"/>
      <point x="124" y="349" type="line"/>
      <point x="372" y="701" type="line"/>
      <point x="424" y="701" type="line"/>
      <point x="215" y="404" type="line"/>
      <point x="476" y="0" type="line"/>
      <point x="423" y="0" type="line"/>
      <point x="187" y="362" type="line"/>
      <point x="124" y="272" type="line"/>
      <point x="124" y="0" type="line"/>
      <point x="79" y="0" type="line"/>
    </contour>
  </outline>
</glyph>
<glyph name="M" format="1">
  <advance width="694"/>
  <unicode hex="004D"/>
  <outline>
    <contour>
      <point x="78" y="700" type="line"/>
      <point x="123" y="700" type="line"/>
      <point x="345" y="69" type="line"/>
      <point x="569" y="700" type="line"/>
      <point x="614" y="700" type="line"/>
      <point x="614" y="0" type="line"/>
      <point x="569" y="0" type="line"/>
      <point x="569" y="569" type="line"/>
      <point x="369" y="0" type="line"/>
      <point x="321" y="0" type="line"/>
      <point x="123" y="569" type="line"/>
      <point x="123" y="0" type="line"/>
      <point x="78" y="0" type="line"/>
    </contour>
  </outline>
</glyph>
<glyph name="N" format="1">
  <advance width="650"/>
  <unicode hex="004E"/>
  <outline>
    <contour>
      <point x="78" y="700" type="line"/>
      <point x="123" y="700" type="line"/>
      <point x="526" y="82" type="line"/>
      <point x="526" y="700" type="line"/>
      <point x="570" y="700" type="line"/>
      <point x="570" y="0" type="line"/>
      <point x="526" y="0" type="line"/>
      <point x="123" y="619" type="line"/>
      <point x="123" y="0" type="line"/>
      <point x="78" y="0" type="line"/>
    </contour>
  </outline>
</glyph>
<glyph name="Q" format="1">
  <advance width="549"/>
  <unicode hex="0051"/>
  <outline>
    <contour>
      <point x="63" y="185" type="qcurve"/>
      <point x="63" y="507" type="line"/>
      <point x="63" y="610"/>
      <point x="176" y="716"/>
      <point x="374" y="716"/>
      <point x="483" y="604"/>
      <point x="483" y="506" type="qcurve"/>
      <point x="483" y="185" type="line"/>
      <point x="483" y="98"/>
      <point x="390" y="3"/>
      <point x="315" y="-8" type="qcurve"/>
      <point x="340" y="-51"/>
      <point x="428" y="-51" type="qcurve"/>
      <point x="428" y="-94" type="line"/>
      <point x="307" y="-94"/>
      <point x="269" y="-11" type="qcurve"/>
      <point x="183" y="-9"/>
      <point x="63" y="86"/>
    </contour>
    <contour>
      <point x="108" y="516" type="qcurve"/>
      <point x="108" y="185" type="line"/>
      <point x="108" y="113"/>
      <point x="194" y="36"/>
      <point x="256" y="32" type="qcurve"/>
      <point x="252" y="56"/>
      <point x="252" y="95" type="qcurve"/>
      <point x="252" y="174" type="line"/>
      <point x="297" y="174" type="line"/>
      <point x="297" y="96" type="line"/>
      <point x="297" y="56"/>
      <point x="301" y="33" type="qcurve"/>
      <point x="364" y="39"/>
      <point x="438" y="119"/>
      <point x="438" y="187" type="qcurve"/>
      <point x="438" y="516" type="line"/>
      <point x="438" y="594"/>
      <point x="347" y="673"/>
      <point x="200" y="673"/>
      <point x="108" y="595"/>
    </contour>
  </outline>
</glyph>
<glyph name="R" format="1">
  <advance width="564"/>
  <unicode hex="0052"/>
  <outline>
    <contour>
      <point x="78" y="700" type="line"/>
      <point x="322" y="700" type="line"/>
      <point x="418" y="700"/>
      <point x="512" y="584"/>
      <point x="512" y="486" type="qcurve"/>
      <point x="512" y="317"/>
      <point x="410" y="272" type="qcurve"/>
      <point x="513" y="0" type="line"/>
      <point x="467" y="0" type="line"/>
      <point x="367" y="258" type="line"/>
      <point x="345" y="256"/>
      <point x="331" y="256" type="qcurve"/>
      <point x="123" y="256" type="line"/>
      <point x="123" y="0" type="line"/>
      <point x="78" y="0" type="line"/>
    </contour>
    <contour>
      <point x="123" y="657" type="line"/>
      <point x="123" y="300" type="line"/>
      <point x="327" y="300" type="line"/>
      <point x="467" y="300"/>
      <point x="467" y="486" type="qcurve"/>
      <point x="467" y="570"/>
      <point x="392" y="657"/>
      <point x="324" y="657" type="qcurve"/>
    </contour>
  </outline>
</glyph>
<glyph name="T" format="1">
  <advance width="402"/>
  <unicode hex="0054"/>
  <outline>
    <contour>
      <point x="0" y="700" type="line"/>
      <point x="402" y="700" type="line"/>
      <point x="402" y="659" type="line"/>
      <point x="221" y="659" type="line"/>
      <point x="221" y="0" type="line"/>
      <point x="176" y="0" type="line"/>
      <point x="176" y="659" type="line"/>
      <point x="0" y="659" type="line"/>
    </contour>
  </outline>
</glyph>
<glyph name="V" format="1">
  <advance width="591"/>
  <unicode hex="0056"/>
  <outline>
    <contour>
      <point x="78" y="700" type="line"/>
      <point x="126" y="700" type="line"/>
      <point x="317" y="56" type="line"/>
      <point x="508" y="700" type="line"/>
      <point x="556" y="700" type="line"/>
      <point x="348" y="0" type="line"/>
      <point x="287" y="0" type="line"/>
    </contour>
  </outline>
</glyph>
<glyph name="W" format="1">
  <advance width="809"/>
  <unicode hex="0057"/>
  <outline>
    <contour>
      <point x="78" y="700" type="line"/>
      <point x="126" y="700" type="line"/>
      <point x="278" y="59" type="line"/>
      <point x="397" y="700" type="line"/>
      <point x="457" y="700" type="line"/>
      <point x="576" y="59" type="line"/>
      <point x="725" y="700" type="line"/>
      <point x="774" y="700" type="line"/>
      <point x="606" y="0" type="line"/>
      <point x="540" y="0" type="line"/>
      <point x="427" y="615" type="line"/>
      <point x="314" y="0" type="line"/>
      <point x="248" y="0" type="line"/>
    </contour>
  </outline>
</glyph>
<glyph name="X" format="1">
  <advance width="587"/>
  <unicode hex="0058"/>
  <outline>
    <contour>
      <point x="64" y="700" type="line"/>
      <point x="114" y="700" type="line"/>
      <point x="299" y="399" type="line"/>
      <point x="484" y="700" type="line"/>
      <point x="536" y="700" type="line"/>
      <point x="326" y="356" type="line"/>
      <point x="552" y="1" type="line"/>
      <point x="497" y="0" type="line"/>
      <point x="299" y="310" type="line"/>
      <point x="101" y="0" type="line"/>
      <point x="45" y="0" type="line"/>
      <point x="272" y="356" type="line"/>
    </contour>
  </outline>
</glyph>
<glyph name="Z" format="1">
  <advance width="550"/>
  <unicode hex="005A"/>
  <outline>
    <contour>
      <point x="44" y="700" type="line"/>
      <point x="512" y="700" type="line"/>
      <point x="512" y="659" type="line"/>
      <point x="88" y="41" type="line"/>
      <point x="518" y="41" type="line"/>
      <point x="518" y="0" type="line"/>
      <point x="31" y="0" type="line"/>
      <point x="31" y="41" type="line"/>
      <point x="455" y="659" type="line"/>
      <point x="44" y="659" type="line"/>
    </contour>
  </outline>
</glyph>
<glyph name="bracketleft" format="1">
  <advance width="319"/>
  <unicode hex="005B"/>
  <outline>
    <contour>
      <point x="78" y="817" type="line"/>
      <point x="239" y="817" type="line"/>
      <point x="239" y="780" type="line"/>
      <point x="123" y="773" type="line"/>
      <point x="123" y="-70" type="line"/>
      <point x="239" y="-77" type="line"/>
      <point x="239" y="-114" type="line"/>
      <point x="78" y="-114" type="line"/>
    </contour>
  </outline>
</glyph>
<glyph name="backslash" format="1">
  <advance width="483"/>
  <unicode hex="005C"/>
  <outline>
    <contour>
      <point x="78" y="817" type="line"/>
      <point x="124" y="817" type="line"/>
      <point x="448" y="-114" type="line"/>
      <point x="400" y="-114" type="line"/>
    </contour>
  </outline>
</glyph>
<glyph name="asciicircum" format="1">
  <advance width="403"/>
  <unicode hex="005E"/>
  <outline>
    <contour>
      <point x="78" y="758" type="line"/>
      <point x="226" y="899" type="line"/>
      <point x="368" y="758" type="line"/>
      <point x="337" y="726" type="line"/>
      <point x="225" y="837" type="line"/>
      <point x="109" y="726" type="line"/>
    </contour>
  </outline>
</glyph>
<glyph name="underscore" format="1">
  <advance width="514"/>
  <unicode hex="005F"/>
  <outline>
    <contour>
      <point x="76" y="0" type="line"/>
      <point x="396" y="0" type="line"/>
      <point x="396" y="-44" type="line"/>
      <point x="76" y="-44" type="line"/>
    </contour>
  </outline>
</glyph>
<glyph name="grave" format="1">
  <advance width="222"/>
  <unicode hex="0060"/>
  <outline>
    <contour>
      <point x="102" y="708" type="qcurve"/>
      <point x="155" y="587" type="line"/>
      <point x="118" y="587" type="line"/>
      <point x="51" y="686" type="line"/>
      <point x="46" y="693"/>
      <point x="46" y="699" type="qcurve"/>
      <point x="46" y="728"/>
      <point x="76" y="728" type="qcurve"/>
      <point x="94" y="728"/>
    </contour>
  </outline>
</glyph>
<glyph name="a" format="1">
  <advance width="458"/>
  <unicode hex="0061"/>
  <outline>
    <contour>
      <point x="256" y="-10" type="qcurve"/>
      <point x="37" y="-10"/>
      <point x="37" y="169" type="qcurve"/>
      <point x="37" y="252" type="line"/>
      <point x="37" y="351"/>
      <point x="107" y="385" type="qcurve"/>
      <point x="143" y="402"/>
      <point x="180" y="402" type="qcurve"/>
      <point x="302" y="402"/>
      <point x="377" y="346" type="qcurve"/>
      <point x="377" y="403"/>
      <point x="308" y="473"/>
      <point x="216" y="473" type="qcurve"/>
      <point x="214" y="473"/>
      <point x="211" y="473" type="qcurve"/>
      <point x="214" y="509" type="line"/>
      <point x="295" y="509"/>
      <point x="334" y="490" type="qcurve"/>
      <point x="355" y="479"/>
      <point x="387" y="457"/>
      <point x="405" y="421"/>
      <point x="417" y="394"/>
      <point x="419" y="371" type="qcurve"/>
      <point x="422" y="336"/>
      <point x="422" y="298" type="qcurve"/>
      <point x="422" y="0" type="line"/>
      <point x="318" y="-10"/>
    </contour>
    <contour>
      <point x="81" y="249" type="qcurve"/>
      <point x="81" y="162" type="line"/>
      <point x="81" y="114"/>
      <point x="128" y="52"/>
      <point x="168" y="42" type="qcurve"/>
      <point x="258" y="18"/>
      <point x="377" y="38" type="qcurve"/>
      <point x="377" y="309" type="line"/>
      <point x="294" y="355"/>
      <point x="196" y="361" type="qcurve"/>
      <point x="191" y="361"/>
      <point x="187" y="361" type="qcurve"/>
      <point x="144" y="361"/>
      <point x="81" y="308"/>
    </contour>
  </outline>
</glyph>
<glyph name="b" format="1">
  <advance width="482"/>
  <unicode hex="0062"/>
  <outline>
    <contour>
      <point x="123" y="475" type="line"/>
      <point x="176" y="509"/>
      <point x="263" y="509" type="qcurve"/>
      <point x="320" y="509"/>
      <point x="362" y="490" type="qcurve"/>
      <point x="447" y="451"/>
      <point x="447" y="346" type="qcurve"/>
      <point x="447" y="157" type="line"/>
      <point x="447" y="58"/>
      <point x="369" y="18" type="qcurve"/>
      <point x="310" y="-12"/>
      <point x="164" y="-12"/>
      <point x="78" y="0" type="qcurve"/>
      <point x="78" y="700" type="line"/>
      <point x="123" y="700" type="line"/>
    </contour>
    <contour>
      <point x="266" y="468" type="qcurve"/>
      <point x="184" y="468"/>
      <point x="123" y="435" type="qcurve"/>
      <point x="123" y="40" type="line"/>
      <point x="190" y="30"/>
      <point x="252" y="30"/>
      <point x="255" y="30" type="qcurve"/>
      <point x="317" y="31"/>
      <point x="403" y="95"/>
      <point x="403" y="156" type="qcurve"/>
      <point x="403" y="343" type="line"/>
      <point x="403" y="399"/>
      <point x="341" y="463"/>
      <point x="296" y="467" type="qcurve"/>
      <point x="281" y="468"/>
    </contour>
  </outline>
</glyph>
<glyph name="c" format="1">
  <advance width="383"/>
  <unicode hex="0063"/>
  <outline>
    <contour>
      <point x="343" y="443" type="line"/>
      <point x="285" y="469"/>
      <point x="195" y="469"/>
      <point x="128" y="446"/>
      <point x="81" y="371"/>
      <point x="81" y="314" type="qcurve"/>
      <point x="81" y="169" type="line"/>
      <point x="81" y="29"/>
      <point x="241" y="29" type="qcurve"/>
      <point x="290" y="29"/>
      <point x="348" y="43" type="qcurve"/>
      <point x="358" y="6" type="line"/>
      <point x="294" y="-11"/>
      <point x="190" y="-11"/>
      <point x="140" y="5" type="qcurve"/>
      <point x="36" y="39"/>
      <point x="36" y="180" type="qcurve"/>
      <point x="36" y="308" type="line"/>
      <point x="36" y="379"/>
      <point x="64" y="427" type="qcurve"/>
      <point x="112" y="510"/>
      <point x="222" y="510" type="qcurve"/>
      <point x="288" y="510"/>
      <point x="356" y="478" type="qcurve"/>
    </contour>
  </outline>
</glyph>
<glyph name="d" format="1">
  <advance width="475"/>
  <unicode hex="0064"/>
  <outline>
    <contour>
      <point x="255" y="509" type="qcurve"/>
      <point x="341" y="509"/>
      <point x="395" y="475" type="qcurve"/>
      <point x="395" y="700" type="line"/>
      <point x="440" y="700" type="line"/>
      <point x="440" y="0" type="line"/>
      <point x="354" y="-12"/>
      <point x="208" y="-12"/>
      <point x="149" y="18" type="qcurve"/>
      <point x="71" y="58"/>
      <point x="71" y="157" type="qcurve"/>
      <point x="71" y="346" type="line"/>
      <point x="71" y="451"/>
      <point x="156" y="490" type="qcurve"/>
      <point x="198" y="509"/>
    </contour>
    <contour>
      <point x="395" y="435" type="line"/>
      <point x="334" y="468"/>
      <point x="252" y="468" type="qcurve"/>
      <point x="237" y="468"/>
      <point x="222" y="467" type="qcurve"/>
      <point x="177" y="463"/>
      <point x="115" y="399"/>
      <point x="115" y="343" type="qcurve"/>
      <point x="115" y="156" type="line"/>
      <point x="115" y="95"/>
      <point x="158" y="63" type="qcurve"/>
      <point x="202" y="30"/>
      <point x="328" y="30"/>
      <point x="395" y="40" type="qcurve"/>
    </contour>
  </outline>
</glyph>
<glyph name="f" format="1">
  <advance width="296"/>
  <unicode hex="0066"/>
  <outline>
    <contour>
      <point x="261" y="707" type="qcurve"/>
      <point x="254" y="668" type="line"/>
      <point x="241" y="670"/>
      <point x="229" y="670" type="qcurve"/>
      <point x="185" y="670"/>
      <point x="123" y="616"/>
      <point x="123" y="549" type="qcurve"/>
      <point x="123" y="501" type="line"/>
      <point x="248" y="501" type="line"/>
      <point x="229" y="458" type="line"/>
      <point x="123" y="458" type="line"/>
      <point x="123" y="0" type="line"/>
      <point x="78" y="0" type="line"/>
      <point x="78" y="549" type="line"/>
      <point x="78" y="599"/>
      <point x="112" y="671"/>
      <point x="138" y="686" type="qcurve"/>
      <point x="181" y="711"/>
      <point x="226" y="711" type="qcurve"/>
      <point x="244" y="711"/>
    </contour>
  </outline>
</glyph>
<glyph name="g" format="1">
  <advance width="448"/>
  <unicode hex="0067"/>
  <outline>
    <contour>
      <point x="372" y="441" type="qcurve"/>
      <point x="369" y="501" type="line"/>
      <point x="414" y="501" type="line"/>
      <point x="414" y="-64" type="line"/>
      <point x="414" y="-124"/>
      <point x="364" y="-192"/>
      <point x="307" y="-210" type="qcurve"/>
      <point x="295" y="-175" type="line"/>
      <point x="369" y="-147"/>
      <point x="369" y="-63" type="qcurve"/>
      <point x="369" y="65" type="line"/>
      <point x="322" y="-12"/>
      <point x="135" y="-12"/>
      <point x="37" y="84"/>
      <point x="37" y="176" type="qcurve"/>
      <point x="37" y="325" type="line"/>
      <point x="37" y="413"/>
      <point x="141" y="510"/>
      <point x="326" y="510"/>
    </contour>
    <contour>
      <point x="82" y="320" type="qcurve"/>
      <point x="82" y="167" type="line"/>
      <point x="82" y="101"/>
      <point x="157" y="30"/>
      <point x="281" y="30"/>
      <point x="369" y="101"/>
      <point x="369" y="169" type="qcurve"/>
      <point x="369" y="354" type="line"/>
      <point x="363" y="413"/>
      <point x="281" y="469"/>
      <point x="169" y="469"/>
      <point x="82" y="400"/>
    </contour>
  </outline>
</glyph>
<glyph name="h" format="1">
  <advance width="493"/>
  <unicode hex="0068"/>
  <outline>
    <contour>
      <point x="109" y="434" type="qcurve"/>
      <point x="109" y="0" type="line"/>
      <point x="64" y="0" type="line"/>
      <point x="64" y="700" type="line"/>
      <point x="109" y="700" type="line"/>
      <point x="109" y="474" type="line"/>
      <point x="165" y="509"/>
      <point x="252" y="509" type="qcurve"/>
      <point x="309" y="509"/>
      <point x="348" y="490" type="qcurve"/>
      <point x="433" y="451"/>
      <point x="433" y="346" type="qcurve"/>
      <point x="433" y="0" type="line"/>
      <point x="389" y="0" type="line"/>
      <point x="389" y="344" type="line"/>
      <point x="389" y="399"/>
      <point x="359" y="430" type="qcurve"/>
      <point x="323" y="469"/>
      <point x="173" y="469"/>
    </contour>
  </outline>
</glyph>
<glyph name="i" format="1">
  <advance width="213"/>
  <unicode hex="0069"/>
  <outline>
    <contour>
      <point x="83" y="501" type="line"/>
      <point x="128" y="501" type="line"/>
      <point x="128" y="0" type="line"/>
      <point x="83" y="0" type="line"/>
    </contour>
    <contour>
      <point x="86" y="663" type="qcurve"/>
      <point x="78" y="672"/>
      <point x="78" y="694"/>
      <point x="95" y="710"/>
      <point x="117" y="710"/>
      <point x="133" y="694"/>
      <point x="133" y="672"/>
      <point x="117" y="655"/>
      <point x="95" y="655"/>
    </contour>
  </outline>
</glyph>
<glyph name="j" format="1">
  <advance width="194"/>
  <unicode hex="006A"/>
  <outline>
    <contour>
      <point x="0" y="501" type="line"/>
      <point x="118" y="501" type="line"/>
      <point x="118" y="-77" type="line"/>
      <point x="116" y="-131"/>
      <point x="55" y="-206"/>
      <point x="0" y="-209" type="qcurve"/>
      <point x="-6" y="-174" type="line"/>
      <point x="2" y="-174"/>
      <point x="35" y="-158"/>
      <point x="46" y="-147" type="qcurve"/>
      <point x="73" y="-118"/>
      <point x="73" y="-64" type="qcurve"/>
      <point x="73" y="457" type="line"/>
      <point x="19" y="459" type="line"/>
    </contour>
    <contour>
      <point x="77" y="663" type="qcurve"/>
      <point x="69" y="672"/>
      <point x="69" y="694"/>
      <point x="86" y="710"/>
      <point x="108" y="710"/>
      <point x="124" y="694"/>
      <point x="124" y="672"/>
      <point x="108" y="655"/>
      <point x="86" y="655"/>
    </contour>
  </outline>
</glyph>
<glyph name="k" format="1">
  <advance width="435"/>
  <unicode hex="006B"/>
  <outline>
    <contour>
      <point x="67" y="700" type="line"/>
      <point x="112" y="700" type="line"/>
      <point x="112" y="325" type="line"/>
      <point x="323" y="520" type="line"/>
      <point x="355" y="489" type="line"/>
      <point x="210" y="360" type="line"/>
      <point x="279" y="245"/>
      <point x="434" y="0" type="qcurve"/>
      <point x="380" y="0" type="line"/>
      <point x="178" y="332" type="line"/>
      <point x="112" y="273" type="line"/>
      <point x="112" y="0" type="line"/>
      <point x="67" y="0" type="line"/>
    </contour>
  </outline>
</glyph>
<glyph name="l" format="1">
  <advance width="203"/>
  <unicode hex="006C"/>
  <outline>
    <contour>
      <point x="78" y="700" type="line"/>
      <point x="123" y="700" type="line"/>
      <point x="123" y="0" type="line"/>
      <point x="78" y="0" type="line"/>
    </contour>
  </outline>
</glyph>
<glyph name="m" format="1">
  <advance width="737"/>
  <unicode hex="006D"/>
  <outline>
    <contour>
      <point x="123" y="434" type="qcurve"/>
      <point x="123" y="0" type="line"/>
      <point x="78" y="0" type="line"/>
      <point x="78" y="501" type="line"/>
      <point x="123" y="501" type="line"/>
      <point x="119" y="471" type="line"/>
      <point x="190" y="508"/>
      <point x="341" y="508"/>
      <point x="385" y="459" type="qcurve"/>
      <point x="473" y="509"/>
      <point x="549" y="509" type="qcurve"/>
      <point x="620" y="509"/>
      <point x="702" y="417"/>
      <point x="702" y="346" type="qcurve"/>
      <point x="702" y="0" type="line"/>
      <point x="658" y="0" type="line"/>
      <point x="658" y="343" type="line"/>
      <point x="658" y="391"/>
      <point x="638" y="422" type="qcurve"/>
      <point x="606" y="470"/>
      <point x="536" y="470" type="qcurve"/>
      <point x="491" y="470"/>
      <point x="447" y="449" type="qcurve"/>
      <point x="405" y="428" type="line"/>
      <point x="420" y="399"/>
      <point x="420" y="342" type="qcurve"/>
      <point x="420" y="0" type="line"/>
      <point x="376" y="0" type="line"/>
      <point x="376" y="353" type="line"/>
      <point x="376" y="405"/>
      <point x="348" y="434" type="qcurve"/>
      <point x="316" y="468"/>
      <point x="184" y="468"/>
    </contour>
  </outline>
</glyph>
<glyph name="n" format="1">
  <advance width="500"/>
  <unicode hex="006E"/>
  <outline>
    <contour>
      <point x="250" y="468" type="qcurve"/>
      <point x="172" y="468"/>
      <point x="109" y="434" type="qcurve"/>
      <point x="109" y="0" type="line"/>
      <point x="64" y="0" type="line"/>
      <point x="64" y="501" type="line"/>
      <point x="109" y="501" type="line"/>
      <point x="109" y="474" type="line"/>
      <point x="165" y="509"/>
      <point x="252" y="509" type="qcurve"/>
      <point x="309" y="509"/>
      <point x="348" y="490" type="qcurve"/>
      <point x="433" y="451"/>
      <point x="433" y="346" type="qcurve"/>
      <point x="433" y="0" type="line"/>
      <point x="389" y="0" type="line"/>
      <point x="389" y="344" type="line"/>
      <point x="389" y="398"/>
      <point x="328" y="461"/>
      <point x="284" y="466" type="qcurve"/>
      <point x="267" y="468"/>
    </contour>
  </outline>
</glyph>
<glyph name="o" format="1">
  <advance width="455"/>
  <unicode hex="006F"/>
  <outline>
    <contour>
      <point x="47" y="184" type="qcurve"/>
      <point x="47" y="316" type="line"/>
      <point x="47" y="411"/>
      <point x="144" y="512"/>
      <point x="322" y="512"/>
      <point x="420" y="407"/>
      <point x="420" y="316" type="qcurve"/>
      <point x="420" y="184" type="line"/>
      <point x="420" y="100"/>
      <point x="328" y="-10"/>
      <point x="142" y="-10"/>
      <point x="47" y="101"/>
    </contour>
    <contour>
      <point x="92" y="317" type="qcurve"/>
      <point x="92" y="177" type="line"/>
      <point x="92" y="113"/>
      <point x="167" y="30"/>
      <point x="303" y="30"/>
      <point x="375" y="112"/>
      <point x="375" y="177" type="qcurve"/>
      <point x="375" y="317" type="line"/>
      <point x="375" y="395"/>
      <point x="298" y="471"/>
      <point x="170" y="471"/>
      <point x="92" y="396"/>
    </contour>
  </outline>
</glyph>
<glyph name="p" format="1">
  <advance width="490"/>
  <unicode hex="0070"/>
  <outline>
    <contour>
      <point x="78" y="501" type="line"/>
      <point x="123" y="501" type="line"/>
      <point x="119" y="446" type="line"/>
      <point x="146" y="477"/>
      <point x="224" y="509"/>
      <point x="261" y="509" type="qcurve"/>
      <point x="356" y="509"/>
      <point x="455" y="400"/>
      <point x="455" y="314" type="qcurve"/>
      <point x="455" y="176" type="line"/>
      <point x="455" y="85"/>
      <point x="352" y="-12"/>
      <point x="170" y="-12"/>
      <point x="123" y="52" type="qcurve"/>
      <point x="123" y="-210" type="line"/>
      <point x="78" y="-193" type="line"/>
    </contour>
    <contour>
      <point x="410" y="166" type="qcurve"/>
      <point x="410" y="318" type="line"/>
      <point x="410" y="373"/>
      <point x="362" y="444"/>
      <point x="301" y="468"/>
      <point x="213" y="468"/>
      <point x="130" y="410"/>
      <point x="123" y="346" type="qcurve"/>
      <point x="123" y="163" type="line"/>
      <point x="123" y="96"/>
      <point x="202" y="29"/>
      <point x="326" y="29"/>
      <point x="410" y="98"/>
    </contour>
  </outline>
</glyph>
<glyph name="q" format="1">
  <advance width="448"/>
  <unicode hex="0071"/>
  <outline>
    <contour>
      <point x="369" y="501" type="line"/>
      <point x="414" y="501" type="line"/>
      <point x="414" y="-210" type="line"/>
      <point x="369" y="-193" type="line"/>
      <point x="369" y="52" type="line"/>
      <point x="322" y="-12"/>
      <point x="140" y="-12"/>
      <point x="37" y="85"/>
      <point x="37" y="176" type="qcurve"/>
      <point x="37" y="314" type="line"/>
      <point x="37" y="400"/>
      <point x="136" y="509"/>
      <point x="231" y="509" type="qcurve"/>
      <point x="268" y="509"/>
      <point x="346" y="477"/>
      <point x="373" y="446" type="qcurve"/>
    </contour>
    <contour>
      <point x="82" y="318" type="qcurve"/>
      <point x="82" y="166" type="line"/>
      <point x="82" y="98"/>
      <point x="166" y="29"/>
      <point x="290" y="29"/>
      <point x="369" y="96"/>
      <point x="369" y="163" type="qcurve"/>
      <point x="369" y="346" type="line"/>
      <point x="362" y="410"/>
      <point x="278" y="468"/>
      <point x="170" y="468"/>
      <point x="82" y="397"/>
    </contour>
  </outline>
</glyph>
<glyph name="r" format="1">
  <advance width="333"/>
  <unicode hex="0072"/>
  <outline>
    <contour>
      <point x="61" y="501" type="line"/>
      <point x="106" y="501" type="line"/>
      <point x="104" y="461" type="line"/>
      <point x="153" y="510"/>
      <point x="236" y="510" type="qcurve"/>
      <point x="270" y="510"/>
      <point x="311" y="501" type="qcurve"/>
      <point x="299" y="459" type="line"/>
      <point x="268" y="470"/>
      <point x="205" y="470"/>
      <point x="173" y="460" type="qcurve"/>
      <point x="106" y="441"/>
      <point x="106" y="394" type="qcurve"/>
      <point x="106" y="0" type="line"/>
      <point x="61" y="0" type="line"/>
    </contour>
  </outline>
</glyph>
<glyph name="s" format="1">
  <advance width="431"/>
  <unicode hex="0073"/>
  <outline>
    <contour>
      <point x="331" y="484" type="line"/>
      <point x="315" y="446" type="line"/>
      <point x="277" y="472"/>
      <point x="165" y="473"/>
      <point x="93" y="423"/>
      <point x="93" y="381" type="qcurve"/>
      <point x="93" y="340"/>
      <point x="162" y="297"/>
      <point x="249" y="271"/>
      <point x="336" y="240"/>
      <point x="396" y="175"/>
      <point x="396" y="65"/>
      <point x="307" y="-15"/>
      <point x="136" y="-15"/>
      <point x="38" y="67"/>
      <point x="36" y="127" type="qcurve"/>
      <point x="79" y="127" type="line"/>
      <point x="85" y="80"/>
      <point x="164" y="27"/>
      <point x="273" y="27"/>
      <point x="351" y="77"/>
      <point x="351" y="162"/>
      <point x="293" y="212"/>
      <point x="207" y="239"/>
      <point x="121" y="267"/>
      <point x="88" y="295" type="qcurve"/>
      <point x="49" y="328"/>
      <point x="49" y="427"/>
      <point x="128" y="513"/>
      <point x="219" y="513" type="qcurve"/>
      <point x="250" y="513"/>
      <point x="306" y="498"/>
      <point x="318" y="491" type="qcurve"/>
    </contour>
  </outline>
</glyph>
<glyph name="t" format="1">
  <advance width="243"/>
  <unicode hex="0074"/>
  <outline>
    <contour>
      <point x="44" y="700" type="line"/>
      <point x="89" y="700" type="line"/>
      <point x="89" y="501" type="line"/>
      <point x="220" y="501" type="line"/>
      <point x="200" y="458" type="line"/>
      <point x="89" y="458" type="line"/>
      <point x="89" y="132" type="line"/>
      <point x="89" y="47"/>
      <point x="163" y="23" type="qcurve"/>
      <point x="150" y="-13" type="line"/>
      <point x="94" y="3"/>
      <point x="44" y="73"/>
      <point x="44" y="132" type="qcurve"/>
    </contour>
  </outline>
</glyph>
<glyph name="u" format="1">
  <advance width="447"/>
  <unicode hex="0075"/>
  <outline>
    <contour>
      <point x="36" y="501" type="line"/>
      <point x="81" y="501" type="line"/>
      <point x="81" y="168" type="line"/>
      <point x="81" y="30"/>
      <point x="224" y="30" type="qcurve"/>
      <point x="288" y="30"/>
      <point x="364" y="97"/>
      <point x="364" y="163" type="qcurve"/>
      <point x="364" y="501" type="line"/>
      <point x="409" y="501" type="line"/>
      <point x="409" y="0" type="line"/>
      <point x="365" y="0" type="line"/>
      <point x="368" y="59" type="line"/>
      <point x="317" y="-11"/>
      <point x="224" y="-11" type="qcurve"/>
      <point x="36" y="-11"/>
      <point x="36" y="173" type="qcurve"/>
    </contour>
  </outline>
</glyph>
<glyph name="v" format="1">
  <advance width="426"/>
  <unicode hex="0076"/>
  <outline>
    <contour>
      <point x="18" y="501" type="line"/>
      <point x="65" y="501" type="line"/>
      <point x="210" y="52" type="line"/>
      <point x="356" y="501" type="line"/>
      <point x="403" y="501" type="line"/>
      <point x="239" y="0" type="line"/>
      <point x="181" y="0" type="line"/>
    </contour>
  </outline>
</glyph>
<glyph name="w" format="1">
  <advance width="702"/>
  <unicode hex="0077"/>
  <outline>
    <contour>
      <point x="18" y="501" type="line"/>
      <point x="65" y="501" type="line"/>
      <point x="204" y="52" type="line"/>
      <point x="324" y="501" type="line"/>
      <point x="367" y="501" type="line"/>
      <point x="485" y="52" type="line"/>
      <point x="625" y="501" type="line"/>
      <point x="672" y="501" type="line"/>
      <point x="513" y="0" type="line"/>
      <point x="455" y="0" type="line"/>
      <point x="345" y="420" type="line"/>
      <point x="233" y="0" type="line"/>
      <point x="176" y="0" type="line"/>
    </contour>
  </outline>
</glyph>
<glyph name="x" format="1">
  <advance width="481"/>
  <unicode hex="0078"/>
  <outline>
    <contour>
      <point x="60" y="501" type="line"/>
      <point x="111" y="501" type="line"/>
      <point x="241" y="290" type="line"/>
      <point x="373" y="501" type="line"/>
      <point x="423" y="501" type="line"/>
      <point x="267" y="249" type="line"/>
      <point x="422" y="0" type="line"/>
      <point x="370" y="0" type="line"/>
      <point x="241" y="208" type="line"/>
      <point x="111" y="0" type="line"/>
      <point x="58" y="0" type="line"/>
      <point x="215" y="250" type="line"/>
    </contour>
  </outline>
</glyph>
<glyph name="y" format="1">
  <advance width="478"/>
  <unicode hex="0079"/>
  <outline>
    <contour>
      <point x="37" y="501" type="line"/>
      <point x="80" y="501" type="line"/>
      <point x="80" y="166" type="line"/>
      <point x="80" y="100"/>
      <point x="153" y="29"/>
      <point x="286" y="29"/>
      <point x="368" y="100"/>
      <point x="368" y="166" type="qcurve"/>
      <point x="368" y="366" type="line"/>
      <point x="368" y="465"/>
      <point x="394" y="489" type="qcurve"/>
      <point x="408" y="502"/>
      <point x="431" y="510" type="qcurve"/>
      <point x="444" y="479" type="line"/>
      <point x="412" y="461"/>
      <point x="412" y="403" type="qcurve"/>
      <point x="412" y="-61" type="line"/>
      <point x="412" y="-122"/>
      <point x="364" y="-192"/>
      <point x="307" y="-210" type="qcurve"/>
      <point x="295" y="-175" type="line"/>
      <point x="369" y="-149"/>
      <point x="369" y="-63" type="qcurve"/>
      <point x="369" y="60" type="line"/>
      <point x="329" y="-12"/>
      <point x="220" y="-12" type="qcurve"/>
      <point x="132" y="-12"/>
      <point x="37" y="83"/>
      <point x="37" y="176" type="qcurve"/>
    </contour>
  </outline>
</glyph>
<glyph name="z" format="1">
  <advance width="480"/>
  <unicode hex="007A"/>
  <outline>
    <contour>
      <point x="87" y="501" type="line"/>
      <point x="424" y="501" type="line"/>
      <point x="424" y="460" type="line"/>
      <point x="133" y="41" type="line"/>
      <point x="445" y="41" type="line"/>
      <point x="445" y="0" type="line"/>
      <point x="78" y="0" type="line"/>
      <point x="78" y="41" type="line"/>
      <point x="367" y="460" type="line"/>
      <point x="87" y="460" type="line"/>
    </contour>
  </outline>
</glyph>
<glyph name="braceleft" format="1">
  <advance width="308"/>
  <unicode hex="007B"/>
  <outline>
    <contour>
      <point x="256" y="822" type="qcurve"/>
      <point x="271" y="791" type="line"/>
      <point x="248" y="774"/>
      <point x="220" y="746"/>
      <point x="195" y="683"/>
      <point x="195" y="641" type="qcurve"/>
      <point x="195" y="456" type="line"/>
      <point x="195" y="415"/>
      <point x="135" y="355" type="qcurve"/>
      <point x="197" y="293"/>
      <point x="197" y="253" type="qcurve"/>
      <point x="197" y="68" type="line"/>
      <point x="197" y="9"/>
      <point x="235" y="-60"/>
      <point x="273" y="-85" type="qcurve"/>
      <point x="258" y="-116" type="line"/>
      <point x="192" y="-78"/>
      <point x="152" y="14"/>
      <point x="152" y="128" type="qcurve"/>
      <point x="152" y="247" type="line"/>
      <point x="152" y="266"/>
      <point x="120" y="315"/>
      <point x="99" y="335"/>
      <point x="78" y="354" type="qcurve"/>
      <point x="102" y="373"/>
      <point x="150" y="435"/>
      <point x="150" y="462" type="qcurve"/>
      <point x="150" y="583" type="line"/>
      <point x="150" y="693"/>
      <point x="191" y="784"/>
    </contour>
  </outline>
</glyph>
<glyph name="braceright" format="1">
  <advance width="308"/>
  <unicode hex="007D"/>
  <outline>
    <contour>
      <point x="80" y="791" type="qcurve"/>
      <point x="95" y="822" type="line"/>
      <point x="160" y="784"/>
      <point x="201" y="693"/>
      <point x="201" y="583" type="qcurve"/>
      <point x="201" y="462" type="line"/>
      <point x="201" y="435"/>
      <point x="249" y="373"/>
      <point x="273" y="354" type="qcurve"/>
      <point x="252" y="335"/>
      <point x="231" y="315"/>
      <point x="199" y="266"/>
      <point x="199" y="247" type="qcurve"/>
      <point x="199" y="128" type="line"/>
      <point x="199" y="14"/>
      <point x="159" y="-78"/>
      <point x="93" y="-116" type="qcurve"/>
      <point x="78" y="-85" type="line"/>
      <point x="116" y="-60"/>
      <point x="154" y="9"/>
      <point x="154" y="68" type="qcurve"/>
      <point x="154" y="253" type="line"/>
      <point x="154" y="293"/>
      <point x="216" y="355" type="qcurve"/>
      <point x="156" y="415"/>
      <point x="156" y="456" type="qcurve"/>
      <point x="156" y="641" type="line"/>
      <point x="156" y="683"/>
      <point x="131" y="746"/>
      <point x="103" y="774"/>
    </contour>
  </outline>
</glyph>
<glyph name="asciitilde" format="1">
  <advance width="514"/>
  <unicode hex="007E"/>
  <outline>
    <contour>
      <point x="479" y="342" type="line"/>
      <point x="436" y="293"/>
      <point x="372" y="293" type="qcurve"/>
      <point x="348" y="293"/>
      <point x="317" y="302" type="qcurve"/>
      <point x="247" y="322" type="line"/>
      <point x="221" y="330"/>
      <point x="194" y="330" type="qcurve"/>
      <point x="169" y="328" type="line"/>
      <point x="130" y="323"/>
      <point x="100" y="289" type="qcurve"/>
      <point x="78" y="321" type="line"/>
      <point x="125" y="376"/>
      <point x="194" y="376" type="qcurve"/>
      <point x="222" y="376"/>
      <point x="315" y="347" type="qcurve"/>
      <point x="344" y="338"/>
      <point x="373" y="338" type="qcurve"/>
      <point x="426" y="338"/>
      <point x="457" y="374" type="qcurve"/>
    </contour>
  </outline>
</glyph>
<glyph name="exclamdown" format="1">
  <advance width="214"/>
  <unicode hex="00A1"/>
  <outline>
    <contour>
      <point x="126" y="590" type="line"/>
      <point x="134" y="31" type="line"/>
      <point x="134" y="0"/>
      <point x="79" y="0"/>
      <point x="79" y="31" type="qcurve"/>
      <point x="88" y="590" type="line"/>
    </contour>
    <contour>
      <point x="125" y="663" type="qcurve"/>
      <point x="117" y="655"/>
      <point x="95" y="655"/>
      <point x="78" y="671"/>
      <point x="78" y="693"/>
      <point x="95" y="710"/>
      <point x="117" y="710"/>
      <point x="133" y="693"/>
      <point x="133" y="671"/>
    </contour>
  </outline>
</glyph>
<glyph name="cent" format="1">
  <advance width="435"/>
  <unicode hex="00A2"/>
  <outline>
    <contour>
      <point x="243" y="623" type="line"/>
      <point x="287" y="623" type="line"/>
      <point x="287" y="508" type="line"/>
      <point x="341" y="504"/>
      <point x="398" y="478" type="qcurve"/>
      <point x="385" y="443" type="line"/>
      <point x="333" y="465"/>
      <point x="287" y="468" type="qcurve"/>
      <point x="287" y="29" type="line"/>
      <point x="336" y="29"/>
      <point x="390" y="43" type="qcurve"/>
      <point x="400" y="6" type="line"/>
      <point x="341" y="-10"/>
      <point x="287" y="-10" type="qcurve"/>
      <point x="287" y="-114" type="line"/>
      <point x="243" y="-114" type="line"/>
      <point x="243" y="-8" type="line"/>
      <point x="144" y="1"/>
      <point x="104" y="64" type="qcurve"/>
      <point x="78" y="105"/>
      <point x="78" y="180" type="qcurve"/>
      <point x="78" y="308" type="line"/>
      <point x="78" y="400"/>
      <point x="169" y="503"/>
      <point x="243" y="509" type="qcurve"/>
    </contour>
    <contour>
      <point x="123" y="314" type="qcurve"/>
      <point x="123" y="169" type="line"/>
      <point x="122" y="49"/>
      <point x="243" y="31" type="qcurve"/>
      <point x="243" y="467" type="line"/>
      <point x="188" y="459"/>
      <point x="123" y="383"/>
    </contour>
  </outline>
</glyph>
<glyph name="sterling" format="1">
  <advance width="473"/>
  <unicode hex="00A3"/>
  <outline>
    <contour>
      <point x="101" y="358" type="line"/>
      <point x="160" y="358" type="line"/>
      <point x="125" y="465"/>
      <point x="125" y="515" type="qcurve"/>
      <point x="125" y="602"/>
      <point x="234" y="709"/>
      <point x="387" y="709"/>
      <point x="427" y="684" type="qcurve"/>
      <point x="412" y="644" type="line"/>
      <point x="369" y="668"/>
      <point x="252" y="668"/>
      <point x="169" y="581"/>
      <point x="169" y="513" type="qcurve"/>
      <point x="169" y="477"/>
      <point x="208" y="358" type="qcurve"/>
      <point x="421" y="358" type="line"/>
      <point x="421" y="314" type="line"/>
      <point x="222" y="314" type="line"/>
      <point x="238" y="259"/>
      <point x="238" y="167"/>
      <point x="189" y="69"/>
      <point x="150" y="45" type="qcurve"/>
      <point x="438" y="45" type="line"/>
      <point x="438" y="0" type="line"/>
      <point x="78" y="0" type="line"/>
      <point x="78" y="39" type="line"/>
      <point x="129" y="65"/>
      <point x="192" y="163"/>
      <point x="192" y="219" type="qcurve"/>
      <point x="193" y="251"/>
      <point x="175" y="314" type="qcurve"/>
      <point x="101" y="314" type="line"/>
    </contour>
  </outline>
</glyph>
<glyph name="currency" format="1">
  <advance width="464"/>
  <unicode hex="00A4"/>
  <outline>
    <contour>
      <point x="84" y="464" type="line"/>
      <point x="112" y="491" type="line"/>
      <point x="142" y="460" type="line"/>
      <point x="191" y="499"/>
      <point x="317" y="499"/>
      <point x="363" y="461" type="qcurve"/>
      <point x="394" y="492" type="line"/>
      <point x="422" y="463" type="line"/>
      <point x="391" y="432" type="line"/>
      <point x="429" y="384"/>
      <point x="429" y="262"/>
      <point x="390" y="213" type="qcurve"/>
      <point x="423" y="180" type="line"/>
      <point x="396" y="153" type="line"/>
      <point x="363" y="186" type="line"/>
      <point x="317" y="148"/>
      <point x="189" y="148"/>
      <point x="143" y="186" type="qcurve"/>
      <point x="111" y="152" type="line"/>
      <point x="84" y="179" type="line"/>
      <point x="115" y="213" type="line"/>
      <point x="78" y="261"/>
      <point x="78" y="384"/>
      <point x="115" y="432" type="qcurve"/>
    </contour>
    <contour>
      <point x="253" y="456" type="qcurve"/>
      <point x="198" y="456"/>
      <point x="120" y="378"/>
      <point x="120" y="269"/>
      <point x="198" y="193"/>
      <point x="308" y="193"/>
      <point x="385" y="268"/>
      <point x="385" y="378"/>
      <point x="308" y="456"/>
    </contour>
  </outline>
</glyph>
<glyph name="yen" format="1">
  <advance width="560"/>
  <unicode hex="00A5"/>
  <outline>
    <contour>
      <point x="130" y="304" type="line"/>
      <point x="266" y="304" type="line"/>
      <point x="266" y="341" type="line"/>
      <point x="259" y="353" type="line"/>
      <point x="130" y="353" type="line"/>
      <point x="130" y="397" type="line"/>
      <point x="233" y="397" type="line"/>
      <point x="53" y="700" type="line"/>
      <point x="104" y="700" type="line"/>
      <point x="285" y="397" type="line"/>
      <point x="290" y="397" type="line"/>
      <point x="474" y="700" type="line"/>
      <point x="525" y="700" type="line"/>
      <point x="344" y="397" type="line"/>
      <point x="450" y="397" type="line"/>
      <point x="450" y="353" type="line"/>
      <point x="317" y="353" type="line"/>
      <point x="311" y="342" type="line"/>
      <point x="311" y="304" type="line"/>
      <point x="450" y="304" type="line"/>
      <point x="450" y="260" type="line"/>
      <point x="311" y="260" type="line"/>
      <point x="311" y="0" type="line"/>
      <point x="266" y="0" type="line"/>
      <point x="266" y="260" type="line"/>
      <point x="130" y="260" type="line"/>
    </contour>
  </outline>
</glyph>
<glyph name="section" format="1">
  <advance width="588"/>
  <unicode hex="00A7"/>
  <outline>
    <contour>
      <point x="78" y="-8" type="qcurve"/>
      <point x="124" y="-8" type="line"/>
      <point x="128" y="-67"/>
      <point x="232" y="-154"/>
      <point x="397" y="-154"/>
      <point x="506" y="-76"/>
      <point x="506" y="1" type="qcurve"/>
      <point x="506" y="49"/>
      <point x="446" y="118"/>
      <point x="356" y="153"/>
      <point x="251" y="193"/>
      <point x="160" y="231"/>
      <point x="129" y="267" type="qcurve"/>
      <point x="97" y="304"/>
      <point x="97" y="406"/>
      <point x="128" y="445" type="qcurve"/>
      <point x="96" y="485"/>
      <point x="96" y="540" type="qcurve"/>
      <point x="96" y="610"/>
      <point x="212" y="712"/>
      <point x="321" y="712" type="qcurve"/>
      <point x="404" y="712"/>
      <point x="467" y="682" type="qcurve"/>
      <point x="453" y="640" type="line"/>
      <point x="396" y="669"/>
      <point x="244" y="669"/>
      <point x="142" y="602"/>
      <point x="142" y="537" type="qcurve"/>
      <point x="142" y="469"/>
      <point x="223" y="430" type="qcurve"/>
      <point x="259" y="412"/>
      <point x="347" y="381"/>
      <point x="434" y="347"/>
      <point x="507" y="304"/>
      <point x="552" y="233"/>
      <point x="552" y="135"/>
      <point x="529" y="92" type="qcurve"/>
      <point x="553" y="55"/>
      <point x="553" y="6" type="qcurve"/>
      <point x="553" y="-86"/>
      <point x="434" y="-197"/>
      <point x="205" y="-197"/>
      <point x="80" y="-82"/>
    </contour>
    <contour>
      <point x="162" y="415" type="qcurve"/>
      <point x="143" y="385"/>
      <point x="143" y="355" type="qcurve"/>
      <point x="143" y="308"/>
      <point x="226" y="244"/>
      <point x="329" y="214"/>
      <point x="459" y="161"/>
      <point x="495" y="129" type="qcurve"/>
      <point x="505" y="166"/>
      <point x="505" y="181" type="qcurve"/>
      <point x="505" y="233"/>
      <point x="426" y="305"/>
      <point x="377" y="322" type="qcurve"/>
      <point x="217" y="375"/>
    </contour>
  </outline>
</glyph>
<glyph name="dieresis" format="1">
  <advance width="222"/>
  <unicode hex="00A8"/>
  <outline>
    <contour>
      <point x="12" y="720" type="qcurve"/>
      <point x="21" y="729"/>
      <point x="43" y="729"/>
      <point x="60" y="712"/>
      <point x="60" y="690"/>
      <point x="43" y="674"/>
      <point x="21" y="674"/>
      <point x="4" y="690"/>
      <point x="4" y="712"/>
    </contour>
    <contour>
      <point x="171" y="721" type="qcurve"/>
      <point x="179" y="729"/>
      <point x="201" y="729"/>
      <point x="218" y="713"/>
      <point x="218" y="691"/>
      <point x="201" y="674"/>
      <point x="179" y="674"/>
      <point x="163" y="691"/>
      <point x="163" y="713"/>
    </contour>
  </outline>
</glyph>
<glyph name="copyright" format="1">
  <advance width="800"/>
  <unicode hex="00A9"/>
  <outline>
    <contour>
      <point x="400" y="-127" type="qcurve"/>
      <point x="245" y="-127"/>
      <point x="25" y="89"/>
      <point x="25" y="407"/>
      <point x="243" y="621"/>
      <point x="558" y="621"/>
      <point x="774" y="407"/>
      <point x="774" y="89"/>
      <point x="556" y="-127"/>
    </contour>
    <contour>
      <point x="400" y="577" type="qcurve"/>
      <point x="264" y="577"/>
      <point x="72" y="391"/>
      <point x="72" y="104"/>
      <point x="265" y="-83"/>
      <point x="535" y="-83"/>
      <point x="728" y="105"/>
      <point x="728" y="386"/>
      <point x="536" y="577"/>
    </contour>
    <contour>
      <point x="598" y="323" type="qcurve"/>
      <point x="548" y="323" type="line"/>
      <point x="539" y="366"/>
      <point x="461" y="431"/>
      <point x="404" y="431" type="qcurve"/>
      <point x="322" y="431"/>
      <point x="240" y="324"/>
      <point x="240" y="171"/>
      <point x="324" y="62"/>
      <point x="405" y="62" type="qcurve"/>
      <point x="461" y="62"/>
      <point x="541" y="129"/>
      <point x="548" y="175" type="qcurve"/>
      <point x="599" y="175" type="line"/>
      <point x="583" y="103"/>
      <point x="475" y="16"/>
      <point x="405" y="16" type="qcurve"/>
      <point x="306" y="16"/>
      <point x="191" y="146"/>
      <point x="191" y="343"/>
      <point x="305" y="478"/>
      <point x="403" y="478" type="qcurve"/>
      <point x="476" y="478"/>
      <point x="586" y="392"/>
    </contour>
  </outline>
</glyph>
<glyph name="ordfeminine" format="1">
  <advance width="382"/>
  <unicode hex="00AA"/>
  <outline>
    <contour>
      <point x="347" y="391" type="line"/>
      <point x="278" y="380"/>
      <point x="216" y="380"/>
      <point x="155" y="386"/>
      <point x="109" y="414"/>
      <point x="78" y="474"/>
      <point x="78" y="519" type="qcurve"/>
      <point x="78" y="602"/>
      <point x="142" y="624" type="qcurve"/>
      <point x="158" y="630"/>
      <point x="178" y="630" type="qcurve"/>
      <point x="232" y="630"/>
      <point x="305" y="585" type="qcurve"/>
      <point x="305" y="673"/>
      <point x="178" y="674" type="qcurve"/>
      <point x="181" y="709" type="line"/>
      <point x="279" y="709"/>
      <point x="347" y="634"/>
      <point x="347" y="555" type="qcurve"/>
    </contour>
    <contour>
      <point x="117" y="513" type="qcurve"/>
      <point x="117" y="417"/>
      <point x="229" y="417" type="qcurve"/>
      <point x="262" y="417"/>
      <point x="305" y="426" type="qcurve"/>
      <point x="305" y="544" type="line"/>
      <point x="246" y="585"/>
      <point x="184" y="591" type="qcurve"/>
      <point x="181" y="591"/>
      <point x="177" y="591" type="qcurve"/>
      <point x="152" y="591"/>
      <point x="117" y="555"/>
    </contour>
  </outline>
</glyph>
<glyph name="guillemotleft" format="1">
  <advance width="498"/>
  <unicode hex="00AB"/>
  <outline>
    <contour>
      <point x="229" y="455" type="line"/>
      <point x="259" y="424" type="line"/>
      <point x="102" y="267" type="line"/>
      <point x="258" y="109" type="line"/>
      <point x="229" y="80" type="line"/>
      <point x="42" y="267" type="line"/>
      <point x="42" y="268" type="line"/>
    </contour>
    <contour>
      <point x="449" y="455" type="line"/>
      <point x="479" y="424" type="line"/>
      <point x="322" y="267" type="line"/>
      <point x="478" y="109" type="line"/>
      <point x="449" y="80" type="line"/>
      <point x="262" y="267" type="line"/>
      <point x="262" y="268" type="line"/>
    </contour>
  </outline>
</glyph>
<glyph name="registered" format="1">
  <advance width="800"/>
  <unicode hex="00AE"/>
  <outline>
    <contour>
      <point x="264" y="476" type="line"/>
      <point x="428" y="476" type="line"/>
      <point x="499" y="476"/>
      <point x="577" y="408"/>
      <point x="577" y="299"/>
      <point x="514" y="239"/>
      <point x="463" y="233" type="qcurve"/>
      <point x="587" y="39" type="line"/>
      <point x="533" y="39" type="line"/>
      <point x="413" y="229" type="line"/>
      <point x="309" y="229" type="line"/>
      <point x="309" y="39" type="line"/>
      <point x="264" y="39" type="line"/>
    </contour>
    <contour>
      <point x="309" y="435" type="line"/>
      <point x="309" y="272" type="line"/>
      <point x="408" y="272" type="line"/>
      <point x="498" y="272"/>
      <point x="521" y="309" type="qcurve"/>
      <point x="532" y="327"/>
      <point x="532" y="354" type="qcurve"/>
      <point x="532" y="398"/>
      <point x="464" y="435"/>
      <point x="420" y="435" type="qcurve"/>
    </contour>
    <contour>
      <point x="400" y="-127" type="qcurve"/>
      <point x="245" y="-127"/>
      <point x="25" y="89"/>
      <point x="25" y="407"/>
      <point x="243" y="621"/>
      <point x="558" y="621"/>
      <point x="774" y="407"/>
      <point x="774" y="89"/>
      <point x="556" y="-127"/>
    </contour>
    <contour>
      <point x="399" y="577" type="qcurve"/>
      <point x="263" y="577"/>
      <point x="72" y="391"/>
      <point x="72" y="104"/>
      <point x="264" y="-83"/>
      <point x="538" y="-83"/>
      <point x="728" y="105"/>
      <point x="728" y="387"/>
      <point x="536" y="577"/>
    </contour>
  </outline>
</glyph>
<glyph name="overscore" format="1">
  <advance width="334"/>
  <unicode hex="00AF"/>
  <outline>
    <contour>
      <point x="78" y="677" type="line"/>
      <point x="299" y="677" type="line"/>
      <point x="299" y="631" type="line"/>
      <point x="78" y="631" type="line"/>
    </contour>
  </outline>
</glyph>
<glyph name="degree" format="1">
  <advance width="401"/>
  <unicode hex="00B0"/>
  <outline>
    <contour>
      <point x="120" y="667" type="qcurve"/>
      <point x="162" y="709"/>
      <point x="282" y="709"/>
      <point x="366" y="625"/>
      <point x="366" y="505"/>
      <point x="282" y="421"/>
      <point x="162" y="421"/>
      <point x="78" y="505"/>
      <point x="78" y="625"/>
    </contour>
    <contour>
      <point x="147" y="637" type="qcurve"/>
      <point x="119" y="606"/>
      <point x="119" y="524"/>
      <point x="175" y="462"/>
      <point x="269" y="462"/>
      <point x="325" y="524"/>
      <point x="325" y="606"/>
      <point x="268" y="668"/>
      <point x="176" y="668"/>
    </contour>
  </outline>
</glyph>
<glyph name="plusminus" format="1">
  <advance width="437"/>
  <unicode hex="00B1"/>
  <outline>
    <contour>
      <point x="82" y="413" type="line"/>
      <point x="221" y="413" type="line"/>
      <point x="221" y="545" type="line"/>
      <point x="265" y="545" type="line"/>
      <point x="265" y="413" type="line"/>
      <point x="402" y="413" type="line"/>
      <point x="402" y="369" type="line"/>
      <point x="265" y="369" type="line"/>
      <point x="265" y="281" type="line"/>
      <point x="398" y="281" type="line"/>
      <point x="398" y="237" type="line"/>
      <point x="78" y="237" type="line"/>
      <point x="78" y="281" type="line"/>
      <point x="221" y="281" type="line"/>
      <point x="221" y="369" type="line"/>
      <point x="82" y="369" type="line"/>
    </contour>
  </outline>
</glyph>
<glyph name="acute" format="1">
  <advance width="222"/>
  <unicode hex="00B4"/>
  <outline>
    <contour>
      <point x="46" y="588" type="line"/>
      <point x="98" y="709" type="line"/>
      <point x="107" y="729"/>
      <point x="124" y="729" type="qcurve"/>
      <point x="148" y="729"/>
      <point x="154" y="710" type="qcurve"/>
      <point x="155" y="705"/>
      <point x="155" y="693"/>
      <point x="150" y="686" type="qcurve"/>
      <point x="82" y="588" type="line"/>
    </contour>
  </outline>
</glyph>
<glyph name="mu" format="1">
  <advance width="477"/>
  <unicode hex="00B5"/>
  <outline>
    <contour>
      <point x="37" y="501" type="line"/>
      <point x="83" y="501" type="line"/>
      <point x="83" y="101" type="line"/>
      <point x="108" y="73"/>
      <point x="155" y="52" type="qcurve"/>
      <point x="205" y="30"/>
      <point x="252" y="30" type="qcurve"/>
      <point x="293" y="30"/>
      <point x="326" y="48" type="qcurve"/>
      <point x="371" y="73"/>
      <point x="371" y="148" type="qcurve"/>
      <point x="371" y="500" type="line"/>
      <point x="417" y="510" type="line"/>
      <point x="417" y="67" type="line"/>
      <point x="419" y="35"/>
      <point x="443" y="23" type="qcurve"/>
      <point x="421" y="-5" type="line"/>
      <point x="413" y="-5"/>
      <point x="387" y="16"/>
      <point x="380" y="35" type="qcurve"/>
      <point x="339" y="-12"/>
      <point x="256" y="-12" type="qcurve"/>
      <point x="193" y="-12"/>
      <point x="148" y="9" type="qcurve"/>
      <point x="97" y="32"/>
      <point x="83" y="46" type="qcurve"/>
      <point x="83" y="-208" type="line"/>
      <point x="37" y="-201" type="line"/>
    </contour>
  </outline>
</glyph>
<glyph name="cedilla" format="1">
  <advance width="410"/>
  <unicode hex="00B8"/>
  <outline>
    <contour>
      <point x="173" y="0" type="line"/>
      <point x="208" y="0" type="line"/>
      <point x="168" y="-55" type="line"/>
      <point x="182" y="-47"/>
      <point x="241" y="-47"/>
      <point x="292" y="-84"/>
      <point x="292" y="-169"/>
      <point x="218" y="-210"/>
      <point x="128" y="-210"/>
      <point x="76" y="-191" type="qcurve"/>
      <point x="96" y="-148" type="line"/>
      <point x="131" y="-172"/>
      <point x="205" y="-172"/>
      <point x="250" y="-146"/>
      <point x="250" y="-94"/>
      <point x="225" y="-83" type="qcurve"/>
      <point x="214" y="-78"/>
      <point x="183" y="-78"/>
      <point x="162" y="-86" type="qcurve"/>
      <point x="126" y="-101" type="line"/>
      <point x="112" y="-78" type="line"/>
    </contour>
  </outline>
</glyph>
<glyph name="guillemotright" format="1">
  <advance width="514"/>
  <unicode hex="00BB"/>
  <outline>
    <contour>
      <point x="224" y="424" type="line"/>
      <point x="254" y="455" type="line"/>
      <point x="441" y="268" type="line"/>
      <point x="441" y="267" type="line"/>
      <point x="254" y="80" type="line"/>
      <point x="225" y="109" type="line"/>
      <point x="381" y="267" type="line"/>
    </contour>
    <contour>
      <point x="4" y="424" type="line"/>
      <point x="34" y="455" type="line"/>
      <point x="221" y="268" type="line"/>
      <point x="221" y="267" type="line"/>
      <point x="34" y="80" type="line"/>
      <point x="5" y="109" type="line"/>
      <point x="161" y="267" type="line"/>
    </contour>
  </outline>
</glyph>
<glyph name="questiondown" format="1">
  <advance width="468"/>
  <unicode hex="00BF"/>
  <outline>
    <contour>
      <point x="388" y="177" type="qcurve"/>
      <point x="433" y="177" type="line"/>
      <point x="433" y="102"/>
      <point x="340" y="0"/>
      <point x="255" y="0" type="qcurve"/>
      <point x="203" y="0"/>
      <point x="161" y="26" type="qcurve"/>
      <point x="79" y="78"/>
      <point x="79" y="172" type="qcurve"/>
      <point x="79" y="234"/>
      <point x="116" y="288" type="qcurve"/>
      <point x="135" y="315"/>
      <point x="191" y="372"/>
      <point x="222" y="405"/>
      <point x="247" y="477"/>
      <point x="247" y="529" type="qcurve"/>
      <point x="247" y="590" type="line"/>
      <point x="288" y="590" type="line"/>
      <point x="288" y="505" type="line"/>
      <point x="288" y="459"/>
      <point x="260" y="385"/>
      <point x="225" y="346"/>
      <point x="172" y="290"/>
      <point x="159" y="272" type="qcurve"/>
      <point x="126" y="220"/>
      <point x="126" y="172" type="qcurve"/>
      <point x="126" y="117"/>
      <point x="202" y="43"/>
      <point x="312" y="43"/>
      <point x="388" y="112"/>
    </contour>
    <contour>
      <point x="287" y="662" type="qcurve"/>
      <point x="279" y="654"/>
      <point x="257" y="654"/>
      <point x="240" y="670"/>
      <point x="240" y="692"/>
      <point x="257" y="709"/>
      <point x="279" y="709"/>
      <point x="296" y="692"/>
      <point x="296" y="670"/>
    </contour>
  </outline>
</glyph>
<glyph name="Agrave" format="1">
  <advance width="527"/>
  <unicode hex="00C0"/>
  <outline>
    <contour>
      <point x="242" y="700" type="line"/>
      <point x="284" y="700" type="line"/>
      <point x="517" y="0" type="line"/>
      <point x="469" y="0" type="line"/>
      <point x="383" y="256" type="line"/>
      <point x="143" y="256" type="line"/>
      <point x="59" y="0" type="line"/>
      <point x="12" y="0" type="line"/>
    </contour>
    <contour>
      <point x="263" y="627" type="line"/>
      <point x="157" y="300" type="line"/>
      <point x="371" y="300" type="line"/>
    </contour>
    <contour>
      <point x="224" y="851" type="qcurve"/>
      <point x="277" y="730" type="line"/>
      <point x="240" y="730" type="line"/>
      <point x="173" y="829" type="line"/>
      <point x="168" y="836"/>
      <point x="168" y="842" type="qcurve"/>
      <point x="168" y="871"/>
      <point x="198" y="871" type="qcurve"/>
      <point x="216" y="871"/>
    </contour>
  </outline>
</glyph>
<glyph name="Aacute" format="1">
  <advance width="527"/>
  <unicode hex="00C1"/>
  <outline>
    <contour>
      <point x="242" y="700" type="line"/>
      <point x="284" y="700" type="line"/>
      <point x="517" y="0" type="line"/>
      <point x="469" y="0" type="line"/>
      <point x="383" y="256" type="line"/>
      <point x="143" y="256" type="line"/>
      <point x="59" y="0" type="line"/>
      <point x="12" y="0" type="line"/>
    </contour>
    <contour>
      <point x="263" y="627" type="line"/>
      <point x="157" y="300" type="line"/>
      <point x="371" y="300" type="line"/>
    </contour>
    <contour>
      <point x="242" y="731" type="line"/>
      <point x="294" y="852" type="line"/>
      <point x="303" y="872"/>
      <point x="320" y="872" type="qcurve"/>
      <point x="344" y="872"/>
      <point x="350" y="852" type="qcurve"/>
      <point x="351" y="848"/>
      <point x="351" y="836"/>
      <point x="346" y="829" type="qcurve"/>
      <point x="278" y="731" type="line"/>
    </contour>
  </outline>
</glyph>
<glyph name="Acircumflex" format="1">
  <advance width="527"/>
  <unicode hex="00C2"/>
  <outline>
    <contour>
      <point x="242" y="700" type="line"/>
      <point x="284" y="700" type="line"/>
      <point x="517" y="0" type="line"/>
      <point x="469" y="0" type="line"/>
      <point x="383" y="256" type="line"/>
      <point x="143" y="256" type="line"/>
      <point x="59" y="0" type="line"/>
      <point x="12" y="0" type="line"/>
    </contour>
    <contour>
      <point x="263" y="627" type="line"/>
      <point x="157" y="300" type="line"/>
      <point x="371" y="300" type="line"/>
    </contour>
    <contour>
      <point x="118" y="772" type="line"/>
      <point x="266" y="913" type="line"/>
      <point x="408" y="772" type="line"/>
      <point x="376" y="740" type="line"/>
      <point x="265" y="851" type="line"/>
      <point x="149" y="740" type="line"/>
    </contour>
  </outline>
</glyph>
<glyph name="Atilde" format="1">
  <advance width="527"/>
  <unicode hex="00C3"/>
  <outline>
    <contour>
      <point x="242" y="700" type="line"/>
      <point x="284" y="700" type="line"/>
      <point x="517" y="0" type="line"/>
      <point x="469" y="0" type="line"/>
      <point x="383" y="256" type="line"/>
      <point x="143" y="256" type="line"/>
      <point x="59" y="0" type="line"/>
      <point x="12" y="0" type="line"/>
    </contour>
    <contour>
      <point x="263" y="627" type="line"/>
      <point x="157" y="300" type="line"/>
      <point x="371" y="300" type="line"/>
    </contour>
    <contour>
      <point x="194" y="780" type="qcurve"/>
      <point x="152" y="780"/>
      <point x="117" y="742" type="qcurve"/>
      <point x="96" y="774" type="line"/>
      <point x="143" y="826"/>
      <point x="196" y="826" type="qcurve"/>
      <point x="220" y="826"/>
      <point x="288" y="795" type="qcurve"/>
      <point x="311" y="784"/>
      <point x="335" y="784" type="qcurve"/>
      <point x="375" y="784"/>
      <point x="406" y="818" type="qcurve"/>
      <point x="426" y="785" type="line"/>
      <point x="383" y="738"/>
      <point x="334" y="738" type="qcurve"/>
      <point x="314" y="738"/>
      <point x="267" y="758"/>
      <point x="218" y="780"/>
    </contour>
  </outline>
</glyph>
<glyph name="Adieresis" format="1">
  <advance width="527"/>
  <unicode hex="00C4"/>
  <outline>
    <contour>
      <point x="242" y="700" type="line"/>
      <point x="284" y="700" type="line"/>
      <point x="517" y="0" type="line"/>
      <point x="469" y="0" type="line"/>
      <point x="383" y="256" type="line"/>
      <point x="143" y="256" type="line"/>
      <point x="59" y="0" type="line"/>
      <point x="12" y="0" type="line"/>
    </contour>
    <contour>
      <point x="263" y="627" type="line"/>
      <point x="157" y="300" type="line"/>
      <point x="371" y="300" type="line"/>
    </contour>
    <contour>
      <point x="166" y="825" type="qcurve"/>
      <point x="175" y="834"/>
      <point x="197" y="834"/>
      <point x="214" y="817"/>
      <point x="214" y="795"/>
      <point x="197" y="779"/>
      <point x="175" y="779"/>
      <point x="158" y="795"/>
      <point x="158" y="817"/>
    </contour>
    <contour>
      <point x="325" y="826" type="qcurve"/>
      <point x="333" y="834"/>
      <point x="355" y="834"/>
      <point x="372" y="818"/>
      <point x="372" y="796"/>
      <point x="355" y="779"/>
      <point x="333" y="779"/>
      <point x="317" y="796"/>
      <point x="317" y="818"/>
    </contour>
  </outline>
</glyph>
<glyph name="Aring" format="1">
  <advance width="527"/>
  <unicode hex="00C5"/>
  <outline>
    <contour>
      <point x="295" y="667" type="qcurve"/>
      <point x="517" y="0" type="line"/>
      <point x="469" y="0" type="line"/>
      <point x="383" y="256" type="line"/>
      <point x="143" y="256" type="line"/>
      <point x="59" y="0" type="line"/>
      <point x="12" y="0" type="line"/>
      <point x="231" y="667" type="line"/>
      <point x="196" y="678"/>
      <point x="152" y="737"/>
      <point x="152" y="820"/>
      <point x="217" y="885"/>
      <point x="308" y="885"/>
      <point x="373" y="820"/>
      <point x="373" y="737"/>
      <point x="329" y="678"/>
    </contour>
    <contour>
      <point x="263" y="627" type="line"/>
      <point x="157" y="300" type="line"/>
      <point x="371" y="300" type="line"/>
    </contour>
    <contour>
      <point x="210" y="826" type="qcurve"/>
      <point x="189" y="805"/>
      <point x="189" y="743"/>
      <point x="232" y="701"/>
      <point x="294" y="701"/>
      <point x="336" y="743"/>
      <point x="336" y="805"/>
      <point x="294" y="847"/>
      <point x="232" y="847"/>
    </contour>
  </outline>
</glyph>
<glyph name="AE" format="1">
  <advance width="814"/>
  <unicode hex="00C6"/>
  <outline>
    <contour>
      <point x="444" y="700" type="line"/>
      <point x="779" y="700" type="line"/>
      <point x="779" y="658" type="line"/>
      <point x="490" y="658" type="line"/>
      <point x="490" y="413" type="line"/>
      <point x="692" y="413" type="line"/>
      <point x="677" y="369" type="line"/>
      <point x="490" y="369" type="line"/>
      <point x="490" y="41" type="line"/>
      <point x="777" y="41" type="line"/>
      <point x="777" y="0" type="line"/>
      <point x="444" y="0" type="line"/>
      <point x="445" y="256" type="line"/>
      <point x="260" y="256" type="line"/>
      <point x="126" y="0" type="line"/>
      <point x="78" y="0" type="line"/>
    </contour>
    <contour>
      <point x="445" y="612" type="line"/>
      <point x="282" y="300" type="line"/>
      <point x="445" y="300" type="line"/>
    </contour>
  </outline>
</glyph>
<glyph name="Ccedilla" format="1">
  <advance width="434"/>
  <unicode hex="00C7"/>
  <outline>
    <contour>
      <point x="111" y="513" type="qcurve"/>
      <point x="111" y="185" type="line"/>
      <point x="111" y="78"/>
      <point x="190" y="44" type="qcurve"/>
      <point x="221" y="31"/>
      <point x="328" y="31"/>
      <point x="417" y="61" type="qcurve"/>
      <point x="427" y="23" type="line"/>
      <point x="342" y="-10"/>
      <point x="259" y="-10" type="qcurve"/>
      <point x="227" y="-55" type="line"/>
      <point x="241" y="-47"/>
      <point x="300" y="-47"/>
      <point x="351" y="-84"/>
      <point x="351" y="-169"/>
      <point x="277" y="-210"/>
      <point x="187" y="-210"/>
      <point x="135" y="-191" type="qcurve"/>
      <point x="155" y="-148" type="line"/>
      <point x="190" y="-172"/>
      <point x="264" y="-172"/>
      <point x="309" y="-146"/>
      <point x="309" y="-94"/>
      <point x="284" y="-83" type="qcurve"/>
      <point x="272" y="-78"/>
      <point x="242" y="-78"/>
      <point x="221" y="-86" type="qcurve"/>
      <point x="185" y="-101" type="line"/>
      <point x="171" y="-78" type="line"/>
      <point x="225" y="-8" type="line"/>
      <point x="153" y="0"/>
      <point x="66" y="92"/>
      <point x="66" y="183" type="qcurve"/>
      <point x="66" y="504" type="line"/>
      <point x="66" y="580"/>
      <point x="109" y="658"/>
      <point x="153" y="685" type="qcurve"/>
      <point x="198" y="710"/>
      <point x="260" y="710" type="qcurve"/>
      <point x="338" y="710"/>
      <point x="402" y="677" type="qcurve"/>
      <point x="388" y="645" type="line"/>
      <point x="330" y="669"/>
      <point x="273" y="669" type="qcurve"/>
      <point x="193" y="669"/>
      <point x="152" y="629" type="qcurve"/>
      <point x="135" y="613"/>
      <point x="111" y="553"/>
    </contour>
  </outline>
</glyph>
<glyph name="Egrave" format="1">
  <advance width="465"/>
  <unicode hex="00C8"/>
  <outline>
    <contour>
      <point x="78" y="700" type="line"/>
      <point x="412" y="700" type="line"/>
      <point x="412" y="658" type="line"/>
      <point x="123" y="658" type="line"/>
      <point x="123" y="413" type="line"/>
      <point x="325" y="413" type="line"/>
      <point x="310" y="369" type="line"/>
      <point x="123" y="369" type="line"/>
      <point x="123" y="41" type="line"/>
      <point x="410" y="41" type="line"/>
      <point x="410" y="0" type="line"/>
      <point x="78" y="0" type="line"/>
    </contour>
    <contour>
      <point x="218" y="850" type="qcurve"/>
      <point x="271" y="729" type="line"/>
      <point x="234" y="729" type="line"/>
      <point x="167" y="828" type="line"/>
      <point x="162" y="835"/>
      <point x="162" y="841" type="qcurve"/>
      <point x="162" y="870"/>
      <point x="192" y="870" type="qcurve"/>
      <point x="210" y="870"/>
    </contour>
  </outline>
</glyph>
<glyph name="Eacute" format="1">
  <advance width="465"/>
  <unicode hex="00C9"/>
  <outline>
    <contour>
      <point x="78" y="700" type="line"/>
      <point x="412" y="700" type="line"/>
      <point x="412" y="658" type="line"/>
      <point x="123" y="658" type="line"/>
      <point x="123" y="413" type="line"/>
      <point x="325" y="413" type="line"/>
      <point x="310" y="369" type="line"/>
      <point x="123" y="369" type="line"/>
      <point x="123" y="41" type="line"/>
      <point x="410" y="41" type="line"/>
      <point x="410" y="0" type="line"/>
      <point x="78" y="0" type="line"/>
    </contour>
    <contour>
      <point x="237" y="730" type="line"/>
      <point x="289" y="851" type="line"/>
      <point x="298" y="871"/>
      <point x="315" y="871" type="qcurve"/>
      <point x="339" y="871"/>
      <point x="344" y="852" type="qcurve"/>
      <point x="346" y="847"/>
      <point x="346" y="835"/>
      <point x="341" y="828" type="qcurve"/>
      <point x="273" y="730" type="line"/>
    </contour>
  </outline>
</glyph>
<glyph name="Ecircumflex" format="1">
  <advance width="465"/>
  <unicode hex="00CA"/>
  <outline>
    <contour>
      <point x="78" y="700" type="line"/>
      <point x="412" y="700" type="line"/>
      <point x="412" y="658" type="line"/>
      <point x="123" y="658" type="line"/>
      <point x="123" y="413" type="line"/>
      <point x="325" y="413" type="line"/>
      <point x="310" y="369" type="line"/>
      <point x="123" y="369" type="line"/>
      <point x="123" y="41" type="line"/>
      <point x="410" y="41" type="line"/>
      <point x="410" y="0" type="line"/>
      <point x="78" y="0" type="line"/>
    </contour>
    <contour>
      <point x="93" y="772" type="line"/>
      <point x="241" y="913" type="line"/>
      <point x="383" y="772" type="line"/>
      <point x="351" y="740" type="line"/>
      <point x="240" y="851" type="line"/>
      <point x="124" y="740" type="line"/>
    </contour>
  </outline>
</glyph>
<glyph name="Edieresis" format="1">
  <advance width="465"/>
  <unicode hex="00CB"/>
  <outline>
    <contour>
      <point x="78" y="700" type="line"/>
      <point x="412" y="700" type="line"/>
      <point x="412" y="658" type="line"/>
      <point x="123" y="658" type="line"/>
      <point x="123" y="413" type="line"/>
      <point x="325" y="413" type="line"/>
      <point x="310" y="369" type="line"/>
      <point x="123" y="369" type="line"/>
      <point x="123" y="41" type="line"/>
      <point x="410" y="41" type="line"/>
      <point x="410" y="0" type="line"/>
      <point x="78" y="0" type="line"/>
    </contour>
  </outline>
</glyph>
<glyph name="Igrave" format="1">
  <advance width="280"/>
  <unicode hex="00CC"/>
  <outline>
    <contour>
      <point x="83" y="700" type="line"/>
      <point x="200" y="700" type="line"/>
      <point x="200" y="0" type="line"/>
      <point x="155" y="0" type="line"/>
      <point x="155" y="658" type="line"/>
      <point x="83" y="660" type="line"/>
    </contour>
    <contour>
      <point x="139" y="850" type="qcurve"/>
      <point x="192" y="729" type="line"/>
      <point x="155" y="729" type="line"/>
      <point x="88" y="828" type="line"/>
      <point x="83" y="835"/>
      <point x="83" y="841" type="qcurve"/>
      <point x="83" y="870"/>
      <point x="113" y="870" type="qcurve"/>
      <point x="131" y="870"/>
    </contour>
  </outline>
</glyph>
<glyph name="Iacute" format="1">
  <advance width="344"/>
  <unicode hex="00CD"/>
  <outline>
    <contour>
      <point x="78" y="700" type="line"/>
      <point x="195" y="700" type="line"/>
      <point x="195" y="0" type="line"/>
      <point x="150" y="0" type="line"/>
      <point x="150" y="658" type="line"/>
      <point x="78" y="660" type="line"/>
    </contour>
    <contour>
      <point x="156" y="730" type="line"/>
      <point x="208" y="851" type="line"/>
      <point x="217" y="871"/>
      <point x="234" y="871" type="qcurve"/>
      <point x="258" y="871"/>
      <point x="264" y="852" type="qcurve"/>
      <point x="265" y="847"/>
      <point x="265" y="835"/>
      <point x="260" y="828" type="qcurve"/>
      <point x="192" y="730" type="line"/>
    </contour>
  </outline>
</glyph>
<glyph name="Icircumflex" format="1">
  <advance width="448"/>
  <unicode hex="00CE"/>
  <outline>
    <contour>
      <point x="134" y="700" type="line"/>
      <point x="251" y="700" type="line"/>
      <point x="251" y="0" type="line"/>
      <point x="206" y="0" type="line"/>
      <point x="206" y="658" type="line"/>
      <point x="134" y="660" type="line"/>
    </contour>
    <contour>
      <point x="78" y="772" type="line"/>
      <point x="226" y="913" type="line"/>
      <point x="368" y="772" type="line"/>
      <point x="336" y="740" type="line"/>
      <point x="225" y="851" type="line"/>
      <point x="109" y="740" type="line"/>
    </contour>
  </outline>
</glyph>
<glyph name="Idieresis" format="1">
  <advance width="276"/>
  <unicode hex="00CF"/>
  <outline>
    <contour>
      <point x="78" y="700" type="line"/>
      <point x="195" y="700" type="line"/>
      <point x="195" y="0" type="line"/>
      <point x="150" y="0" type="line"/>
      <point x="150" y="658" type="line"/>
      <point x="78" y="660" type="line"/>
    </contour>
  </outline>
</glyph>
<glyph name="Eth" format="1">
  <advance width="640"/>
  <unicode hex="00D0"/>
  <outline>
    <contour>
      <point x="78" y="538" type="line"/>
      <point x="127" y="538" type="line"/>
      <point x="127" y="701" type="line"/>
      <point x="315" y="701" type="line"/>
      <point x="408" y="701"/>
      <point x="523" y="613"/>
      <point x="540" y="538" type="qcurve"/>
      <point x="605" y="538" type="line"/>
      <point x="605" y="494" type="line"/>
      <point x="546" y="494" type="line"/>
      <point x="547" y="487"/>
      <point x="547" y="474" type="qcurve"/>
      <point x="547" y="200" type="line"/>
      <point x="547" y="0"/>
      <point x="335" y="0" type="qcurve"/>
      <point x="127" y="0" type="line"/>
      <point x="127" y="494" type="line"/>
      <point x="78" y="494" type="line"/>
    </contour>
    <contour>
      <point x="502" y="479" type="line"/>
      <point x="502" y="489"/>
      <point x="501" y="494" type="qcurve"/>
      <point x="172" y="494" type="line"/>
      <point x="172" y="41" type="line"/>
      <point x="321" y="41" type="line"/>
      <point x="387" y="41"/>
      <point x="438" y="65" type="qcurve"/>
      <point x="502" y="95"/>
      <point x="502" y="197" type="qcurve"/>
    </contour>
    <contour>
      <point x="172" y="659" type="line"/>
      <point x="172" y="538" type="line"/>
      <point x="494" y="538" type="line"/>
      <point x="478" y="599"/>
      <point x="383" y="659"/>
      <point x="325" y="659" type="qcurve"/>
    </contour>
  </outline>
</glyph>
<glyph name="Ntilde" format="1">
  <advance width="650"/>
  <unicode hex="00D1"/>
  <outline>
    <contour>
      <point x="78" y="700" type="line"/>
      <point x="123" y="700" type="line"/>
      <point x="526" y="82" type="line"/>
      <point x="526" y="700" type="line"/>
      <point x="570" y="700" type="line"/>
      <point x="570" y="0" type="line"/>
      <point x="526" y="0" type="line"/>
      <point x="123" y="619" type="line"/>
      <point x="123" y="0" type="line"/>
      <point x="78" y="0" type="line"/>
    </contour>
    <contour>
      <point x="256" y="780" type="qcurve"/>
      <point x="214" y="780"/>
      <point x="179" y="742" type="qcurve"/>
      <point x="158" y="774" type="line"/>
      <point x="205" y="826"/>
      <point x="258" y="826" type="qcurve"/>
      <point x="282" y="826"/>
      <point x="350" y="795" type="qcurve"/>
      <point x="373" y="784"/>
      <point x="397" y="784" type="qcurve"/>
      <point x="437" y="784"/>
      <point x="468" y="818" type="qcurve"/>
      <point x="488" y="785" type="line"/>
      <point x="445" y="738"/>
      <point x="396" y="738" type="qcurve"/>
      <point x="376" y="738"/>
      <point x="329" y="758"/>
      <point x="280" y="780"/>
    </contour>
  </outline>
</glyph>
<glyph name="Oacute" format="1">
  <advance width="549"/>
  <unicode hex="00D3"/>
  <outline>
    <contour>
      <point x="63" y="185" type="qcurve"/>
      <point x="63" y="507" type="line"/>
      <point x="63" y="610"/>
      <point x="176" y="716"/>
      <point x="374" y="716"/>
      <point x="483" y="604"/>
      <point x="483" y="506" type="qcurve"/>
      <point x="483" y="185" type="line"/>
      <point x="483" y="84"/>
      <point x="360" y="-11"/>
      <point x="188" y="-11"/>
      <point x="63" y="84"/>
    </contour>
    <contour>
      <point x="108" y="514" type="qcurve"/>
      <point x="108" y="185" type="line"/>
      <point x="108" y="109"/>
      <point x="203" y="32"/>
      <point x="345" y="32"/>
      <point x="439" y="107"/>
      <point x="439" y="186" type="qcurve"/>
      <point x="439" y="514" type="line"/>
      <point x="439" y="591"/>
      <point x="350" y="673"/>
      <point x="196" y="673"/>
      <point x="108" y="591"/>
    </contour>
    <contour>
      <point x="257" y="730" type="line"/>
      <point x="309" y="851" type="line"/>
      <point x="318" y="871"/>
      <point x="335" y="871" type="qcurve"/>
      <point x="359" y="871"/>
      <point x="364" y="852" type="qcurve"/>
      <point x="366" y="847"/>
      <point x="366" y="835"/>
      <point x="361" y="828" type="qcurve"/>
      <point x="293" y="730" type="line"/>
    </contour>
  </outline>
</glyph>
<glyph name="Ocircumflex" format="1">
  <advance width="549"/>
  <unicode hex="00D4"/>
  <outline>
    <contour>
      <point x="63" y="185" type="qcurve"/>
      <point x="63" y="507" type="line"/>
      <point x="63" y="610"/>
      <point x="176" y="716"/>
      <point x="374" y="716"/>
      <point x="483" y="604"/>
      <point x="483" y="506" type="qcurve"/>
      <point x="483" y="185" type="line"/>
      <point x="483" y="84"/>
      <point x="360" y="-11"/>
      <point x="188" y="-11"/>
      <point x="63" y="84"/>
    </contour>
    <contour>
      <point x="108" y="514" type="qcurve"/>
      <point x="108" y="185" type="line"/>
      <point x="108" y="109"/>
      <point x="203" y="32"/>
      <point x="345" y="32"/>
      <point x="439" y="107"/>
      <point x="439" y="186" type="qcurve"/>
      <point x="439" y="514" type="line"/>
      <point x="439" y="591"/>
      <point x="350" y="673"/>
      <point x="196" y="673"/>
      <point x="108" y="591"/>
    </contour>
    <contour>
      <point x="126" y="772" type="line"/>
      <point x="274" y="913" type="line"/>
      <point x="416" y="772" type="line"/>
      <point x="384" y="740" type="line"/>
      <point x="273" y="851" type="line"/>
      <point x="157" y="740" type="line"/>
    </contour>
  </outline>
</glyph>
<glyph name="Otilde" format="1">
  <advance width="549"/>
  <unicode hex="00D5"/>
  <outline>
    <contour>
      <point x="63" y="185" type="qcurve"/>
      <point x="63" y="507" type="line"/>
      <point x="63" y="610"/>
      <point x="176" y="716"/>
      <point x="374" y="716"/>
      <point x="483" y="604"/>
      <point x="483" y="506" type="qcurve"/>
      <point x="483" y="185" type="line"/>
      <point x="483" y="84"/>
      <point x="360" y="-11"/>
      <point x="188" y="-11"/>
      <point x="63" y="84"/>
    </contour>
    <contour>
      <point x="108" y="514" type="qcurve"/>
      <point x="108" y="185" type="line"/>
      <point x="108" y="109"/>
      <point x="203" y="32"/>
      <point x="345" y="32"/>
      <point x="439" y="107"/>
      <point x="439" y="186" type="qcurve"/>
      <point x="439" y="514" type="line"/>
      <point x="439" y="591"/>
      <point x="350" y="673"/>
      <point x="196" y="673"/>
      <point x="108" y="591"/>
    </contour>
    <contour>
      <point x="209" y="780" type="qcurve"/>
      <point x="167" y="780"/>
      <point x="132" y="742" type="qcurve"/>
      <point x="111" y="774" type="line"/>
      <point x="158" y="826"/>
      <point x="211" y="826" type="qcurve"/>
      <point x="235" y="826"/>
      <point x="302" y="795" type="qcurve"/>
      <point x="326" y="784"/>
      <point x="350" y="784" type="qcurve"/>
      <point x="390" y="784"/>
      <point x="421" y="818" type="qcurve"/>
      <point x="441" y="785" type="line"/>
      <point x="398" y="738"/>
      <point x="349" y="738" type="qcurve"/>
      <point x="328" y="738"/>
      <point x="282" y="758"/>
      <point x="233" y="780"/>
    </contour>
  </outline>
</glyph>
<glyph name="Odieresis" format="1">
  <advance width="549"/>
  <unicode hex="00D6"/>
  <outline>
    <contour>
      <point x="63" y="185" type="qcurve"/>
      <point x="63" y="507" type="line"/>
      <point x="63" y="610"/>
      <point x="176" y="716"/>
      <point x="374" y="716"/>
      <point x="483" y="604"/>
      <point x="483" y="506" type="qcurve"/>
      <point x="483" y="185" type="line"/>
      <point x="483" y="84"/>
      <point x="360" y="-11"/>
      <point x="188" y="-11"/>
      <point x="63" y="84"/>
    </contour>
    <contour>
      <point x="108" y="514" type="qcurve"/>
      <point x="108" y="185" type="line"/>
      <point x="108" y="109"/>
      <point x="203" y="32"/>
      <point x="345" y="32"/>
      <point x="439" y="107"/>
      <point x="439" y="186" type="qcurve"/>
      <point x="439" y="514" type="line"/>
      <point x="439" y="591"/>
      <point x="350" y="673"/>
      <point x="196" y="673"/>
      <point x="108" y="591"/>
    </contour>
    <contour>
      <point x="172" y="825" type="qcurve"/>
      <point x="181" y="834"/>
      <point x="203" y="834"/>
      <point x="220" y="817"/>
      <point x="220" y="795"/>
      <point x="203" y="779"/>
      <point x="181" y="779"/>
      <point x="164" y="795"/>
      <point x="164" y="817"/>
    </contour>
    <contour>
      <point x="331" y="826" type="qcurve"/>
      <point x="339" y="834"/>
      <point x="361" y="834"/>
      <point x="378" y="818"/>
      <point x="378" y="796"/>
      <point x="361" y="779"/>
      <point x="339" y="779"/>
      <point x="323" y="796"/>
      <point x="323" y="818"/>
    </contour>
  </outline>
</glyph>
<glyph name="multiply" format="1">
  <advance width="390"/>
  <unicode hex="00D7"/>
  <outline>
    <contour>
      <point x="78" y="465" type="line"/>
      <point x="111" y="493" type="line"/>
      <point x="217" y="366" type="line"/>
      <point x="322" y="493" type="line"/>
      <point x="355" y="465" type="line"/>
      <point x="245" y="332" type="line"/>
      <point x="354" y="201" type="line"/>
      <point x="320" y="172" type="line"/>
      <point x="216" y="297" type="line"/>
      <point x="112" y="171" type="line"/>
      <point x="79" y="201" type="line"/>
      <point x="188" y="332" type="line"/>
    </contour>
  </outline>
</glyph>
<glyph name="Oslash" format="1">
  <advance width="533"/>
  <unicode hex="00D8"/>
  <outline>
    <contour>
      <point x="424" y="817" type="line"/>
      <point x="470" y="817" type="line"/>
      <point x="422" y="678" type="line"/>
      <point x="498" y="622"/>
      <point x="498" y="506" type="qcurve"/>
      <point x="498" y="185" type="line"/>
      <point x="498" y="84"/>
      <point x="375" y="-11"/>
      <point x="289" y="-11" type="qcurve"/>
      <point x="236" y="-11"/>
      <point x="190" y="7" type="qcurve"/>
      <point x="148" y="-114" type="line"/>
      <point x="100" y="-114" type="line"/>
      <point x="150" y="29" type="line"/>
      <point x="78" y="82"/>
      <point x="78" y="185" type="qcurve"/>
      <point x="78" y="507" type="line"/>
      <point x="78" y="610"/>
      <point x="191" y="716"/>
      <point x="290" y="716" type="qcurve"/>
      <point x="340" y="716"/>
      <point x="383" y="700" type="qcurve"/>
    </contour>
    <contour>
      <point x="454" y="514" type="line"/>
      <point x="454" y="592"/>
      <point x="407" y="634" type="qcurve"/>
      <point x="204" y="49" type="line"/>
      <point x="239" y="32"/>
      <point x="288" y="32" type="qcurve"/>
      <point x="360" y="32"/>
      <point x="454" y="107"/>
      <point x="454" y="186" type="qcurve"/>
    </contour>
    <contour>
      <point x="123" y="514" type="qcurve"/>
      <point x="123" y="185" type="line"/>
      <point x="123" y="116"/>
      <point x="166" y="75" type="qcurve"/>
      <point x="369" y="658" type="line"/>
      <point x="334" y="673"/>
      <point x="288" y="673" type="qcurve"/>
      <point x="211" y="673"/>
      <point x="123" y="591"/>
    </contour>
  </outline>
</glyph>
<glyph name="Ugrave" format="1">
  <advance width="566"/>
  <unicode hex="00D9"/>
  <outline>
    <contour>
      <point x="74" y="701" type="line"/>
      <point x="119" y="701" type="line"/>
      <point x="119" y="180" type="line"/>
      <point x="119" y="110"/>
      <point x="217" y="34"/>
      <point x="353" y="34"/>
      <point x="450" y="110"/>
      <point x="450" y="180" type="qcurve"/>
      <point x="450" y="701" type="line"/>
      <point x="495" y="701" type="line"/>
      <point x="495" y="186" type="line"/>
      <point x="495" y="133"/>
      <point x="458" y="55"/>
      <point x="395" y="13"/>
      <point x="325" y="-7"/>
      <point x="245" y="-7"/>
      <point x="174" y="13"/>
      <point x="111" y="55"/>
      <point x="74" y="133"/>
      <point x="74" y="186" type="qcurve"/>
    </contour>
    <contour>
      <point x="249" y="850" type="qcurve"/>
      <point x="302" y="729" type="line"/>
      <point x="265" y="729" type="line"/>
      <point x="198" y="828" type="line"/>
      <point x="193" y="835"/>
      <point x="193" y="841" type="qcurve"/>
      <point x="193" y="870"/>
      <point x="223" y="870" type="qcurve"/>
      <point x="241" y="870"/>
    </contour>
  </outline>
</glyph>
<glyph name="Uacute" format="1">
  <advance width="566"/>
  <unicode hex="00DA"/>
  <outline>
    <contour>
      <point x="74" y="701" type="line"/>
      <point x="119" y="701" type="line"/>
      <point x="119" y="180" type="line"/>
      <point x="119" y="110"/>
      <point x="217" y="34"/>
      <point x="353" y="34"/>
      <point x="450" y="110"/>
      <point x="450" y="180" type="qcurve"/>
      <point x="450" y="701" type="line"/>
      <point x="495" y="701" type="line"/>
      <point x="495" y="186" type="line"/>
      <point x="495" y="133"/>
      <point x="458" y="55"/>
      <point x="395" y="13"/>
      <point x="325" y="-7"/>
      <point x="245" y="-7"/>
      <point x="174" y="13"/>
      <point x="111" y="55"/>
      <point x="74" y="133"/>
      <point x="74" y="186" type="qcurve"/>
    </contour>
    <contour>
      <point x="262" y="731" type="line"/>
      <point x="314" y="852" type="line"/>
      <point x="323" y="872"/>
      <point x="340" y="872" type="qcurve"/>
      <point x="364" y="872"/>
      <point x="370" y="852" type="qcurve"/>
      <point x="371" y="848"/>
      <point x="371" y="836"/>
      <point x="366" y="829" type="qcurve"/>
      <point x="298" y="731" type="line"/>
    </contour>
  </outline>
</glyph>
<glyph name="Ucircumflex" format="1">
  <advance width="566"/>
  <unicode hex="00DB"/>
  <outline>
    <contour>
      <point x="74" y="701" type="line"/>
      <point x="119" y="701" type="line"/>
      <point x="119" y="180" type="line"/>
      <point x="119" y="110"/>
      <point x="217" y="34"/>
      <point x="353" y="34"/>
      <point x="450" y="110"/>
      <point x="450" y="180" type="qcurve"/>
      <point x="450" y="701" type="line"/>
      <point x="495" y="701" type="line"/>
      <point x="495" y="186" type="line"/>
      <point x="495" y="133"/>
      <point x="458" y="55"/>
      <point x="395" y="13"/>
      <point x="325" y="-7"/>
      <point x="245" y="-7"/>
      <point x="174" y="13"/>
      <point x="111" y="55"/>
      <point x="74" y="133"/>
      <point x="74" y="186" type="qcurve"/>
    </contour>
    <contour>
      <point x="144" y="772" type="line"/>
      <point x="292" y="913" type="line"/>
      <point x="434" y="772" type="line"/>
      <point x="402" y="740" type="line"/>
      <point x="291" y="851" type="line"/>
      <point x="175" y="740" type="line"/>
    </contour>
  </outline>
</glyph>
<glyph name="Udieresis" format="1">
  <advance width="566"/>
  <unicode hex="00DC"/>
  <outline>
    <contour>
      <point x="74" y="701" type="line"/>
      <point x="119" y="701" type="line"/>
      <point x="119" y="180" type="line"/>
      <point x="119" y="110"/>
      <point x="217" y="34"/>
      <point x="353" y="34"/>
      <point x="450" y="110"/>
      <point x="450" y="180" type="qcurve"/>
      <point x="450" y="701" type="line"/>
      <point x="495" y="701" type="line"/>
      <point x="495" y="186" type="line"/>
      <point x="495" y="133"/>
      <point x="458" y="55"/>
      <point x="395" y="13"/>
      <point x="325" y="-7"/>
      <point x="245" y="-7"/>
      <point x="174" y="13"/>
      <point x="111" y="55"/>
      <point x="74" y="133"/>
      <point x="74" y="186" type="qcurve"/>
    </contour>
    <contour>
      <point x="182" y="825" type="qcurve"/>
      <point x="191" y="834"/>
      <point x="213" y="834"/>
      <point x="230" y="817"/>
      <point x="230" y="795"/>
      <point x="213" y="779"/>
      <point x="191" y="779"/>
      <point x="174" y="795"/>
      <point x="174" y="817"/>
    </contour>
    <contour>
      <point x="341" y="826" type="qcurve"/>
      <point x="349" y="834"/>
      <point x="371" y="834"/>
      <point x="388" y="818"/>
      <point x="388" y="796"/>
      <point x="371" y="779"/>
      <point x="349" y="779"/>
      <point x="333" y="796"/>
      <point x="333" y="818"/>
    </contour>
  </outline>
</glyph>
<glyph name="Yacute" format="1">
  <advance width="556"/>
  <unicode hex="00DD"/>
  <outline>
    <contour>
      <point x="60" y="700" type="line"/>
      <point x="105" y="700" type="line"/>
      <point x="105" y="447" type="line"/>
      <point x="105" y="371"/>
      <point x="203" y="289"/>
      <point x="354" y="289"/>
      <point x="448" y="348"/>
      <point x="458" y="401" type="qcurve"/>
      <point x="458" y="700" type="line"/>
      <point x="504" y="700" type="line"/>
      <point x="504" y="153" type="line"/>
      <point x="504" y="11"/>
      <point x="399" y="-7" type="qcurve"/>
      <point x="388" y="24" type="line"/>
      <point x="438" y="43"/>
      <point x="452" y="92" type="qcurve"/>
      <point x="458" y="117"/>
      <point x="458" y="152" type="qcurve"/>
      <point x="458" y="308" type="line"/>
      <point x="431" y="276"/>
      <point x="333" y="245"/>
      <point x="289" y="245" type="qcurve"/>
      <point x="183" y="245"/>
      <point x="60" y="350"/>
      <point x="60" y="453" type="qcurve"/>
    </contour>
    <contour>
      <point x="262" y="731" type="line"/>
      <point x="314" y="852" type="line"/>
      <point x="323" y="872"/>
      <point x="340" y="872" type="qcurve"/>
      <point x="364" y="872"/>
      <point x="370" y="852" type="qcurve"/>
      <point x="371" y="848"/>
      <point x="371" y="836"/>
      <point x="366" y="829" type="qcurve"/>
      <point x="298" y="731" type="line"/>
    </contour>
  </outline>
</glyph>
<glyph name="germandbls" format="1">
  <advance width="512"/>
  <unicode hex="00DF"/>
  <outline>
    <contour>
      <point x="212" y="657" type="qcurve"/>
      <point x="124" y="657"/>
      <point x="124" y="541" type="qcurve"/>
      <point x="124" y="0" type="line"/>
      <point x="78" y="0" type="line"/>
      <point x="78" y="537" type="line"/>
      <point x="78" y="701"/>
      <point x="215" y="701" type="qcurve"/>
      <point x="275" y="701"/>
      <point x="337" y="619"/>
      <point x="337" y="575" type="qcurve"/>
      <point x="337" y="509"/>
      <point x="290" y="481" type="qcurve"/>
      <point x="265" y="481" type="line"/>
      <point x="247" y="450"/>
      <point x="262" y="420" type="qcurve"/>
      <point x="277" y="393"/>
      <point x="324" y="350"/>
      <point x="340" y="338" type="qcurve"/>
      <point x="391" y="296"/>
      <point x="409" y="278" type="qcurve"/>
      <point x="477" y="211"/>
      <point x="477" y="139" type="qcurve"/>
      <point x="477" y="107"/>
      <point x="463" y="73" type="qcurve"/>
      <point x="442" y="22"/>
      <point x="386" y="2" type="qcurve"/>
      <point x="350" y="-11"/>
      <point x="321" y="-11" type="qcurve"/>
      <point x="229" y="-11"/>
      <point x="172" y="37" type="qcurve"/>
      <point x="196" y="76" type="line"/>
      <point x="225" y="49"/>
      <point x="271" y="38" type="qcurve"/>
      <point x="292" y="33"/>
      <point x="336" y="33"/>
      <point x="360" y="40" type="qcurve"/>
      <point x="402" y="54"/>
      <point x="418" y="90" type="qcurve"/>
      <point x="430" y="117"/>
      <point x="430" y="143" type="qcurve"/>
      <point x="430" y="197"/>
      <point x="377" y="248" type="qcurve"/>
      <point x="352" y="272"/>
      <point x="310" y="306" type="qcurve"/>
      <point x="237" y="365"/>
      <point x="219" y="405" type="qcurve"/>
      <point x="211" y="423"/>
      <point x="211" y="477"/>
      <point x="228" y="507" type="qcurve"/>
      <point x="229" y="507"/>
      <point x="230" y="507" type="qcurve"/>
      <point x="273" y="507"/>
      <point x="288" y="544" type="qcurve"/>
      <point x="293" y="558"/>
      <point x="293" y="596"/>
      <point x="280" y="619" type="qcurve"/>
      <point x="258" y="657"/>
      <point x="215" y="657" type="qcurve"/>
      <point x="214" y="657"/>
    </contour>
  </outline>
</glyph>
<glyph name="aacute" format="1">
  <advance width="498"/>
  <unicode hex="00E1"/>
  <outline>
    <contour>
      <point x="297" y="-10" type="qcurve"/>
      <point x="78" y="-10"/>
      <point x="78" y="169" type="qcurve"/>
      <point x="78" y="252" type="line"/>
      <point x="78" y="351"/>
      <point x="148" y="385" type="qcurve"/>
      <point x="184" y="402"/>
      <point x="221" y="402" type="qcurve"/>
      <point x="343" y="402"/>
      <point x="418" y="346" type="qcurve"/>
      <point x="418" y="403"/>
      <point x="349" y="473"/>
      <point x="257" y="473" type="qcurve"/>
      <point x="255" y="473"/>
      <point x="252" y="473" type="qcurve"/>
      <point x="255" y="509" type="line"/>
      <point x="336" y="509"/>
      <point x="375" y="490" type="qcurve"/>
      <point x="396" y="479"/>
      <point x="428" y="457"/>
      <point x="446" y="421"/>
      <point x="458" y="394"/>
      <point x="460" y="371" type="qcurve"/>
      <point x="463" y="336"/>
      <point x="463" y="298" type="qcurve"/>
      <point x="463" y="0" type="line"/>
      <point x="359" y="-10"/>
    </contour>
    <contour>
      <point x="122" y="249" type="qcurve"/>
      <point x="122" y="162" type="line"/>
      <point x="122" y="114"/>
      <point x="169" y="52"/>
      <point x="210" y="42" type="qcurve"/>
      <point x="257" y="29"/>
      <point x="366" y="29"/>
      <point x="418" y="38" type="qcurve"/>
      <point x="418" y="309" type="line"/>
      <point x="335" y="355"/>
      <point x="237" y="361" type="qcurve"/>
      <point x="232" y="361"/>
      <point x="228" y="361" type="qcurve"/>
      <point x="185" y="361"/>
      <point x="122" y="308"/>
    </contour>
    <contour>
      <point x="258" y="538" type="line"/>
      <point x="310" y="659" type="line"/>
      <point x="319" y="679"/>
      <point x="336" y="679" type="qcurve"/>
      <point x="360" y="679"/>
      <point x="366" y="660" type="qcurve"/>
      <point x="367" y="655"/>
      <point x="367" y="643"/>
      <point x="362" y="636" type="qcurve"/>
      <point x="294" y="538" type="line"/>
    </contour>
  </outline>
</glyph>
<glyph name="atilde" format="1">
  <advance width="498"/>
  <unicode hex="00E3"/>
  <outline>
    <contour>
      <point x="297" y="-10" type="qcurve"/>
      <point x="78" y="-10"/>
      <point x="78" y="169" type="qcurve"/>
      <point x="78" y="252" type="line"/>
      <point x="78" y="351"/>
      <point x="148" y="385" type="qcurve"/>
      <point x="184" y="402"/>
      <point x="221" y="402" type="qcurve"/>
      <point x="343" y="402"/>
      <point x="418" y="346" type="qcurve"/>
      <point x="418" y="403"/>
      <point x="349" y="473"/>
      <point x="257" y="473" type="qcurve"/>
      <point x="255" y="473"/>
      <point x="252" y="473" type="qcurve"/>
      <point x="255" y="509" type="line"/>
      <point x="336" y="509"/>
      <point x="375" y="490" type="qcurve"/>
      <point x="396" y="479"/>
      <point x="428" y="457"/>
      <point x="446" y="421"/>
      <point x="458" y="394"/>
      <point x="460" y="371" type="qcurve"/>
      <point x="463" y="336"/>
      <point x="463" y="298" type="qcurve"/>
      <point x="463" y="0" type="line"/>
      <point x="359" y="-10"/>
    </contour>
    <contour>
      <point x="122" y="249" type="qcurve"/>
      <point x="122" y="162" type="line"/>
      <point x="122" y="114"/>
      <point x="169" y="52"/>
      <point x="210" y="42" type="qcurve"/>
      <point x="257" y="29"/>
      <point x="366" y="29"/>
      <point x="418" y="38" type="qcurve"/>
      <point x="418" y="309" type="line"/>
      <point x="335" y="355"/>
      <point x="237" y="361" type="qcurve"/>
      <point x="232" y="361"/>
      <point x="228" y="361" type="qcurve"/>
      <point x="185" y="361"/>
      <point x="122" y="308"/>
    </contour>
    <contour>
      <point x="210" y="592" type="qcurve"/>
      <point x="168" y="592"/>
      <point x="133" y="554" type="qcurve"/>
      <point x="112" y="586" type="line"/>
      <point x="159" y="638"/>
      <point x="212" y="638" type="qcurve"/>
      <point x="236" y="638"/>
      <point x="304" y="607" type="qcurve"/>
      <point x="327" y="596"/>
      <point x="351" y="596" type="qcurve"/>
      <point x="391" y="596"/>
      <point x="422" y="630" type="qcurve"/>
      <point x="442" y="597" type="line"/>
      <point x="399" y="550"/>
      <point x="350" y="550" type="qcurve"/>
      <point x="330" y="550"/>
      <point x="283" y="570"/>
      <point x="234" y="592"/>
    </contour>
  </outline>
</glyph>
<glyph name="aring" format="1">
  <advance width="498"/>
  <unicode hex="00E5"/>
  <outline>
    <contour>
      <point x="297" y="-10" type="qcurve"/>
      <point x="78" y="-10"/>
      <point x="78" y="169" type="qcurve"/>
      <point x="78" y="252" type="line"/>
      <point x="78" y="351"/>
      <point x="148" y="385" type="qcurve"/>
      <point x="184" y="402"/>
      <point x="221" y="402" type="qcurve"/>
      <point x="343" y="402"/>
      <point x="418" y="346" type="qcurve"/>
      <point x="418" y="403"/>
      <point x="349" y="473"/>
      <point x="257" y="473" type="qcurve"/>
      <point x="255" y="473"/>
      <point x="252" y="473" type="qcurve"/>
      <point x="208" y="477"/>
      <point x="148" y="542"/>
      <point x="148" y="632"/>
      <point x="214" y="699"/>
      <point x="308" y="699"/>
      <point x="374" y="632"/>
      <point x="374" y="535"/>
      <point x="335" y="501" type="qcurve"/>
      <point x="372" y="493"/>
      <point x="423" y="459"/>
      <point x="448" y="425"/>
      <point x="454" y="396" type="qcurve"/>
      <point x="463" y="357"/>
      <point x="463" y="298" type="qcurve"/>
      <point x="463" y="0" type="line"/>
      <point x="359" y="-10"/>
    </contour>
    <contour>
      <point x="122" y="249" type="qcurve"/>
      <point x="122" y="162" type="line"/>
      <point x="122" y="114"/>
      <point x="169" y="52"/>
      <point x="210" y="42" type="qcurve"/>
      <point x="257" y="29"/>
      <point x="366" y="29"/>
      <point x="418" y="38" type="qcurve"/>
      <point x="418" y="309" type="line"/>
      <point x="335" y="355"/>
      <point x="237" y="361" type="qcurve"/>
      <point x="232" y="361"/>
      <point x="228" y="361" type="qcurve"/>
      <point x="185" y="361"/>
      <point x="122" y="308"/>
    </contour>
    <contour>
      <point x="208" y="639" type="qcurve"/>
      <point x="186" y="618"/>
      <point x="186" y="554"/>
      <point x="230" y="511"/>
      <point x="292" y="511"/>
      <point x="336" y="554"/>
      <point x="336" y="618"/>
      <point x="292" y="661"/>
      <point x="230" y="661"/>
    </contour>
  </outline>
</glyph>
<glyph name="ae" format="1">
  <advance width="814"/>
  <unicode hex="00E6"/>
  <outline>
    <contour>
      <point x="297" y="-10" type="qcurve"/>
      <point x="78" y="-10"/>
      <point x="78" y="169" type="qcurve"/>
      <point x="78" y="252" type="line"/>
      <point x="78" y="351"/>
      <point x="148" y="385" type="qcurve"/>
      <point x="184" y="402"/>
      <point x="221" y="402" type="qcurve"/>
      <point x="343" y="402"/>
      <point x="418" y="346" type="qcurve"/>
      <point x="418" y="403"/>
      <point x="349" y="473"/>
      <point x="257" y="473" type="qcurve"/>
      <point x="255" y="473"/>
      <point x="252" y="473" type="qcurve"/>
      <point x="255" y="509" type="line"/>
      <point x="400" y="509"/>
      <point x="442" y="431" type="qcurve"/>
      <point x="488" y="510"/>
      <point x="603" y="510" type="qcurve"/>
      <point x="686" y="510"/>
      <point x="779" y="421"/>
      <point x="779" y="342" type="qcurve"/>
      <point x="779" y="222" type="line"/>
      <point x="464" y="205" type="line"/>
      <point x="464" y="133" type="line"/>
      <point x="464" y="76"/>
      <point x="538" y="27"/>
      <point x="585" y="27" type="qcurve"/>
      <point x="657" y="27"/>
      <point x="736" y="70" type="qcurve"/>
      <point x="754" y="35" type="line"/>
      <point x="677" y="-12"/>
      <point x="504" y="-12"/>
      <point x="463" y="24" type="qcurve"/>
      <point x="463" y="0" type="line"/>
      <point x="359" y="-10"/>
    </contour>
    <contour>
      <point x="122" y="249" type="qcurve"/>
      <point x="122" y="162" type="line"/>
      <point x="122" y="114"/>
      <point x="169" y="52"/>
      <point x="210" y="42" type="qcurve"/>
      <point x="257" y="29"/>
      <point x="366" y="29"/>
      <point x="418" y="38" type="qcurve"/>
      <point x="418" y="309" type="line"/>
      <point x="335" y="355"/>
      <point x="237" y="361" type="qcurve"/>
      <point x="232" y="361"/>
      <point x="228" y="361" type="qcurve"/>
      <point x="185" y="361"/>
      <point x="122" y="308"/>
    </contour>
    <contour>
      <point x="464" y="339" type="qcurve"/>
      <point x="464" y="249" type="line"/>
      <point x="734" y="263" type="line"/>
      <point x="734" y="347" type="line"/>
      <point x="734" y="414"/>
      <point x="652" y="471"/>
      <point x="543" y="471"/>
      <point x="464" y="407"/>
    </contour>
  </outline>
</glyph>
<glyph name="ccedilla" format="1">
  <advance width="383"/>
  <unicode hex="00E7"/>
  <outline>
    <contour>
      <point x="343" y="443" type="line"/>
      <point x="285" y="469"/>
      <point x="195" y="469"/>
      <point x="128" y="446"/>
      <point x="81" y="371"/>
      <point x="81" y="314" type="qcurve"/>
      <point x="81" y="169" type="line"/>
      <point x="81" y="29"/>
      <point x="241" y="29" type="qcurve"/>
      <point x="290" y="29"/>
      <point x="348" y="43" type="qcurve"/>
      <point x="358" y="6" type="line"/>
      <point x="297" y="-10"/>
      <point x="224" y="-10"/>
      <point x="208" y="-9" type="qcurve"/>
      <point x="175" y="-55" type="line"/>
      <point x="189" y="-47"/>
      <point x="248" y="-47"/>
      <point x="299" y="-84"/>
      <point x="299" y="-169"/>
      <point x="225" y="-210"/>
      <point x="135" y="-210"/>
      <point x="83" y="-191" type="qcurve"/>
      <point x="103" y="-148" type="line"/>
      <point x="138" y="-172"/>
      <point x="212" y="-172"/>
      <point x="257" y="-146"/>
      <point x="257" y="-94"/>
      <point x="232" y="-83" type="qcurve"/>
      <point x="220" y="-78"/>
      <point x="190" y="-78"/>
      <point x="169" y="-86" type="qcurve"/>
      <point x="133" y="-101" type="line"/>
      <point x="119" y="-78" type="line"/>
      <point x="176" y="-5" type="line"/>
      <point x="158" y="-2"/>
      <point x="148" y="2" type="qcurve"/>
      <point x="89" y="22"/>
      <point x="36" y="105"/>
      <point x="36" y="180" type="qcurve"/>
      <point x="36" y="308" type="line"/>
      <point x="36" y="379"/>
      <point x="64" y="427" type="qcurve"/>
      <point x="112" y="510"/>
      <point x="222" y="510" type="qcurve"/>
      <point x="288" y="510"/>
      <point x="356" y="478" type="qcurve"/>
    </contour>
  </outline>
</glyph>
<glyph name="egrave" format="1">
  <advance width="473"/>
  <unicode hex="00E8"/>
  <outline>
    <contour>
      <point x="413" y="35" type="line"/>
      <point x="336" y="-12"/>
      <point x="252" y="-12" type="qcurve"/>
      <point x="78" y="-12"/>
      <point x="78" y="134" type="qcurve"/>
      <point x="78" y="339" type="line"/>
      <point x="78" y="420"/>
      <point x="179" y="510"/>
      <point x="345" y="510"/>
      <point x="438" y="421"/>
      <point x="438" y="342" type="qcurve"/>
      <point x="438" y="222" type="line"/>
      <point x="123" y="205" type="line"/>
      <point x="123" y="133" type="line"/>
      <point x="123" y="76"/>
      <point x="197" y="27"/>
      <point x="244" y="27" type="qcurve"/>
      <point x="316" y="27"/>
      <point x="395" y="70" type="qcurve"/>
    </contour>
    <contour>
      <point x="123" y="339" type="qcurve"/>
      <point x="123" y="249" type="line"/>
      <point x="393" y="263" type="line"/>
      <point x="393" y="347" type="line"/>
      <point x="393" y="414"/>
      <point x="311" y="471"/>
      <point x="202" y="471"/>
      <point x="123" y="407"/>
    </contour>
    <contour>
      <point x="232" y="658" type="qcurve"/>
      <point x="285" y="537" type="line"/>
      <point x="248" y="537" type="line"/>
      <point x="181" y="636" type="line"/>
      <point x="176" y="643"/>
      <point x="176" y="649" type="qcurve"/>
      <point x="176" y="678"/>
      <point x="206" y="678" type="qcurve"/>
      <point x="224" y="678"/>
    </contour>
  </outline>
</glyph>
<glyph name="eacute" format="1">
  <advance width="473"/>
  <unicode hex="00E9"/>
  <outline>
    <contour>
      <point x="413" y="35" type="line"/>
      <point x="336" y="-12"/>
      <point x="252" y="-12" type="qcurve"/>
      <point x="78" y="-12"/>
      <point x="78" y="134" type="qcurve"/>
      <point x="78" y="339" type="line"/>
      <point x="78" y="420"/>
      <point x="179" y="510"/>
      <point x="345" y="510"/>
      <point x="438" y="421"/>
      <point x="438" y="342" type="qcurve"/>
      <point x="438" y="222" type="line"/>
      <point x="123" y="205" type="line"/>
      <point x="123" y="133" type="line"/>
      <point x="123" y="76"/>
      <point x="197" y="27"/>
      <point x="244" y="27" type="qcurve"/>
      <point x="316" y="27"/>
      <point x="395" y="70" type="qcurve"/>
    </contour>
    <contour>
      <point x="123" y="339" type="qcurve"/>
      <point x="123" y="249" type="line"/>
      <point x="393" y="263" type="line"/>
      <point x="393" y="347" type="line"/>
      <point x="393" y="414"/>
      <point x="311" y="471"/>
      <point x="202" y="471"/>
      <point x="123" y="407"/>
    </contour>
    <contour>
      <point x="240" y="538" type="line"/>
      <point x="292" y="659" type="line"/>
      <point x="301" y="679"/>
      <point x="318" y="679" type="qcurve"/>
      <point x="342" y="679"/>
      <point x="348" y="660" type="qcurve"/>
      <point x="349" y="655"/>
      <point x="349" y="643"/>
      <point x="344" y="636" type="qcurve"/>
      <point x="276" y="538" type="line"/>
    </contour>
  </outline>
</glyph>
<glyph name="ecircumflex" format="1">
  <advance width="482"/>
  <unicode hex="00EA"/>
  <outline>
    <contour>
      <point x="413" y="35" type="line"/>
      <point x="336" y="-12"/>
      <point x="252" y="-12" type="qcurve"/>
      <point x="78" y="-12"/>
      <point x="78" y="134" type="qcurve"/>
      <point x="78" y="339" type="line"/>
      <point x="78" y="420"/>
      <point x="179" y="510"/>
      <point x="345" y="510"/>
      <point x="438" y="421"/>
      <point x="438" y="342" type="qcurve"/>
      <point x="438" y="222" type="line"/>
      <point x="123" y="205" type="line"/>
      <point x="123" y="133" type="line"/>
      <point x="123" y="76"/>
      <point x="197" y="27"/>
      <point x="244" y="27" type="qcurve"/>
      <point x="316" y="27"/>
      <point x="395" y="70" type="qcurve"/>
    </contour>
    <contour>
      <point x="123" y="339" type="qcurve"/>
      <point x="123" y="249" type="line"/>
      <point x="393" y="263" type="line"/>
      <point x="393" y="347" type="line"/>
      <point x="393" y="414"/>
      <point x="311" y="471"/>
      <point x="202" y="471"/>
      <point x="123" y="407"/>
    </contour>
    <contour>
      <point x="107" y="579" type="line"/>
      <point x="255" y="720" type="line"/>
      <point x="397" y="579" type="line"/>
      <point x="365" y="547" type="line"/>
      <point x="254" y="658" type="line"/>
      <point x="138" y="547" type="line"/>
    </contour>
  </outline>
</glyph>
<glyph name="edieresis" format="1">
  <advance width="450"/>
  <unicode hex="00EB"/>
  <outline>
    <contour>
      <point x="370" y="35" type="line"/>
      <point x="293" y="-12"/>
      <point x="209" y="-12" type="qcurve"/>
      <point x="35" y="-12"/>
      <point x="35" y="134" type="qcurve"/>
      <point x="35" y="339" type="line"/>
      <point x="35" y="420"/>
      <point x="136" y="510"/>
      <point x="302" y="510"/>
      <point x="395" y="421"/>
      <point x="395" y="342" type="qcurve"/>
      <point x="395" y="222" type="line"/>
      <point x="80" y="205" type="line"/>
      <point x="80" y="133" type="line"/>
      <point x="80" y="76"/>
      <point x="154" y="27"/>
      <point x="201" y="27" type="qcurve"/>
      <point x="273" y="27"/>
      <point x="352" y="70" type="qcurve"/>
    </contour>
    <contour>
      <point x="80" y="339" type="qcurve"/>
      <point x="80" y="249" type="line"/>
      <point x="350" y="263" type="line"/>
      <point x="350" y="347" type="line"/>
      <point x="350" y="414"/>
      <point x="268" y="471"/>
      <point x="159" y="471"/>
      <point x="80" y="407"/>
    </contour>
  </outline>
</glyph>
<glyph name="igrave" format="1">
  <advance width="231"/>
  <unicode hex="00EC"/>
  <outline>
    <contour>
      <point x="134" y="658" type="qcurve"/>
      <point x="187" y="537" type="line"/>
      <point x="150" y="537" type="line"/>
      <point x="83" y="636" type="line"/>
      <point x="78" y="643"/>
      <point x="78" y="649" type="qcurve"/>
      <point x="78" y="678"/>
      <point x="108" y="678" type="qcurve"/>
      <point x="126" y="678"/>
    </contour>
    <contour>
      <point x="150" y="501" type="line"/>
      <point x="195" y="501" type="line"/>
      <point x="195" y="0" type="line"/>
      <point x="150" y="0" type="line"/>
    </contour>
  </outline>
</glyph>
<glyph name="iacute" format="1">
  <advance width="227"/>
  <unicode hex="00ED"/>
  <outline>
    <contour>
      <point x="84" y="538" type="line"/>
      <point x="136" y="659" type="line"/>
      <point x="145" y="679"/>
      <point x="162" y="679" type="qcurve"/>
      <point x="186" y="679"/>
      <point x="192" y="660" type="qcurve"/>
      <point x="193" y="655"/>
      <point x="193" y="643"/>
      <point x="188" y="636" type="qcurve"/>
      <point x="120" y="538" type="line"/>
    </contour>
    <contour>
      <point x="81" y="501" type="line"/>
      <point x="126" y="501" type="line"/>
      <point x="126" y="0" type="line"/>
      <point x="81" y="0" type="line"/>
    </contour>
  </outline>
</glyph>
<glyph name="icircumflex" format="1">
  <advance width="159"/>
  <unicode hex="00EE"/>
  <outline>
    <contour>
      <point x="-60" y="579" type="line"/>
      <point x="88" y="720" type="line"/>
      <point x="230" y="579" type="line"/>
      <point x="198" y="547" type="line"/>
      <point x="87" y="658" type="line"/>
      <point x="-29" y="547" type="line"/>
    </contour>
    <contour>
      <point x="63" y="501" type="line"/>
      <point x="108" y="501" type="line"/>
      <point x="108" y="0" type="line"/>
      <point x="63" y="0" type="line"/>
    </contour>
  </outline>
</glyph>
<glyph name="idieresis" format="1">
  <advance width="142"/>
  <unicode hex="00EF"/>
  <outline>
    <contour>
      <point x="51" y="501" type="line"/>
      <point x="96" y="501" type="line"/>
      <point x="96" y="0" type="line"/>
      <point x="51" y="0" type="line"/>
    </contour>
    <contour>
      <point x="-24" y="595" type="qcurve"/>
      <point x="-16" y="604"/>
      <point x="6" y="604"/>
      <point x="23" y="587"/>
      <point x="23" y="565"/>
      <point x="6" y="549"/>
      <point x="-16" y="549"/>
      <point x="-33" y="565"/>
      <point x="-33" y="587"/>
    </contour>
    <contour>
      <point x="134" y="596" type="qcurve"/>
      <point x="142" y="604"/>
      <point x="164" y="604"/>
      <point x="181" y="588"/>
      <point x="181" y="566"/>
      <point x="164" y="549"/>
      <point x="142" y="549"/>
      <point x="126" y="566"/>
      <point x="126" y="588"/>
    </contour>
  </outline>
</glyph>
<glyph name="ntilde" format="1">
  <advance width="482"/>
  <unicode hex="00F1"/>
  <outline>
    <contour>
      <point x="264" y="468" type="qcurve"/>
      <point x="186" y="468"/>
      <point x="123" y="434" type="qcurve"/>
      <point x="123" y="0" type="line"/>
      <point x="78" y="0" type="line"/>
      <point x="78" y="501" type="line"/>
      <point x="123" y="501" type="line"/>
      <point x="123" y="474" type="line"/>
      <point x="179" y="509"/>
      <point x="266" y="509" type="qcurve"/>
      <point x="323" y="509"/>
      <point x="362" y="490" type="qcurve"/>
      <point x="447" y="451"/>
      <point x="447" y="346" type="qcurve"/>
      <point x="447" y="0" type="line"/>
      <point x="403" y="0" type="line"/>
      <point x="403" y="344" type="line"/>
      <point x="403" y="398"/>
      <point x="342" y="461"/>
      <point x="298" y="466" type="qcurve"/>
      <point x="281" y="468"/>
    </contour>
    <contour>
      <point x="190" y="592" type="qcurve"/>
      <point x="148" y="592"/>
      <point x="113" y="554" type="qcurve"/>
      <point x="92" y="586" type="line"/>
      <point x="139" y="638"/>
      <point x="192" y="638" type="qcurve"/>
      <point x="216" y="638"/>
      <point x="284" y="607" type="qcurve"/>
      <point x="307" y="596"/>
      <point x="331" y="596" type="qcurve"/>
      <point x="371" y="596"/>
      <point x="402" y="630" type="qcurve"/>
      <point x="422" y="597" type="line"/>
      <point x="379" y="550"/>
      <point x="330" y="550" type="qcurve"/>
      <point x="310" y="550"/>
      <point x="263" y="570"/>
      <point x="214" y="592"/>
    </contour>
  </outline>
</glyph>
<glyph name="ograve" format="1">
  <advance width="486"/>
  <unicode hex="00F2"/>
  <outline>
    <contour>
      <point x="78" y="184" type="qcurve"/>
      <point x="78" y="316" type="line"/>
      <point x="78" y="411"/>
      <point x="175" y="512"/>
      <point x="353" y="512"/>
      <point x="451" y="407"/>
      <point x="451" y="316" type="qcurve"/>
      <point x="451" y="184" type="line"/>
      <point x="451" y="100"/>
      <point x="359" y="-10"/>
      <point x="173" y="-10"/>
      <point x="78" y="101"/>
    </contour>
    <contour>
      <point x="123" y="317" type="qcurve"/>
      <point x="123" y="177" type="line"/>
      <point x="123" y="113"/>
      <point x="198" y="30"/>
      <point x="334" y="30"/>
      <point x="406" y="112"/>
      <point x="406" y="177" type="qcurve"/>
      <point x="406" y="317" type="line"/>
      <point x="406" y="395"/>
      <point x="329" y="471"/>
      <point x="201" y="471"/>
      <point x="123" y="396"/>
    </contour>
    <contour>
      <point x="231" y="658" type="qcurve"/>
      <point x="284" y="537" type="line"/>
      <point x="247" y="537" type="line"/>
      <point x="180" y="636" type="line"/>
      <point x="175" y="643"/>
      <point x="175" y="649" type="qcurve"/>
      <point x="175" y="678"/>
      <point x="205" y="678" type="qcurve"/>
      <point x="223" y="678"/>
    </contour>
  </outline>
</glyph>
<glyph name="oacute" format="1">
  <advance width="486"/>
  <unicode hex="00F3"/>
  <outline>
    <contour>
      <point x="78" y="184" type="qcurve"/>
      <point x="78" y="316" type="line"/>
      <point x="78" y="411"/>
      <point x="175" y="512"/>
      <point x="353" y="512"/>
      <point x="451" y="407"/>
      <point x="451" y="316" type="qcurve"/>
      <point x="451" y="184" type="line"/>
      <point x="451" y="100"/>
      <point x="359" y="-10"/>
      <point x="173" y="-10"/>
      <point x="78" y="101"/>
    </contour>
    <contour>
      <point x="123" y="317" type="qcurve"/>
      <point x="123" y="177" type="line"/>
      <point x="123" y="113"/>
      <point x="198" y="30"/>
      <point x="334" y="30"/>
      <point x="406" y="112"/>
      <point x="406" y="177" type="qcurve"/>
      <point x="406" y="317" type="line"/>
      <point x="406" y="395"/>
      <point x="329" y="471"/>
      <point x="201" y="471"/>
      <point x="123" y="396"/>
    </contour>
    <contour>
      <point x="239" y="538" type="line"/>
      <point x="291" y="659" type="line"/>
      <point x="300" y="679"/>
      <point x="317" y="679" type="qcurve"/>
      <point x="341" y="679"/>
      <point x="346" y="660" type="qcurve"/>
      <point x="348" y="655"/>
      <point x="348" y="643"/>
      <point x="343" y="636" type="qcurve"/>
      <point x="275" y="538" type="line"/>
    </contour>
  </outline>
</glyph>
<glyph name="otilde" format="1">
  <advance width="486"/>
  <unicode hex="00F5"/>
  <outline>
    <contour>
      <point x="78" y="184" type="qcurve"/>
      <point x="78" y="316" type="line"/>
      <point x="78" y="411"/>
      <point x="175" y="512"/>
      <point x="353" y="512"/>
      <point x="451" y="407"/>
      <point x="451" y="316" type="qcurve"/>
      <point x="451" y="184" type="line"/>
      <point x="451" y="100"/>
      <point x="359" y="-10"/>
      <point x="173" y="-10"/>
      <point x="78" y="101"/>
    </contour>
    <contour>
      <point x="123" y="317" type="qcurve"/>
      <point x="123" y="177" type="line"/>
      <point x="123" y="113"/>
      <point x="198" y="30"/>
      <point x="334" y="30"/>
      <point x="406" y="112"/>
      <point x="406" y="177" type="qcurve"/>
      <point x="406" y="317" type="line"/>
      <point x="406" y="395"/>
      <point x="329" y="471"/>
      <point x="201" y="471"/>
      <point x="123" y="396"/>
    </contour>
    <contour>
      <point x="199" y="592" type="qcurve"/>
      <point x="157" y="592"/>
      <point x="122" y="554" type="qcurve"/>
      <point x="101" y="586" type="line"/>
      <point x="148" y="638"/>
      <point x="201" y="638" type="qcurve"/>
      <point x="225" y="638"/>
      <point x="292" y="607" type="qcurve"/>
      <point x="316" y="596"/>
      <point x="340" y="596" type="qcurve"/>
      <point x="380" y="596"/>
      <point x="411" y="630" type="qcurve"/>
      <point x="431" y="597" type="line"/>
      <point x="388" y="550"/>
      <point x="339" y="550" type="qcurve"/>
      <point x="318" y="550"/>
      <point x="272" y="570"/>
      <point x="223" y="592"/>
    </contour>
  </outline>
</glyph>
<glyph name="odieresis" format="1">
  <advance width="486"/>
  <unicode hex="00F6"/>
  <outline>
    <contour>
      <point x="78" y="184" type="qcurve"/>
      <point x="78" y="316" type="line"/>
      <point x="78" y="411"/>
      <point x="175" y="512"/>
      <point x="353" y="512"/>
      <point x="451" y="407"/>
      <point x="451" y="316" type="qcurve"/>
      <point x="451" y="184" type="line"/>
      <point x="451" y="100"/>
      <point x="359" y="-10"/>
      <point x="173" y="-10"/>
      <point x="78" y="101"/>
    </contour>
    <contour>
      <point x="123" y="317" type="qcurve"/>
      <point x="123" y="177" type="line"/>
      <point x="123" y="113"/>
      <point x="198" y="30"/>
      <point x="334" y="30"/>
      <point x="406" y="112"/>
      <point x="406" y="177" type="qcurve"/>
      <point x="406" y="317" type="line"/>
      <point x="406" y="395"/>
      <point x="329" y="471"/>
      <point x="201" y="471"/>
      <point x="123" y="396"/>
    </contour>
    <contour>
      <point x="168" y="595" type="qcurve"/>
      <point x="177" y="604"/>
      <point x="199" y="604"/>
      <point x="216" y="587"/>
      <point x="216" y="565"/>
      <point x="199" y="549"/>
      <point x="177" y="549"/>
      <point x="160" y="565"/>
      <point x="160" y="587"/>
    </contour>
    <contour>
      <point x="327" y="596" type="qcurve"/>
      <point x="335" y="604"/>
      <point x="357" y="604"/>
      <point x="374" y="588"/>
      <point x="374" y="566"/>
      <point x="357" y="549"/>
      <point x="335" y="549"/>
      <point x="319" y="566"/>
      <point x="319" y="588"/>
    </contour>
  </outline>
</glyph>
<glyph name="divide" format="1">
  <advance width="432"/>
  <unicode hex="00F7"/>
  <outline>
    <contour>
      <point x="78" y="408" type="line"/>
      <point x="397" y="408" type="line"/>
      <point x="397" y="364" type="line"/>
      <point x="78" y="364" type="line"/>
    </contour>
    <contour>
      <point x="221" y="280" type="qcurve"/>
      <point x="229" y="288"/>
      <point x="251" y="288"/>
      <point x="268" y="272"/>
      <point x="268" y="250"/>
      <point x="251" y="233"/>
      <point x="229" y="233"/>
      <point x="213" y="250"/>
      <point x="213" y="272"/>
    </contour>
    <contour>
      <point x="221" y="526" type="qcurve"/>
      <point x="229" y="534"/>
      <point x="251" y="534"/>
      <point x="268" y="518"/>
      <point x="268" y="496"/>
      <point x="251" y="479"/>
      <point x="229" y="479"/>
      <point x="213" y="496"/>
      <point x="213" y="518"/>
    </contour>
  </outline>
</glyph>
<glyph name="oslash" format="1">
  <advance width="495"/>
  <unicode hex="00F8"/>
  <outline>
    <contour>
      <point x="417" y="643" type="line"/>
      <point x="461" y="643" type="line"/>
      <point x="389" y="471" type="line"/>
      <point x="451" y="418"/>
      <point x="451" y="316" type="qcurve"/>
      <point x="451" y="184" type="line"/>
      <point x="451" y="100"/>
      <point x="359" y="-10"/>
      <point x="266" y="-10" type="qcurve"/>
      <point x="229" y="-10"/>
      <point x="196" y="0" type="qcurve"/>
      <point x="149" y="-114" type="line"/>
      <point x="102" y="-114" type="line"/>
      <point x="157" y="19" type="line"/>
      <point x="78" y="70"/>
      <point x="78" y="184" type="qcurve"/>
      <point x="78" y="316" type="line"/>
      <point x="78" y="411"/>
      <point x="175" y="512"/>
      <point x="266" y="512" type="qcurve"/>
      <point x="314" y="512"/>
      <point x="355" y="493" type="qcurve"/>
    </contour>
    <contour>
      <point x="123" y="317" type="qcurve"/>
      <point x="123" y="177" type="line"/>
      <point x="123" y="100"/>
      <point x="174" y="59" type="qcurve"/>
      <point x="338" y="454" type="line"/>
      <point x="306" y="471"/>
      <point x="266" y="471" type="qcurve"/>
      <point x="201" y="471"/>
      <point x="123" y="396"/>
    </contour>
    <contour>
      <point x="406" y="317" type="line"/>
      <point x="406" y="388"/>
      <point x="372" y="428" type="qcurve"/>
      <point x="211" y="38" type="line"/>
      <point x="237" y="30"/>
      <point x="266" y="30" type="qcurve"/>
      <point x="334" y="30"/>
      <point x="406" y="112"/>
      <point x="406" y="177" type="qcurve"/>
    </contour>
  </outline>
</glyph>
<glyph name="ugrave" format="1">
  <advance width="486"/>
  <unicode hex="00F9"/>
  <outline>
    <contour>
      <point x="78" y="501" type="line"/>
      <point x="123" y="501" type="line"/>
      <point x="123" y="168" type="line"/>
      <point x="123" y="30"/>
      <point x="266" y="30" type="qcurve"/>
      <point x="330" y="30"/>
      <point x="406" y="97"/>
      <point x="406" y="163" type="qcurve"/>
      <point x="406" y="501" type="line"/>
      <point x="451" y="501" type="line"/>
      <point x="451" y="0" type="line"/>
      <point x="407" y="0" type="line"/>
      <point x="410" y="59" type="line"/>
      <point x="359" y="-11"/>
      <point x="266" y="-11" type="qcurve"/>
      <point x="78" y="-11"/>
      <point x="78" y="173" type="qcurve"/>
    </contour>
    <contour>
      <point x="238" y="658" type="qcurve"/>
      <point x="291" y="537" type="line"/>
      <point x="254" y="537" type="line"/>
      <point x="187" y="636" type="line"/>
      <point x="182" y="643"/>
      <point x="182" y="649" type="qcurve"/>
      <point x="182" y="678"/>
      <point x="212" y="678" type="qcurve"/>
      <point x="230" y="678"/>
    </contour>
  </outline>
</glyph>
<glyph name="uacute" format="1">
  <advance width="486"/>
  <unicode hex="00FA"/>
  <outline>
    <contour>
      <point x="78" y="501" type="line"/>
      <point x="123" y="501" type="line"/>
      <point x="123" y="168" type="line"/>
      <point x="123" y="30"/>
      <point x="266" y="30" type="qcurve"/>
      <point x="330" y="30"/>
      <point x="406" y="97"/>
      <point x="406" y="163" type="qcurve"/>
      <point x="406" y="501" type="line"/>
      <point x="451" y="501" type="line"/>
      <point x="451" y="0" type="line"/>
      <point x="407" y="0" type="line"/>
      <point x="410" y="59" type="line"/>
      <point x="359" y="-11"/>
      <point x="266" y="-11" type="qcurve"/>
      <point x="78" y="-11"/>
      <point x="78" y="173" type="qcurve"/>
    </contour>
    <contour>
      <point x="239" y="538" type="line"/>
      <point x="291" y="659" type="line"/>
      <point x="300" y="679"/>
      <point x="317" y="679" type="qcurve"/>
      <point x="341" y="679"/>
      <point x="346" y="660" type="qcurve"/>
      <point x="348" y="655"/>
      <point x="348" y="643"/>
      <point x="343" y="636" type="qcurve"/>
      <point x="275" y="538" type="line"/>
    </contour>
  </outline>
</glyph>
<glyph name="ucircumflex" format="1">
  <advance width="486"/>
  <unicode hex="00FB"/>
  <outline>
    <contour>
      <point x="78" y="501" type="line"/>
      <point x="123" y="501" type="line"/>
      <point x="123" y="168" type="line"/>
      <point x="123" y="30"/>
      <point x="266" y="30" type="qcurve"/>
      <point x="330" y="30"/>
      <point x="406" y="97"/>
      <point x="406" y="163" type="qcurve"/>
      <point x="406" y="501" type="line"/>
      <point x="451" y="501" type="line"/>
      <point x="451" y="0" type="line"/>
      <point x="407" y="0" type="line"/>
      <point x="410" y="59" type="line"/>
      <point x="359" y="-11"/>
      <point x="266" y="-11" type="qcurve"/>
      <point x="78" y="-11"/>
      <point x="78" y="173" type="qcurve"/>
    </contour>
    <contour>
      <point x="122" y="579" type="line"/>
      <point x="270" y="720" type="line"/>
      <point x="412" y="579" type="line"/>
      <point x="380" y="547" type="line"/>
      <point x="269" y="658" type="line"/>
      <point x="153" y="547" type="line"/>
    </contour>
  </outline>
</glyph>
<glyph name="udieresis" format="1">
  <advance width="486"/>
  <unicode hex="00FC"/>
  <outline>
    <contour>
      <point x="78" y="501" type="line"/>
      <point x="123" y="501" type="line"/>
      <point x="123" y="168" type="line"/>
      <point x="123" y="30"/>
      <point x="266" y="30" type="qcurve"/>
      <point x="330" y="30"/>
      <point x="406" y="97"/>
      <point x="406" y="163" type="qcurve"/>
      <point x="406" y="501" type="line"/>
      <point x="451" y="501" type="line"/>
      <point x="451" y="0" type="line"/>
      <point x="407" y="0" type="line"/>
      <point x="410" y="59" type="line"/>
      <point x="359" y="-11"/>
      <point x="266" y="-11" type="qcurve"/>
      <point x="78" y="-11"/>
      <point x="78" y="173" type="qcurve"/>
    </contour>
    <contour>
      <point x="161" y="595" type="qcurve"/>
      <point x="170" y="604"/>
      <point x="192" y="604"/>
      <point x="209" y="587"/>
      <point x="209" y="565"/>
      <point x="192" y="549"/>
      <point x="170" y="549"/>
      <point x="153" y="565"/>
      <point x="153" y="587"/>
    </contour>
    <contour>
      <point x="320" y="596" type="qcurve"/>
      <point x="328" y="604"/>
      <point x="350" y="604"/>
      <point x="367" y="588"/>
      <point x="367" y="566"/>
      <point x="350" y="549"/>
      <point x="328" y="549"/>
      <point x="312" y="566"/>
      <point x="312" y="588"/>
    </contour>
  </outline>
</glyph>
<glyph name="yacute" format="1">
  <advance width="520"/>
  <unicode hex="00FD"/>
  <outline>
    <contour>
      <point x="78" y="501" type="line"/>
      <point x="121" y="501" type="line"/>
      <point x="121" y="166" type="line"/>
      <point x="121" y="100"/>
      <point x="194" y="29"/>
      <point x="327" y="29"/>
      <point x="409" y="100"/>
      <point x="409" y="166" type="qcurve"/>
      <point x="409" y="366" type="line"/>
      <point x="409" y="465"/>
      <point x="435" y="489" type="qcurve"/>
      <point x="449" y="502"/>
      <point x="472" y="510" type="qcurve"/>
      <point x="485" y="479" type="line"/>
      <point x="453" y="461"/>
      <point x="453" y="403" type="qcurve"/>
      <point x="453" y="-61" type="line"/>
      <point x="453" y="-122"/>
      <point x="405" y="-192"/>
      <point x="348" y="-210" type="qcurve"/>
      <point x="336" y="-175" type="line"/>
      <point x="410" y="-149"/>
      <point x="410" y="-63" type="qcurve"/>
      <point x="410" y="60" type="line"/>
      <point x="370" y="-12"/>
      <point x="261" y="-12" type="qcurve"/>
      <point x="173" y="-12"/>
      <point x="78" y="83"/>
      <point x="78" y="176" type="qcurve"/>
    </contour>
    <contour>
      <point x="236" y="538" type="line"/>
      <point x="288" y="659" type="line"/>
      <point x="297" y="679"/>
      <point x="314" y="679" type="qcurve"/>
      <point x="338" y="679"/>
      <point x="344" y="660" type="qcurve"/>
      <point x="345" y="655"/>
      <point x="345" y="643"/>
      <point x="340" y="636" type="qcurve"/>
      <point x="272" y="538" type="line"/>
    </contour>
  </outline>
</glyph>
<glyph name="thorn" format="1">
  <advance width="490"/>
  <unicode hex="00FE"/>
  <outline>
    <contour>
      <point x="78" y="644" type="line"/>
      <point x="123" y="644" type="line"/>
      <point x="123" y="441" type="line"/>
      <point x="177" y="509"/>
      <point x="358" y="509"/>
      <point x="455" y="400"/>
      <point x="455" y="221"/>
      <point x="351" y="116"/>
      <point x="269" y="116" type="qcurve"/>
      <point x="228" y="116"/>
      <point x="144" y="158"/>
      <point x="123" y="200" type="qcurve"/>
      <point x="123" y="0" type="line"/>
      <point x="78" y="0" type="line"/>
    </contour>
    <contour>
      <point x="123" y="325" type="qcurve"/>
      <point x="123" y="244"/>
      <point x="204" y="159"/>
      <point x="329" y="159"/>
      <point x="410" y="238"/>
      <point x="410" y="395"/>
      <point x="326" y="469"/>
      <point x="211" y="469"/>
      <point x="125" y="397"/>
    </contour>
  </outline>
</glyph>
<glyph name="ydieresis" format="1">
  <advance width="520"/>
  <unicode hex="00FF"/>
  <outline>
    <contour>
      <point x="78" y="501" type="line"/>
      <point x="121" y="501" type="line"/>
      <point x="121" y="166" type="line"/>
      <point x="121" y="100"/>
      <point x="194" y="29"/>
      <point x="327" y="29"/>
      <point x="409" y="100"/>
      <point x="409" y="166" type="qcurve"/>
      <point x="409" y="366" type="line"/>
      <point x="409" y="465"/>
      <point x="435" y="489" type="qcurve"/>
      <point x="449" y="502"/>
      <point x="472" y="510" type="qcurve"/>
      <point x="485" y="479" type="line"/>
      <point x="453" y="461"/>
      <point x="453" y="403" type="qcurve"/>
      <point x="453" y="-61" type="line"/>
      <point x="453" y="-122"/>
      <point x="405" y="-192"/>
      <point x="348" y="-210" type="qcurve"/>
      <point x="336" y="-175" type="line"/>
      <point x="410" y="-149"/>
      <point x="410" y="-63" type="qcurve"/>
      <point x="410" y="60" type="line"/>
      <point x="370" y="-12"/>
      <point x="261" y="-12" type="qcurve"/>
      <point x="173" y="-12"/>
      <point x="78" y="83"/>
      <point x="78" y="176" type="qcurve"/>
    </contour>
    <contour>
      <point x="172" y="595" type="qcurve"/>
      <point x="181" y="604"/>
      <point x="203" y="604"/>
      <point x="220" y="587"/>
      <point x="220" y="565"/>
      <point x="203" y="549"/>
      <point x="181" y="549"/>
      <point x="164" y="565"/>
      <point x="164" y="587"/>
    </contour>
    <contour>
      <point x="331" y="596" type="qcurve"/>
      <point x="339" y="604"/>
      <point x="361" y="604"/>
      <point x="378" y="588"/>
      <point x="378" y="566"/>
      <point x="361" y="549"/>
      <point x="339" y="549"/>
      <point x="323" y="566"/>
      <point x="323" y="588"/>
    </contour>
  </outline>
</glyph>
<glyph name="Amacron" format="1">
  <advance width="527"/>
  <unicode hex="0100"/>
  <outline>
    <contour>
      <point x="242" y="700" type="line"/>
      <point x="284" y="700" type="line"/>
      <point x="517" y="0" type="line"/>
      <point x="469" y="0" type="line"/>
      <point x="383" y="256" type="line"/>
      <point x="143" y="256" type="line"/>
      <point x="59" y="0" type="line"/>
      <point x="12" y="0" type="line"/>
    </contour>
    <contour>
      <point x="263" y="627" type="line"/>
      <point x="157" y="300" type="line"/>
      <point x="371" y="300" type="line"/>
    </contour>
    <contour>
      <point x="151" y="788" type="line"/>
      <point x="368" y="788" type="line"/>
      <point x="368" y="742" type="line"/>
      <point x="151" y="742" type="line"/>
    </contour>
  </outline>
</glyph>
<glyph name="Abreve" format="1">
  <advance width="527"/>
  <unicode hex="0102"/>
  <outline>
    <contour>
      <point x="242" y="700" type="line"/>
      <point x="284" y="700" type="line"/>
      <point x="517" y="0" type="line"/>
      <point x="469" y="0" type="line"/>
      <point x="383" y="256" type="line"/>
      <point x="143" y="256" type="line"/>
      <point x="59" y="0" type="line"/>
      <point x="12" y="0" type="line"/>
    </contour>
    <contour>
      <point x="263" y="627" type="line"/>
      <point x="157" y="300" type="line"/>
      <point x="371" y="300" type="line"/>
    </contour>
    <contour>
      <point x="152" y="848" type="line"/>
      <point x="190" y="848" type="line"/>
      <point x="190" y="843" type="line"/>
      <point x="190" y="813"/>
      <point x="232" y="767"/>
      <point x="297" y="767"/>
      <point x="340" y="813"/>
      <point x="340" y="843" type="qcurve"/>
      <point x="340" y="848" type="line"/>
      <point x="378" y="848" type="line"/>
      <point x="378" y="843" type="line"/>
      <point x="378" y="796"/>
      <point x="312" y="730"/>
      <point x="218" y="730"/>
      <point x="152" y="796"/>
      <point x="152" y="843" type="qcurve"/>
    </contour>
  </outline>
</glyph>
<glyph name="abreve" format="1">
  <advance width="498"/>
  <unicode hex="0103"/>
  <outline>
    <contour>
      <point x="297" y="-10" type="qcurve"/>
      <point x="78" y="-10"/>
      <point x="78" y="169" type="qcurve"/>
      <point x="78" y="252" type="line"/>
      <point x="78" y="351"/>
      <point x="148" y="385" type="qcurve"/>
      <point x="184" y="402"/>
      <point x="221" y="402" type="qcurve"/>
      <point x="343" y="402"/>
      <point x="418" y="346" type="qcurve"/>
      <point x="418" y="403"/>
      <point x="349" y="473"/>
      <point x="257" y="473" type="qcurve"/>
      <point x="255" y="473"/>
      <point x="252" y="473" type="qcurve"/>
      <point x="255" y="509" type="line"/>
      <point x="336" y="509"/>
      <point x="375" y="490" type="qcurve"/>
      <point x="396" y="479"/>
      <point x="428" y="457"/>
      <point x="446" y="421"/>
      <point x="458" y="394"/>
      <point x="460" y="371" type="qcurve"/>
      <point x="463" y="336"/>
      <point x="463" y="298" type="qcurve"/>
      <point x="463" y="0" type="line"/>
      <point x="359" y="-10"/>
    </contour>
    <contour>
      <point x="122" y="249" type="qcurve"/>
      <point x="122" y="162" type="line"/>
      <point x="122" y="114"/>
      <point x="169" y="52"/>
      <point x="210" y="42" type="qcurve"/>
      <point x="257" y="29"/>
      <point x="366" y="29"/>
      <point x="418" y="38" type="qcurve"/>
      <point x="418" y="309" type="line"/>
      <point x="335" y="355"/>
      <point x="237" y="361" type="qcurve"/>
      <point x="232" y="361"/>
      <point x="228" y="361" type="qcurve"/>
      <point x="185" y="361"/>
      <point x="122" y="308"/>
    </contour>
    <contour>
      <point x="196" y="656" type="line"/>
      <point x="234" y="656" type="line"/>
      <point x="234" y="651" type="line"/>
      <point x="234" y="621"/>
      <point x="276" y="575"/>
      <point x="341" y="575"/>
      <point x="384" y="621"/>
      <point x="384" y="651" type="qcurve"/>
      <point x="384" y="656" type="line"/>
      <point x="422" y="656" type="line"/>
      <point x="422" y="651" type="line"/>
      <point x="422" y="604"/>
      <point x="356" y="538"/>
      <point x="262" y="538"/>
      <point x="196" y="604"/>
      <point x="196" y="651" type="qcurve"/>
    </contour>
  </outline>
</glyph>
<glyph name="Aogonek" format="1">
  <advance width="662"/>
  <unicode hex="0104"/>
  <outline>
    <contour>
      <point x="582" y="0" type="line"/>
      <point x="479" y="-82"/>
      <point x="479" y="-129" type="qcurve"/>
      <point x="479" y="-147"/>
      <point x="505" y="-174"/>
      <point x="528" y="-174" type="qcurve"/>
      <point x="570" y="-174"/>
      <point x="596" y="-132" type="qcurve"/>
      <point x="627" y="-163" type="line"/>
      <point x="595" y="-213"/>
      <point x="530" y="-213" type="qcurve"/>
      <point x="504" y="-213"/>
      <point x="482" y="-202" type="qcurve"/>
      <point x="438" y="-181"/>
      <point x="438" y="-130" type="qcurve"/>
      <point x="438" y="-63"/>
      <point x="534" y="0" type="qcurve"/>
      <point x="535" y="0" type="line"/>
      <point x="449" y="256" type="line"/>
      <point x="209" y="256" type="line"/>
      <point x="125" y="0" type="line"/>
      <point x="78" y="0" type="line"/>
      <point x="308" y="700" type="line"/>
      <point x="350" y="700" type="line"/>
      <point x="583" y="0" type="line"/>
    </contour>
    <contour>
      <point x="329" y="627" type="line"/>
      <point x="223" y="300" type="line"/>
      <point x="437" y="300" type="line"/>
    </contour>
  </outline>
</glyph>
<glyph name="aogonek" format="1">
  <advance width="502"/>
  <unicode hex="0105"/>
  <outline>
    <contour>
      <point x="364" y="-5" type="qcurve"/>
      <point x="304" y="-11"/>
      <point x="229" y="-11"/>
      <point x="137" y="4"/>
      <point x="78" y="40"/>
      <point x="37" y="115"/>
      <point x="37" y="169" type="qcurve"/>
      <point x="37" y="252" type="line"/>
      <point x="37" y="351"/>
      <point x="107" y="385" type="qcurve"/>
      <point x="143" y="402"/>
      <point x="180" y="402" type="qcurve"/>
      <point x="302" y="402"/>
      <point x="377" y="346" type="qcurve"/>
      <point x="377" y="403"/>
      <point x="308" y="473"/>
      <point x="216" y="473" type="qcurve"/>
      <point x="214" y="473"/>
      <point x="211" y="473" type="qcurve"/>
      <point x="214" y="509" type="line"/>
      <point x="295" y="509"/>
      <point x="334" y="490" type="qcurve"/>
      <point x="355" y="479"/>
      <point x="387" y="457"/>
      <point x="405" y="421"/>
      <point x="417" y="394"/>
      <point x="419" y="371" type="qcurve"/>
      <point x="422" y="336"/>
      <point x="422" y="298" type="qcurve"/>
      <point x="422" y="0" type="line"/>
      <point x="421" y="0" type="line"/>
      <point x="318" y="-82"/>
      <point x="318" y="-129" type="qcurve"/>
      <point x="318" y="-147"/>
      <point x="344" y="-174"/>
      <point x="367" y="-174" type="qcurve"/>
      <point x="409" y="-174"/>
      <point x="435" y="-132" type="qcurve"/>
      <point x="466" y="-163" type="line"/>
      <point x="434" y="-213"/>
      <point x="369" y="-213" type="qcurve"/>
      <point x="343" y="-213"/>
      <point x="321" y="-202" type="qcurve"/>
      <point x="277" y="-181"/>
      <point x="277" y="-130" type="qcurve"/>
      <point x="277" y="-66"/>
    </contour>
    <contour>
      <point x="81" y="249" type="qcurve"/>
      <point x="81" y="162" type="line"/>
      <point x="81" y="114"/>
      <point x="128" y="52"/>
      <point x="168" y="42" type="qcurve"/>
      <point x="258" y="18"/>
      <point x="377" y="38" type="qcurve"/>
      <point x="377" y="309" type="line"/>
      <point x="294" y="355"/>
      <point x="196" y="361" type="qcurve"/>
      <point x="191" y="361"/>
      <point x="187" y="361" type="qcurve"/>
      <point x="144" y="361"/>
      <point x="81" y="308"/>
    </contour>
  </outline>
</glyph>
<glyph name="Cacute" format="1">
  <advance width="434"/>
  <unicode hex="0106"/>
  <outline>
    <contour>
      <point x="427" y="23" type="line"/>
      <point x="342" y="-10"/>
      <point x="265" y="-10" type="qcurve"/>
      <point x="249" y="-10"/>
      <point x="184" y="-4"/>
      <point x="111" y="35"/>
      <point x="66" y="120"/>
      <point x="66" y="183" type="qcurve"/>
      <point x="66" y="504" type="line"/>
      <point x="66" y="580"/>
      <point x="109" y="658"/>
      <point x="153" y="685" type="qcurve"/>
      <point x="198" y="710"/>
      <point x="260" y="710" type="qcurve"/>
      <point x="338" y="710"/>
      <point x="402" y="677" type="qcurve"/>
      <point x="388" y="645" type="line"/>
      <point x="330" y="669"/>
      <point x="273" y="669" type="qcurve"/>
      <point x="193" y="669"/>
      <point x="152" y="629" type="qcurve"/>
      <point x="135" y="613"/>
      <point x="111" y="553"/>
      <point x="111" y="513" type="qcurve"/>
      <point x="111" y="185" type="line"/>
      <point x="111" y="78"/>
      <point x="190" y="44" type="qcurve"/>
      <point x="221" y="31"/>
      <point x="328" y="31"/>
      <point x="417" y="61" type="qcurve"/>
    </contour>
    <contour>
      <point x="234" y="734" type="line"/>
      <point x="286" y="855" type="line"/>
      <point x="295" y="875"/>
      <point x="312" y="875" type="qcurve"/>
      <point x="336" y="875"/>
      <point x="342" y="856" type="qcurve"/>
      <point x="343" y="851"/>
      <point x="343" y="839"/>
      <point x="338" y="832" type="qcurve"/>
      <point x="270" y="734" type="line"/>
    </contour>
  </outline>
</glyph>
<glyph name="cacute" format="1">
  <advance width="435"/>
  <unicode hex="0107"/>
  <outline>
    <contour>
      <point x="385" y="443" type="line"/>
      <point x="327" y="469"/>
      <point x="237" y="469"/>
      <point x="170" y="446"/>
      <point x="123" y="371"/>
      <point x="123" y="314" type="qcurve"/>
      <point x="123" y="169" type="line"/>
      <point x="123" y="29"/>
      <point x="283" y="29" type="qcurve"/>
      <point x="332" y="29"/>
      <point x="390" y="43" type="qcurve"/>
      <point x="400" y="6" type="line"/>
      <point x="336" y="-11"/>
      <point x="232" y="-11"/>
      <point x="182" y="5" type="qcurve"/>
      <point x="78" y="39"/>
      <point x="78" y="180" type="qcurve"/>
      <point x="78" y="308" type="line"/>
      <point x="78" y="379"/>
      <point x="106" y="427" type="qcurve"/>
      <point x="154" y="510"/>
      <point x="264" y="510" type="qcurve"/>
      <point x="330" y="510"/>
      <point x="398" y="478" type="qcurve"/>
    </contour>
    <contour>
      <point x="209" y="538" type="line"/>
      <point x="261" y="659" type="line"/>
      <point x="270" y="679"/>
      <point x="287" y="679" type="qcurve"/>
      <point x="311" y="679"/>
      <point x="316" y="660" type="qcurve"/>
      <point x="318" y="655"/>
      <point x="318" y="643"/>
      <point x="313" y="636" type="qcurve"/>
      <point x="245" y="538" type="line"/>
    </contour>
  </outline>
</glyph>
<glyph name="ccircumflex" format="1">
  <advance width="467"/>
  <unicode hex="0109"/>
  <outline>
    <contour>
      <point x="385" y="443" type="line"/>
      <point x="327" y="469"/>
      <point x="237" y="469"/>
      <point x="170" y="446"/>
      <point x="123" y="371"/>
      <point x="123" y="314" type="qcurve"/>
      <point x="123" y="169" type="line"/>
      <point x="123" y="29"/>
      <point x="283" y="29" type="qcurve"/>
      <point x="332" y="29"/>
      <point x="390" y="43" type="qcurve"/>
      <point x="400" y="6" type="line"/>
      <point x="336" y="-11"/>
      <point x="232" y="-11"/>
      <point x="182" y="5" type="qcurve"/>
      <point x="78" y="39"/>
      <point x="78" y="180" type="qcurve"/>
      <point x="78" y="308" type="line"/>
      <point x="78" y="379"/>
      <point x="106" y="427" type="qcurve"/>
      <point x="154" y="510"/>
      <point x="264" y="510" type="qcurve"/>
      <point x="330" y="510"/>
      <point x="398" y="478" type="qcurve"/>
    </contour>
    <contour>
      <point x="118" y="580" type="line"/>
      <point x="266" y="721" type="line"/>
      <point x="408" y="580" type="line"/>
      <point x="376" y="548" type="line"/>
      <point x="265" y="659" type="line"/>
      <point x="149" y="548" type="line"/>
    </contour>
  </outline>
</glyph>
<glyph name="Cdotaccent" format="1">
  <advance width="434"/>
  <unicode hex="010A"/>
  <outline>
    <contour>
      <point x="427" y="23" type="line"/>
      <point x="342" y="-10"/>
      <point x="265" y="-10" type="qcurve"/>
      <point x="249" y="-10"/>
      <point x="184" y="-4"/>
      <point x="111" y="35"/>
      <point x="66" y="120"/>
      <point x="66" y="183" type="qcurve"/>
      <point x="66" y="504" type="line"/>
      <point x="66" y="580"/>
      <point x="109" y="658"/>
      <point x="153" y="685" type="qcurve"/>
      <point x="198" y="710"/>
      <point x="260" y="710" type="qcurve"/>
      <point x="338" y="710"/>
      <point x="402" y="677" type="qcurve"/>
      <point x="388" y="645" type="line"/>
      <point x="330" y="669"/>
      <point x="273" y="669" type="qcurve"/>
      <point x="193" y="669"/>
      <point x="152" y="629" type="qcurve"/>
      <point x="135" y="613"/>
      <point x="111" y="553"/>
      <point x="111" y="513" type="qcurve"/>
      <point x="111" y="185" type="line"/>
      <point x="111" y="78"/>
      <point x="190" y="44" type="qcurve"/>
      <point x="221" y="31"/>
      <point x="328" y="31"/>
      <point x="417" y="61" type="qcurve"/>
    </contour>
    <contour>
      <point x="245" y="750" type="qcurve"/>
      <point x="237" y="759"/>
      <point x="237" y="781"/>
      <point x="254" y="797"/>
      <point x="276" y="797"/>
      <point x="292" y="781"/>
      <point x="292" y="759"/>
      <point x="276" y="742"/>
      <point x="254" y="742"/>
    </contour>
  </outline>
</glyph>
<glyph name="cdotaccent" format="1">
  <advance width="435"/>
  <unicode hex="010B"/>
  <outline>
    <contour>
      <point x="385" y="443" type="line"/>
      <point x="327" y="469"/>
      <point x="237" y="469"/>
      <point x="170" y="446"/>
      <point x="123" y="371"/>
      <point x="123" y="314" type="qcurve"/>
      <point x="123" y="169" type="line"/>
      <point x="123" y="29"/>
      <point x="283" y="29" type="qcurve"/>
      <point x="332" y="29"/>
      <point x="390" y="43" type="qcurve"/>
      <point x="400" y="6" type="line"/>
      <point x="336" y="-11"/>
      <point x="232" y="-11"/>
      <point x="182" y="5" type="qcurve"/>
      <point x="78" y="39"/>
      <point x="78" y="180" type="qcurve"/>
      <point x="78" y="308" type="line"/>
      <point x="78" y="379"/>
      <point x="106" y="427" type="qcurve"/>
      <point x="154" y="510"/>
      <point x="264" y="510" type="qcurve"/>
      <point x="330" y="510"/>
      <point x="398" y="478" type="qcurve"/>
    </contour>
    <contour>
      <point x="244" y="558" type="qcurve"/>
      <point x="236" y="567"/>
      <point x="236" y="589"/>
      <point x="253" y="605"/>
      <point x="275" y="605"/>
      <point x="291" y="589"/>
      <point x="291" y="567"/>
      <point x="275" y="550"/>
      <point x="253" y="550"/>
    </contour>
  </outline>
</glyph>
<glyph name="ccaron" format="1">
  <advance width="436"/>
  <unicode hex="010D"/>
  <outline>
    <contour>
      <point x="385" y="443" type="line"/>
      <point x="327" y="469"/>
      <point x="237" y="469"/>
      <point x="170" y="446"/>
      <point x="123" y="371"/>
      <point x="123" y="314" type="qcurve"/>
      <point x="123" y="169" type="line"/>
      <point x="123" y="29"/>
      <point x="283" y="29" type="qcurve"/>
      <point x="332" y="29"/>
      <point x="390" y="43" type="qcurve"/>
      <point x="400" y="6" type="line"/>
      <point x="336" y="-11"/>
      <point x="232" y="-11"/>
      <point x="182" y="5" type="qcurve"/>
      <point x="78" y="39"/>
      <point x="78" y="180" type="qcurve"/>
      <point x="78" y="308" type="line"/>
      <point x="78" y="379"/>
      <point x="106" y="427" type="qcurve"/>
      <point x="154" y="510"/>
      <point x="264" y="510" type="qcurve"/>
      <point x="330" y="510"/>
      <point x="398" y="478" type="qcurve"/>
    </contour>
    <contour>
      <point x="111" y="684" type="line"/>
      <point x="142" y="716" type="line"/>
      <point x="258" y="605" type="line"/>
      <point x="370" y="716" type="line"/>
      <point x="401" y="684" type="line"/>
      <point x="259" y="543" type="line"/>
    </contour>
  </outline>
</glyph>
<glyph name="dcaron" format="1">
  <advance width="608"/>
  <unicode hex="010F"/>
  <outline>
    <contour>
      <point x="262" y="509" type="qcurve"/>
      <point x="348" y="509"/>
      <point x="402" y="475" type="qcurve"/>
      <point x="402" y="700" type="line"/>
      <point x="447" y="700" type="line"/>
      <point x="447" y="0" type="line"/>
      <point x="361" y="-12"/>
      <point x="215" y="-12"/>
      <point x="156" y="18" type="qcurve"/>
      <point x="78" y="58"/>
      <point x="78" y="157" type="qcurve"/>
      <point x="78" y="346" type="line"/>
      <point x="78" y="451"/>
      <point x="163" y="490" type="qcurve"/>
      <point x="205" y="509"/>
    </contour>
    <contour>
      <point x="402" y="435" type="line"/>
      <point x="341" y="468"/>
      <point x="259" y="468" type="qcurve"/>
      <point x="244" y="468"/>
      <point x="230" y="467" type="qcurve"/>
      <point x="184" y="463"/>
      <point x="122" y="399"/>
      <point x="122" y="343" type="qcurve"/>
      <point x="122" y="156" type="line"/>
      <point x="122" y="95"/>
      <point x="165" y="63" type="qcurve"/>
      <point x="209" y="30"/>
      <point x="335" y="30"/>
      <point x="402" y="40" type="qcurve"/>
    </contour>
    <contour>
      <point x="539" y="642" type="qcurve"/>
      <point x="532" y="644" type="line"/>
      <point x="515" y="654"/>
      <point x="516" y="685"/>
      <point x="531" y="699"/>
      <point x="543" y="699"/>
      <point x="555" y="698"/>
      <point x="573" y="679"/>
      <point x="573" y="668" type="qcurve"/>
      <point x="573" y="613"/>
      <point x="509" y="560" type="qcurve"/>
      <point x="477" y="583" type="line"/>
      <point x="499" y="595"/>
      <point x="530" y="625"/>
    </contour>
  </outline>
</glyph>
<glyph name="Dcroat" format="1">
  <advance width="576"/>
  <unicode hex="0110"/>
  <outline>
    <contour>
      <point x="78" y="701" type="line"/>
      <point x="266" y="701" type="line"/>
      <point x="379" y="701"/>
      <point x="498" y="577"/>
      <point x="498" y="474" type="qcurve"/>
      <point x="498" y="200" type="line"/>
      <point x="498" y="0"/>
      <point x="286" y="0" type="qcurve"/>
      <point x="78" y="0" type="line"/>
    </contour>
    <contour>
      <point x="123" y="659" type="line"/>
      <point x="123" y="41" type="line"/>
      <point x="272" y="41" type="line"/>
      <point x="338" y="41"/>
      <point x="389" y="65" type="qcurve"/>
      <point x="453" y="95"/>
      <point x="453" y="197" type="qcurve"/>
      <point x="453" y="479" type="line"/>
      <point x="453" y="570"/>
      <point x="348" y="659"/>
      <point x="276" y="659" type="qcurve"/>
    </contour>
    <contour>
      <point x="175" y="788" type="line"/>
      <point x="392" y="788" type="line"/>
      <point x="392" y="742" type="line"/>
      <point x="175" y="742" type="line"/>
    </contour>
  </outline>
</glyph>
<glyph name="dslash" format="1">
  <advance width="543"/>
  <unicode hex="0111"/>
  <outline>
    <contour>
      <point x="262" y="509" type="qcurve"/>
      <point x="348" y="509"/>
      <point x="402" y="475" type="qcurve"/>
      <point x="402" y="573" type="line"/>
      <point x="447" y="573" type="line"/>
      <point x="447" y="0" type="line"/>
      <point x="361" y="-12"/>
      <point x="215" y="-12"/>
      <point x="156" y="18" type="qcurve"/>
      <point x="78" y="58"/>
      <point x="78" y="157" type="qcurve"/>
      <point x="78" y="346" type="line"/>
      <point x="78" y="451"/>
      <point x="163" y="490" type="qcurve"/>
      <point x="205" y="509"/>
    </contour>
    <contour>
      <point x="402" y="435" type="line"/>
      <point x="341" y="468"/>
      <point x="259" y="468" type="qcurve"/>
      <point x="244" y="468"/>
      <point x="230" y="467" type="qcurve"/>
      <point x="184" y="463"/>
      <point x="122" y="399"/>
      <point x="122" y="343" type="qcurve"/>
      <point x="122" y="156" type="line"/>
      <point x="122" y="95"/>
      <point x="165" y="63" type="qcurve"/>
      <point x="209" y="30"/>
      <point x="335" y="30"/>
      <point x="402" y="40" type="qcurve"/>
    </contour>
    <contour>
      <point x="274" y="617" type="line"/>
      <point x="402" y="617" type="line"/>
      <point x="402" y="573" type="line"/>
      <point x="274" y="573" type="line"/>
    </contour>
    <contour>
      <point x="402" y="700" type="line"/>
      <point x="447" y="700" type="line"/>
      <point x="447" y="617" type="line"/>
      <point x="402" y="617" type="line"/>
    </contour>
    <contour>
      <point x="508" y="573" type="line"/>
      <point x="447" y="573" type="line"/>
      <point x="447" y="617" type="line"/>
      <point x="508" y="617" type="line"/>
    </contour>
  </outline>
</glyph>
<glyph name="Edotaccent" format="1">
  <advance width="465"/>
  <unicode hex="0116"/>
  <outline>
    <contour>
      <point x="78" y="700" type="line"/>
      <point x="412" y="700" type="line"/>
      <point x="412" y="658" type="line"/>
      <point x="123" y="658" type="line"/>
      <point x="123" y="413" type="line"/>
      <point x="325" y="413" type="line"/>
      <point x="310" y="369" type="line"/>
      <point x="123" y="369" type="line"/>
      <point x="123" y="41" type="line"/>
      <point x="410" y="41" type="line"/>
      <point x="410" y="0" type="line"/>
      <point x="78" y="0" type="line"/>
    </contour>
    <contour>
      <point x="235" y="750" type="qcurve"/>
      <point x="227" y="759"/>
      <point x="227" y="781"/>
      <point x="244" y="797"/>
      <point x="266" y="797"/>
      <point x="282" y="781"/>
      <point x="282" y="759"/>
      <point x="266" y="742"/>
      <point x="244" y="742"/>
    </contour>
  </outline>
</glyph>
<glyph name="edotaccent" format="1">
  <advance width="473"/>
  <unicode hex="0117"/>
  <outline>
    <contour>
      <point x="413" y="35" type="line"/>
      <point x="336" y="-12"/>
      <point x="252" y="-12" type="qcurve"/>
      <point x="78" y="-12"/>
      <point x="78" y="134" type="qcurve"/>
      <point x="78" y="339" type="line"/>
      <point x="78" y="420"/>
      <point x="179" y="510"/>
      <point x="345" y="510"/>
      <point x="438" y="421"/>
      <point x="438" y="342" type="qcurve"/>
      <point x="438" y="222" type="line"/>
      <point x="123" y="205" type="line"/>
      <point x="123" y="133" type="line"/>
      <point x="123" y="76"/>
      <point x="197" y="27"/>
      <point x="244" y="27" type="qcurve"/>
      <point x="316" y="27"/>
      <point x="395" y="70" type="qcurve"/>
    </contour>
    <contour>
      <point x="123" y="339" type="qcurve"/>
      <point x="123" y="249" type="line"/>
      <point x="393" y="263" type="line"/>
      <point x="393" y="347" type="line"/>
      <point x="393" y="414"/>
      <point x="311" y="471"/>
      <point x="202" y="471"/>
      <point x="123" y="407"/>
    </contour>
    <contour>
      <point x="249" y="558" type="qcurve"/>
      <point x="241" y="567"/>
      <point x="241" y="589"/>
      <point x="258" y="605"/>
      <point x="280" y="605"/>
      <point x="296" y="589"/>
      <point x="296" y="567"/>
      <point x="280" y="550"/>
      <point x="258" y="550"/>
    </contour>
  </outline>
</glyph>
<glyph name="Eogonek" format="1">
  <advance width="507"/>
  <unicode hex="0118"/>
  <outline>
    <contour>
      <point x="409" y="0" type="line"/>
      <point x="306" y="-82"/>
      <point x="306" y="-129" type="qcurve"/>
      <point x="306" y="-147"/>
      <point x="332" y="-174"/>
      <point x="355" y="-174" type="qcurve"/>
      <point x="397" y="-174"/>
      <point x="423" y="-132" type="qcurve"/>
      <point x="454" y="-163" type="line"/>
      <point x="422" y="-213"/>
      <point x="357" y="-213" type="qcurve"/>
      <point x="331" y="-213"/>
      <point x="309" y="-202" type="qcurve"/>
      <point x="265" y="-181"/>
      <point x="265" y="-130" type="qcurve"/>
      <point x="265" y="-63"/>
      <point x="361" y="0" type="qcurve"/>
      <point x="78" y="0" type="line"/>
      <point x="78" y="700" type="line"/>
      <point x="412" y="700" type="line"/>
      <point x="412" y="658" type="line"/>
      <point x="123" y="658" type="line"/>
      <point x="123" y="413" type="line"/>
      <point x="325" y="413" type="line"/>
      <point x="310" y="369" type="line"/>
      <point x="123" y="369" type="line"/>
      <point x="123" y="41" type="line"/>
      <point x="410" y="41" type="line"/>
      <point x="410" y="0" type="line"/>
    </contour>
  </outline>
</glyph>
<glyph name="eogonek" format="1">
  <advance width="434"/>
  <unicode hex="0119"/>
  <outline>
    <contour>
      <point x="201" y="27" type="qcurve"/>
      <point x="273" y="27"/>
      <point x="352" y="70" type="qcurve"/>
      <point x="370" y="35" type="line"/>
      <point x="318" y="3"/>
      <point x="252" y="-8" type="qcurve"/>
      <point x="159" y="-83"/>
      <point x="159" y="-129" type="qcurve"/>
      <point x="159" y="-147"/>
      <point x="185" y="-174"/>
      <point x="208" y="-174" type="qcurve"/>
      <point x="250" y="-174"/>
      <point x="276" y="-132" type="qcurve"/>
      <point x="307" y="-163" type="line"/>
      <point x="275" y="-213"/>
      <point x="210" y="-213" type="qcurve"/>
      <point x="184" y="-213"/>
      <point x="162" y="-202" type="qcurve"/>
      <point x="118" y="-181"/>
      <point x="118" y="-130" type="qcurve"/>
      <point x="118" y="-69"/>
      <point x="196" y="-12" type="qcurve"/>
      <point x="122" y="-12"/>
      <point x="35" y="61"/>
      <point x="35" y="134" type="qcurve"/>
      <point x="35" y="339" type="line"/>
      <point x="35" y="420"/>
      <point x="136" y="510"/>
      <point x="302" y="510"/>
      <point x="395" y="421"/>
      <point x="395" y="342" type="qcurve"/>
      <point x="395" y="222" type="line"/>
      <point x="80" y="205" type="line"/>
      <point x="80" y="133" type="line"/>
      <point x="80" y="76"/>
      <point x="154" y="27"/>
    </contour>
    <contour>
      <point x="80" y="339" type="qcurve"/>
      <point x="80" y="249" type="line"/>
      <point x="350" y="263" type="line"/>
      <point x="350" y="347" type="line"/>
      <point x="350" y="414"/>
      <point x="268" y="471"/>
      <point x="159" y="471"/>
      <point x="80" y="407"/>
    </contour>
  </outline>
</glyph>
<glyph name="Ecaron" format="1">
  <advance width="465"/>
  <unicode hex="011A"/>
  <outline>
    <contour>
      <point x="78" y="700" type="line"/>
      <point x="412" y="700" type="line"/>
      <point x="412" y="658" type="line"/>
      <point x="123" y="658" type="line"/>
      <point x="123" y="413" type="line"/>
      <point x="325" y="413" type="line"/>
      <point x="310" y="369" type="line"/>
      <point x="123" y="369" type="line"/>
      <point x="123" y="41" type="line"/>
      <point x="410" y="41" type="line"/>
      <point x="410" y="0" type="line"/>
      <point x="78" y="0" type="line"/>
    </contour>
    <contour>
      <point x="101" y="875" type="line"/>
      <point x="132" y="907" type="line"/>
      <point x="248" y="796" type="line"/>
      <point x="360" y="907" type="line"/>
      <point x="391" y="875" type="line"/>
      <point x="249" y="734" type="line"/>
    </contour>
  </outline>
</glyph>
<glyph name="ecaron" format="1">
  <advance width="473"/>
  <unicode hex="011B"/>
  <outline>
    <contour>
      <point x="413" y="35" type="line"/>
      <point x="336" y="-12"/>
      <point x="252" y="-12" type="qcurve"/>
      <point x="78" y="-12"/>
      <point x="78" y="134" type="qcurve"/>
      <point x="78" y="339" type="line"/>
      <point x="78" y="420"/>
      <point x="179" y="510"/>
      <point x="345" y="510"/>
      <point x="438" y="421"/>
      <point x="438" y="342" type="qcurve"/>
      <point x="438" y="222" type="line"/>
      <point x="123" y="205" type="line"/>
      <point x="123" y="133" type="line"/>
      <point x="123" y="76"/>
      <point x="197" y="27"/>
      <point x="244" y="27" type="qcurve"/>
      <point x="316" y="27"/>
      <point x="395" y="70" type="qcurve"/>
    </contour>
    <contour>
      <point x="123" y="339" type="qcurve"/>
      <point x="123" y="249" type="line"/>
      <point x="393" y="263" type="line"/>
      <point x="393" y="347" type="line"/>
      <point x="393" y="414"/>
      <point x="311" y="471"/>
      <point x="202" y="471"/>
      <point x="123" y="407"/>
    </contour>
    <contour>
      <point x="117" y="683" type="line"/>
      <point x="148" y="715" type="line"/>
      <point x="264" y="604" type="line"/>
      <point x="376" y="715" type="line"/>
      <point x="407" y="683" type="line"/>
      <point x="265" y="542" type="line"/>
    </contour>
  </outline>
</glyph>
